<?xml version="1.0" encoding="utf-8"?>
<!-- Generator: Adobe Illustrator 16.0.0, SVG Export Plug-In . SVG Version: 6.00 Build 0)  -->
<!DOCTYPE svg PUBLIC "-//W3C//DTD SVG 1.1//EN" "http://www.w3.org/Graphics/SVG/1.1/DTD/svg11.dtd">
<svg version="1.1" id="Layer_1" xmlns="http://www.w3.org/2000/svg" xmlns:xlink="http://www.w3.org/1999/xlink" x="0px" y="0px"
	 width="128px" height="128px" viewBox="0 0 128 128" enable-background="new 0 0 128 128" xml:space="preserve">
<g>
	<g>
		<path fill="#282D33" d="M118.075,82.54l-0.052-4.01c2.302-0.028,5.566-2.167,5.562-4.126V37.077
			c-0.002-2.608-1.975-5.64-4.14-6.357c-10.238-3.314-21.076-3.314-31.328,0.004c-2.152,0.713-4.124,3.743-4.126,6.354v37.321
			h-4.009V37.077c0.003-4.349,3.092-8.908,6.888-10.164c11.073-3.582,22.767-3.582,33.824-0.004c3.808,1.264,6.897,5.822,6.9,10.167
			v37.323C127.607,79.22,121.873,82.492,118.075,82.54z"/>
	</g>
	<g>
		<polygon fill="#282D33" points="41.001,82.516 39.686,78.728 48.998,75.493 39.344,45.058 43.166,43.846 54,78.001 		"/>
	</g>
	<g>
		<path fill="#282D33" d="M65.304,82.935c-4.935,0-8.948-4.038-8.948-9.001c0-4.964,4.014-9.002,8.948-9.002
			c4.934,0,8.948,4.038,8.948,9.002C74.252,78.896,70.237,82.935,65.304,82.935z M65.304,68.941c-2.724,0-4.939,2.239-4.939,4.992
			s2.215,4.991,4.939,4.991s4.938-2.238,4.938-4.991S68.027,68.941,65.304,68.941z"/>
	</g>
	<g>
		<path fill="#282D33" d="M76.255,111.096H53.133V86.193h23.122V111.096z M57.143,107.086h15.103V90.202H57.143V107.086z"/>
	</g>
	<g>
		
			<rect x="44.336" y="80.896" transform="matrix(0.6057 0.7957 -0.7957 0.6057 86.0697 -7.8878)" fill="#282D33" width="13.315" height="4.009"/>
	</g>
	<g>
		
			<rect x="76.388" y="76.243" transform="matrix(0.7959 0.6054 -0.6054 0.7959 66.1917 -30.5414)" fill="#282D33" width="4.01" height="13.315"/>
	</g>
	<g>
		<g>
			<rect x="57.198" y="108.682" fill="#282D33" width="4.01" height="17.614"/>
		</g>
		<g>
			<rect x="68.18" y="108.682" fill="#282D33" width="4.01" height="17.614"/>
		</g>
	</g>
	<g>
		<polygon fill="#282D33" points="31.222,128 17.375,128 15.071,106.388 19.058,105.963 20.98,123.99 27.617,123.99 29.54,105.963 
			33.526,106.388 		"/>
	</g>
	<g>
		<rect x="101.781" y="86.12" fill="#282D33" width="4.01" height="39.879"/>
	</g>
	<g>
		<g>
			<polygon fill="#282D33" points="118.483,125.544 89.096,125.544 89.096,42.809 93.104,42.809 93.104,121.534 114.474,121.534 
				114.474,42.809 118.483,42.809 			"/>
		</g>
	</g>
	<g>
		<rect x="101.781" y="86.12" fill="#282D33" width="4.01" height="39.879"/>
	</g>
	<g>
		<path fill="#282D33" d="M5.787,78.736c-0.812-2.73-1.714-5.734-2.616-8.738c-0.896-2.98-1.791-5.96-2.596-8.669l-0.17-0.571
			L5.422,43.88c1.091-3.498,4.152-8.112,7.208-9.511c4.296-1.886,7.993-2.759,11.665-2.761c3.681,0.002,7.377,0.875,11.645,2.747
			c3.082,1.406,6.144,6.021,7.229,9.499l-3.827,1.194c-0.954-3.058-3.537-6.348-5.04-7.033c-3.716-1.63-6.901-2.396-9.998-2.397
			c-3.105,0.002-6.292,0.768-10.034,2.409c-1.475,0.676-4.06,3.967-5.012,7.021l-4.67,15.709c0.76,2.551,1.591,5.318,2.423,8.088
			c0.903,3.007,1.807,6.015,2.619,8.747L5.787,78.736z"/>
	</g>
	<g>
		<g>
			<polygon fill="#282D33" points="47.105,101.975 1.494,101.975 12.803,46.1 16.733,46.894 6.397,97.965 42.203,97.965 
				31.866,46.895 35.796,46.099 			"/>
		</g>
	</g>
	<g>
		<path fill="#282D33" d="M103.79,28.04c-7.681,0-13.931-6.289-13.931-14.02C89.859,6.289,96.109,0,103.79,0
			s13.93,6.289,13.93,14.021C117.72,21.751,111.471,28.04,103.79,28.04z M103.79,4.009c-5.47,0-9.921,4.491-9.921,10.012
			c0,5.52,4.451,10.01,9.921,10.01s9.92-4.49,9.92-10.01C113.71,8.5,109.26,4.009,103.79,4.009z"/>
	</g>
	<g>
		<path fill="#282D33" d="M24.302,34.799c-7.345,0-13.321-6.014-13.321-13.405S16.957,7.988,24.302,7.988
			c7.343,0,13.317,6.014,13.317,13.405S31.645,34.799,24.302,34.799z M24.302,11.997c-5.134,0-9.312,4.215-9.312,9.396
			c0,5.181,4.178,9.396,9.312,9.396c5.132,0,9.307-4.216,9.307-9.396C33.609,16.212,29.434,11.997,24.302,11.997z"/>
	</g>
</g>
</svg>
