<?xml version="1.0" encoding="UTF-8"?>
<svg version="1.1" xmlns="http://www.w3.org/2000/svg" width="512" height="512">
<path d="M0 0 C10.00417946 7.1765223 14.48865609 15.84096826 18.3125 27.3125 C19.27336798 41.78852746 17.61355198 53.11253495 8.453125 64.90234375 C1.91410633 72.26470601 -6.03857022 76.70434504 -15.6875 78.3125 C-15.6875 83.5925 -15.6875 88.8725 -15.6875 94.3125 C1.26322495 90.41841454 15.06578413 82.65937689 24.78125 67.92578125 C30.85271035 57.56402877 33.43018792 47.64122888 34.5546875 35.73828125 C35.39395104 31.94429091 36.29508767 30.67021192 39.3125 28.3125 C42.28375275 26.82687363 44.9603401 27.17962214 48.27693176 27.17205811 C49.36451177 27.16760142 49.36451177 27.16760142 50.4740631 27.1630547 C52.91606987 27.1543476 55.35802774 27.15285776 57.80004883 27.15136719 C59.5459046 27.14674042 61.29175935 27.14171595 63.03761292 27.13632202 C67.78974438 27.12318203 72.5418617 27.1167499 77.29400849 27.11231136 C80.26132731 27.1093831 83.22864223 27.10527875 86.19595909 27.10080719 C95.4752357 27.08712779 104.75450346 27.07746341 114.03378946 27.0736053 C124.75412106 27.06912388 135.47432521 27.05157397 146.19461805 27.0226047 C154.47492543 27.0010039 162.75519691 26.99090187 171.03553218 26.98956418 C175.98377322 26.98851496 180.93189453 26.98258247 185.88010597 26.96474457 C190.5348316 26.94829164 195.18934712 26.94609484 199.84409142 26.95488358 C201.55292192 26.95565545 203.2617636 26.95129142 204.9705658 26.94142532 C207.30300108 26.92874802 209.6346875 26.93455921 211.96711731 26.94500732 C213.27254392 26.94354076 214.57797052 26.9420742 215.92295551 26.9405632 C219.54521893 27.33803639 221.43420145 28.12028941 224.3125 30.3125 C226.890309 35.46811799 225.88131585 42.97829193 224.55859375 48.40625 C222.76649338 53.52252086 220.63002032 57.98967049 217.3125 62.3125 C216.590625 63.3025 215.86875 64.2925 215.125 65.3125 C212.38864603 68.55023559 209.06220831 70.6744686 205.49609375 72.91796875 C203.32796852 74.30262118 201.26292988 75.63199568 199.3125 77.3125 C199.07536959 78.90466134 198.85024123 80.49969484 198.69140625 82.1015625 C196.83871766 92.91209593 190.50380907 101.71518573 181.82421875 108.16015625 C177.76224359 110.7312665 173.93827542 112.51520721 169.3125 113.8125 C167.1186189 114.42661523 167.1186189 114.42661523 165.3125 115.3125 C163.98574944 117.95104533 163.98574944 117.95104533 163.3125 121.3125 C156.87810058 134.13896726 148.58614874 140.42552717 135.24609375 145.47265625 C132.45908723 146.27053428 130.31598752 146.52472689 127.4375 146.4375 C126.65632813 146.41945312 125.87515625 146.40140625 125.0703125 146.3828125 C124.49023438 146.35960937 123.91015625 146.33640625 123.3125 146.3125 C123.18681641 147.39724609 123.18681641 147.39724609 123.05859375 148.50390625 C121.20202033 155.49278733 114.29370092 161.00398676 108.375 164.75 C100.64560163 168.93478163 94.28984177 170.46826187 85.5 170.125 C79.91974643 169.78944721 79.91974643 169.78944721 75.5625 172.875 C75.2428125 173.41898438 74.923125 173.96296875 74.59375 174.5234375 C69.50942007 181.62289819 59.20776105 185.15101645 50.953125 186.77734375 C45.05065757 187.61383993 39.80205541 186.94564362 33.9765625 185.78515625 C30.68756919 185.20162518 28.22631082 184.7726003 25.26953125 186.51953125 C24.56183594 187.04933594 23.85414063 187.57914063 23.125 188.125 C13.58571653 194.72313408 3.1263079 196.24736717 -8.25 194.4375 C-13.30399485 193.50425258 -13.30399485 193.50425258 -15.6875 192.3125 C-15.6875 223.0025 -15.6875 253.6925 -15.6875 285.3125 C-11.3975 285.9725 -7.1075 286.6325 -2.6875 287.3125 C13.46860109 292.04509527 28.89418004 299.78422028 37.78125 314.79296875 C43.35151068 325.49628941 45.32854597 336.60389025 42.25 348.5 C39.27228443 357.02581768 33.97065276 364.30392312 27.3125 370.3125 C23.37777452 369.00092484 22.18566576 366.97866553 19.625 363.75 C18.81675781 362.73808594 18.00851562 361.72617187 17.17578125 360.68359375 C16.56089844 359.90113281 15.94601562 359.11867188 15.3125 358.3125 C15.89257812 357.62027344 15.89257812 357.62027344 16.484375 356.9140625 C21.36609147 350.79983345 24.69632481 344.62572635 25.8125 336.8125 C24.41184331 327.00790317 19.80719774 320.02701754 12.38671875 313.66015625 C4.2714552 307.65394425 -5.86329522 304.94986746 -15.6875 303.3125 C-15.6875 325.7525 -15.6875 348.1925 -15.6875 371.3125 C-8.7575 372.7975 -8.7575 372.7975 -1.6875 374.3125 C11.49855091 379.85064138 22.01429873 388.15311518 27.6875 401.5625 C29.53918807 412.6726284 28.66597897 422.78228154 22.3125 432.3125 C18.30514783 431.71139717 15.75780629 429.64647972 12.5625 427.25 C11.57765625 426.51652344 10.5928125 425.78304688 9.578125 425.02734375 C8.83046875 424.46144531 8.0828125 423.89554687 7.3125 423.3125 C7.65474609 422.49458984 7.65474609 422.49458984 8.00390625 421.66015625 C10.69276995 414.60641066 11.00574585 409.16078602 7.9375 402.1875 C1.21144695 394.82087047 -6.16766768 392.1684497 -15.6875 389.3125 C-15.6875 404.8225 -15.6875 420.3325 -15.6875 436.3125 C-12.7175 436.9725 -9.7475 437.6325 -6.6875 438.3125 C1.7438862 441.97933555 7.52654164 447.72914915 12.25 455.5 C14.18782533 462.45337324 14.75887793 470.15443214 11.5625 476.8125 C10.84781766 478.00112957 10.09985007 479.17070712 9.3125 480.3125 C8.673125 481.26125 8.03375 482.21 7.375 483.1875 C5.11485947 485.51612964 3.31947473 486.21274977 0.3125 487.3125 C-1.00824115 485.73603449 -2.31881224 484.15104469 -3.625 482.5625 C-4.72134766 481.23992187 -4.72134766 481.23992187 -5.83984375 479.890625 C-7.51693812 477.55049333 -8.49647362 476.16557149 -8.6875 473.3125 C-8.0275 472.590625 -7.3675 471.86875 -6.6875 471.125 C-4.11674479 467.50987548 -4.47918334 465.56169396 -4.9375 461.30078125 C-5.50727031 459.1910714 -5.50727031 459.1910714 -7.375 458.23046875 C-8.5196875 457.77607422 -8.5196875 457.77607422 -9.6875 457.3125 C-11.6675 456.3225 -13.6475 455.3325 -15.6875 454.3125 C-15.6875 471.1425 -15.6875 487.9725 -15.6875 505.3125 C-21.6275 505.3125 -27.5675 505.3125 -33.6875 505.3125 C-33.6875 487.8225 -33.6875 470.3325 -33.6875 452.3125 C-40.6175 450.8275 -40.6175 450.8275 -47.6875 449.3125 C-60.87355091 443.77435862 -71.38929873 435.47188482 -77.0625 422.0625 C-78.74738709 411.95317745 -77.88634296 403.66617249 -73.6875 394.3125 C-67.88407726 395.80055711 -63.51159121 398.90347555 -58.6875 402.3125 C-58.79449219 403.09753906 -58.90148437 403.88257813 -59.01171875 404.69140625 C-59.75868106 411.23736631 -60.1709693 415.62283348 -56.6875 421.3125 C-50.36649109 428.89771069 -43.14649641 431.47480108 -33.6875 434.3125 C-33.6875 418.8025 -33.6875 403.2925 -33.6875 387.3125 C-37.3175 386.9825 -40.9475 386.6525 -44.6875 386.3125 C-58.86209942 382.81070428 -70.34702693 376.63476802 -80.6875 366.3125 C-81.2753125 365.73628906 -81.863125 365.16007812 -82.46875 364.56640625 C-90.54601049 355.97401435 -93.0994964 345.32648247 -92.95703125 333.8515625 C-92.16719588 323.48068072 -88.22306032 313.65672774 -80.6875 306.3125 C-76.6875 306.3125 -76.6875 306.3125 -74.109375 308.5 C-73.22765625 309.428125 -72.3459375 310.35625 -71.4375 311.3125 C-70.54546875 312.240625 -69.6534375 313.16875 -68.734375 314.125 C-67.72117188 315.2078125 -67.72117188 315.2078125 -66.6875 316.3125 C-67.87644826 318.79124482 -69.08136947 320.86637895 -70.6875 323.125 C-74.86193166 329.77800046 -75.31551543 335.78587796 -73.6875 343.3125 C-70.25002035 353.08038771 -61.96020542 359.53972308 -53.125 364.4375 C-46.89008044 367.07197305 -40.2276095 368.5684708 -33.6875 370.3125 C-33.6875 347.5425 -33.6875 324.7725 -33.6875 301.3125 C-37.9775 300.9825 -42.2675 300.6525 -46.6875 300.3125 C-66.77014379 296.32865917 -86.3496503 286.10842336 -98.5625 269.3125 C-106.65297908 256.99593538 -109.87757435 243.61695564 -107.03515625 228.9453125 C-102.95595166 214.34421109 -94.78632591 202.17179554 -81.6875 194.3125 C-78.3875 198.6025 -75.0875 202.8925 -71.6875 207.3125 C-72.533125 208.3025 -73.37875 209.2925 -74.25 210.3125 C-74.79527344 210.95445312 -75.34054688 211.59640625 -75.90234375 212.2578125 C-77.07652647 213.60927883 -78.27681701 214.93857011 -79.50390625 216.2421875 C-86.05565096 223.28920449 -90.08003956 231.25461764 -89.8984375 241.04296875 C-88.91731456 251.59912483 -83.37101287 260.44673948 -75.77734375 267.625 C-63.40135968 277.61831798 -48.95791683 281.04026782 -33.6875 284.3125 C-33.6875 253.9525 -33.6875 223.5925 -33.6875 192.3125 C-36.6575 193.3025 -36.6575 193.3025 -39.6875 194.3125 C-51.88059957 196.64250322 -63.40284336 194.47784778 -73.796875 187.71484375 C-75.6875 186.3125 -75.6875 186.3125 -77.6875 184.3125 C-78.450625 184.621875 -79.21375 184.93125 -80 185.25 C-92.71157296 188.91265662 -104.40111038 187.17186547 -115.98046875 180.96484375 C-120.78174444 178.03419495 -124.56303131 174.99920304 -127.6875 170.3125 C-130.93676796 170.06105688 -130.93676796 170.06105688 -134.6875 170.3125 C-146.40365433 170.60529929 -155.78300602 167.19170258 -164.765625 159.54296875 C-167.97039907 156.45265089 -170.76830255 153.37668284 -172.6875 149.3125 C-172.6875 148.3225 -172.6875 147.3325 -172.6875 146.3125 C-173.904375 146.415625 -175.12125 146.51875 -176.375 146.625 C-187.25044735 146.6078463 -197.05471009 140.8873394 -204.5859375 133.43359375 C-208.80766878 128.88231805 -213.11176759 123.5293509 -213.9765625 117.1953125 C-214.52833419 115.07952333 -214.52833419 115.07952333 -216.875 114.2578125 C-217.803125 113.98710938 -218.73125 113.71640625 -219.6875 113.4375 C-230.32078479 109.87473058 -238.97596238 103.38560394 -244.26171875 93.3125 C-246.17760286 88.92078857 -247.63827109 85.31348792 -247.875 80.5 C-249.25127697 75.10075956 -254.16033351 73.15145372 -258.6875 70.3125 C-267.17483971 64.44379245 -272.36877026 55.25177409 -274.6875 45.3125 C-275.17511131 40.91902262 -275.50074583 36.67173685 -274.6875 32.3125 C-272.8082538 30.02890779 -271.32488863 28.63119432 -268.6875 27.3125 C-266.36775808 27.21127943 -264.04501142 27.17735368 -261.72306824 27.17205811 C-260.9980149 27.16908698 -260.27296156 27.16611586 -259.5259369 27.1630547 C-257.08393013 27.1543476 -254.64197226 27.15285776 -252.19995117 27.15136719 C-250.4540954 27.14674042 -248.70824065 27.14171595 -246.96238708 27.13632202 C-242.21025562 27.12318203 -237.4581383 27.1167499 -232.70599151 27.11231136 C-229.73867269 27.1093831 -226.77135777 27.10527875 -223.80404091 27.10080719 C-214.5247643 27.08712779 -205.24549654 27.07746341 -195.96621054 27.0736053 C-185.24587894 27.06912388 -174.52567479 27.05157397 -163.80538195 27.0226047 C-155.52507457 27.0010039 -147.24480309 26.99090187 -138.96446782 26.98956418 C-134.01622678 26.98851496 -129.06810547 26.98258247 -124.11989403 26.96474457 C-119.4651684 26.94829164 -114.81065288 26.94609484 -110.15590858 26.95488358 C-108.44707808 26.95565545 -106.7382364 26.95129142 -105.0294342 26.94142532 C-102.69699892 26.92874802 -100.3653125 26.93455921 -98.03288269 26.94500732 C-96.72745608 26.94354076 -95.42202948 26.9420742 -94.07704449 26.9405632 C-90.44012864 27.33964421 -88.55807151 28.08022917 -85.6875 30.3125 C-83.72323871 34.58157561 -83.32367363 38.79298838 -82.875 43.4375 C-81.2331883 57.37488583 -74.34810267 70.72484845 -64.1171875 80.3984375 C-55.0535384 87.53861123 -44.9522804 92.05954392 -33.6875 94.3125 C-33.6875 89.0325 -33.6875 83.7525 -33.6875 78.3125 C-34.821875 78.085625 -35.95625 77.85875 -37.125 77.625 C-48.7733868 74.68203302 -57.12847918 67.27647867 -63.17578125 57.15234375 C-68.49507171 47.15977485 -69.2528471 35.96236013 -66.99609375 24.93359375 C-63.46008876 13.34910879 -56.57012163 3.61696682 -45.8046875 -2.26171875 C-30.60039833 -9.33678131 -14.36607181 -8.74138946 0 0 Z M-46.28125 21.21484375 C-50.47736548 27.47404934 -51.72067049 33.83652476 -50.6875 41.3125 C-48.69255082 48.21029037 -44.80948494 54.69448254 -38.6640625 58.59765625 C-32.27664486 61.9100903 -25.7585525 63.60400401 -18.6015625 61.78125 C-10.51042346 58.92920099 -5.23484806 54.54306587 -0.6875 47.3125 C2.12922204 41.42299027 2.22320466 34.97167859 0.66015625 28.69140625 C-2.09222749 20.93039288 -6.55492285 15.68090968 -13.875 11.875 C-26.27628779 7.02415614 -38.18557727 10.999785 -46.28125 21.21484375 Z M-256.6875 44.3125 C-253.53008298 51.21529233 -253.53008298 51.21529233 -248.9375 56.125 C-248.32390625 56.66769531 -247.7103125 57.21039063 -247.078125 57.76953125 C-240.43184395 62.05920611 -234.34025315 62.73706703 -226.640625 62.68359375 C-224.72525848 62.70095903 -222.80989393 62.71854356 -220.89453125 62.73632812 C-217.90344813 62.7464348 -214.91248629 62.74998583 -211.92138672 62.74829102 C-209.01493599 62.75185342 -206.10941121 62.77914559 -203.203125 62.80859375 C-202.30829407 62.80041122 -201.41346313 62.7922287 -200.49151611 62.78379822 C-194.33041578 62.8578667 -194.33041578 62.8578667 -191.12402344 65.12524414 C-189.00697133 68.34867546 -189.14939423 70.54575964 -189.6875 74.3125 C-192.81694883 78.57164221 -196.55859977 79.32620611 -201.515625 80.234375 C-202.26463074 80.38408752 -203.01363647 80.53380005 -203.78533936 80.68804932 C-206.16682116 81.16064296 -208.55178606 81.6118117 -210.9375 82.0625 C-212.55756816 82.38010329 -214.1773641 82.69909852 -215.796875 83.01953125 C-219.75744492 83.80001202 -223.72127459 84.56131135 -227.6875 85.3125 C-224.39852712 91.09722288 -220.13935666 95.39370075 -213.82470703 97.81542969 C-203.59701396 100.19418033 -192.90210315 97.44724137 -182.875 95.25 C-166.04993727 91.56732963 -166.04993727 91.56732963 -159.6875 93.3125 C-157.70805064 96.28167403 -157.39399419 96.96952279 -157.375 100.3125 C-157.35824219 100.993125 -157.34148437 101.67375 -157.32421875 102.375 C-157.81648304 105.00040955 -158.61190553 105.61208665 -160.6875 107.3125 C-162.96686808 108.37476645 -165.20234853 109.32815869 -167.54296875 110.23046875 C-168.20460526 110.49257645 -168.86624176 110.75468414 -169.54792786 111.0247345 C-171.65414199 111.85717435 -173.76442097 112.67869849 -175.875 113.5 C-177.30692254 114.06373756 -178.73856671 114.62818277 -180.16992188 115.19335938 C-183.67260835 116.57462722 -187.1789792 117.94612343 -190.6875 119.3125 C-190.6875 120.3025 -190.6875 121.2925 -190.6875 122.3125 C-185.77577704 127.07538287 -180.49784152 129.43998173 -173.75 129.875 C-165.01815337 129.60212979 -157.07589183 125.57792102 -149.14404297 122.24316406 C-147.37269771 121.50039454 -145.59931495 120.76246621 -143.82397461 120.02929688 C-142.10664484 119.31812929 -140.3948115 118.59349287 -138.68969727 117.85351562 C-133.410859 115.65743329 -129.40971855 114.8440883 -123.6875 115.3125 C-121.6875 116.3125 -121.6875 116.3125 -120.6875 118.3125 C-119.98216357 123.77885731 -119.98216357 123.77885731 -120.6875 126.3125 C-124.31622661 130.65450684 -128.6486829 133.37693499 -133.4375 136.25 C-134.86000418 137.12006591 -136.28188283 137.99115538 -137.703125 138.86328125 C-138.72696289 139.48904053 -138.72696289 139.48904053 -139.77148438 140.12744141 C-143.47802251 142.41994091 -147.08968677 144.85399429 -150.6875 147.3125 C-146.40417208 152.25480144 -142.04992627 153.39851874 -135.6875 153.875 C-120.92291078 153.44074738 -106.58178508 140.57982147 -94.80371094 132.69189453 C-90.91538663 130.15739611 -88.36928652 129.90889771 -83.6875 130.3125 C-81.25 131.875 -81.25 131.875 -79.6875 134.3125 C-78.959649 138.679606 -79.21912703 140.60994055 -81.6875 144.3125 C-84.35610969 147.15207911 -87.31946689 149.64627895 -90.28515625 152.16796875 C-95.30537545 156.64943272 -99.9661393 161.52031889 -104.6875 166.3125 C-101.33996016 169.66003984 -98.03768893 169.52392604 -93.5 169.625 C-82.12045972 169.47394416 -76.68314689 163.88551984 -68.6875 156.3125 C-67.06512245 154.80464911 -65.43783744 153.30234578 -63.80761719 151.80297852 C-62.74292224 150.82347842 -61.68098053 149.84097556 -60.62207031 148.85522461 C-56.88210526 145.3974388 -55.13133086 144.17758813 -50.0625 144.25 C-49.24523437 144.25902344 -48.42796875 144.26804687 -47.5859375 144.27734375 C-46.95945313 144.28894531 -46.33296875 144.30054688 -45.6875 144.3125 C-43.52579086 148.50875893 -43.32632254 151.8542644 -44.6875 156.3125 C-46.47722957 159.78120587 -48.58928804 163.0027586 -50.75 166.25 C-51.31783203 167.12462891 -51.88566406 167.99925781 -52.47070312 168.90039062 C-53.86542963 171.04522214 -55.27107134 173.18196452 -56.6875 175.3125 C-54.1347893 177.8652107 -53.10419481 177.61020183 -49.5625 177.625 C-43.60185204 177.52317553 -38.06964109 176.69464109 -33.6875 172.3125 C-33.39426038 169.68212499 -33.39426038 169.68212499 -33.46044922 166.57763672 C-33.46060028 165.37654266 -33.46075134 164.17544861 -33.46090698 162.93795776 C-33.47122955 161.63585358 -33.48155212 160.33374939 -33.4921875 158.9921875 C-33.49591724 157.64983327 -33.49876439 156.30747633 -33.50076294 154.96511841 C-33.50840256 151.430486 -33.5280537 147.89601772 -33.5501709 144.3614502 C-33.57062235 140.7553123 -33.57976315 137.14914791 -33.58984375 133.54296875 C-33.6112994 126.46607865 -33.64543921 119.38930003 -33.6875 112.3125 C-34.9655249 111.99579346 -36.2435498 111.67908691 -37.56030273 111.3527832 C-39.26817613 110.91921452 -40.97593371 110.48518947 -42.68359375 110.05078125 C-43.52224976 109.84424927 -44.36090576 109.63771729 -45.22497559 109.42492676 C-64.82613913 104.39521215 -80.61499892 91.4097455 -91.08984375 74.25390625 C-96.29344144 64.6736885 -98.38650964 55.050455 -100.6875 44.3125 C-152.1675 44.3125 -203.6475 44.3125 -256.6875 44.3125 Z M51.3125 44.3125 C49.9925 49.9225 48.6725 55.5325 47.3125 61.3125 C39.40920324 81.39114583 26.36963228 96.04819296 7 105.625 C2.03602015 107.77493232 -2.86453259 109.23330927 -8.10546875 110.48046875 C-8.83842163 110.65912476 -9.57137451 110.83778076 -10.32653809 111.02185059 C-12.11245273 111.45649838 -13.89982917 111.88513265 -15.6875 112.3125 C-15.82657897 120.06623169 -15.93315926 127.8196708 -15.99837303 135.57433701 C-16.02967485 139.17533195 -16.07212176 142.77547308 -16.14013672 146.37597656 C-16.20537776 149.85142639 -16.2412147 153.32605567 -16.25676346 156.80207062 C-16.2732305 158.77211095 -16.32006345 160.74182146 -16.36727905 162.71136475 C-16.63926032 168.71267433 -16.63926032 168.71267433 -14.38296509 174.00932312 C-9.92162233 177.07065068 -5.31185061 177.46462702 -0.0625 177.5 C0.89914062 177.51417969 1.86078125 177.52835938 2.8515625 177.54296875 C5.49055749 177.55983824 5.49055749 177.55983824 7.3125 175.3125 C6.77508179 174.50413696 6.77508179 174.50413696 6.22680664 173.67944336 C4.59647083 171.21131447 2.98571371 168.73097446 1.375 166.25 C0.81103516 165.40244141 0.24707031 164.55488281 -0.33398438 163.68164062 C-3.47005012 158.81792189 -5.56824811 155.15584248 -5.6875 149.3125 C-4.75 146.375 -4.75 146.375 -3.6875 144.3125 C1.0607344 143.61194083 3.85018845 143.41603944 8.0078125 145.96484375 C13.72923694 150.60229461 18.81405272 155.81677011 23.95703125 161.07421875 C30.18360207 166.99100993 35.70259562 169.44610716 44.25 169.5 C45.77947266 169.52126953 45.77947266 169.52126953 47.33984375 169.54296875 C50.38409667 169.30694914 52.55987643 168.59502995 55.3125 167.3125 C49.93580071 160.70684087 43.89424411 154.8056751 37.84326172 148.82714844 C35.65749249 146.66438731 33.48482765 144.48875591 31.3125 142.3125 C30.9825 141.9825 30.6525 141.6525 30.3125 141.3125 C29.952112 137.49238724 29.77201337 135.15565915 31.875 131.875 C35.3053879 129.6760334 37.26149895 129.88865281 41.3125 130.3125 C44.36835486 131.6557531 47.08936122 133.4204274 49.875 135.25 C50.65786377 135.74564453 51.44072754 136.24128906 52.24731445 136.75195312 C54.61373693 138.2552991 56.9650239 139.77977158 59.3125 141.3125 C61.28367023 142.59565512 63.25488122 143.87870868 65.22827148 145.15844727 C66.89155046 146.24185911 68.54572652 147.33920968 70.19921875 148.4375 C77.29905505 152.71343654 83.10887261 154.39945203 91.3125 153.3125 C94.48374093 152.25541969 97.3897069 150.92905717 100.3125 149.3125 C100.3125 148.3225 100.3125 147.3325 100.3125 146.3125 C97.92531968 144.60693842 95.58431627 143.10611628 93.0625 141.625 C91.59682423 140.73704899 90.13198879 139.84770952 88.66796875 138.95703125 C87.93497559 138.51439941 87.20198242 138.07176758 86.44677734 137.61572266 C83.37959525 135.74285397 80.37477366 133.79184402 77.375 131.8125 C76.41722656 131.1834375 75.45945312 130.554375 74.47265625 129.90625 C72.3125 128.3125 72.3125 128.3125 71.3125 126.3125 C70.86179577 119.21390845 70.86179577 119.21390845 72.3125 116.3125 C76.03135943 114.45307028 80.398938 114.79633066 84.34170532 115.85986328 C86.4534865 116.63535385 88.51559633 117.48579447 90.58203125 118.375 C92.14639389 119.01324266 93.71084997 119.65125635 95.27539062 120.2890625 C97.69995251 121.29699066 100.12172459 122.31111928 102.54125977 123.33105469 C117.04462492 129.60573772 117.04462492 129.60573772 132.46875 128.359375 C133.2421875 127.93140625 134.015625 127.5034375 134.8125 127.0625 C135.6065625 126.64484375 136.400625 126.2271875 137.21875 125.796875 C139.46162062 124.20678016 140.79487547 122.58893679 142.3125 120.3125 C134.89426052 116.4123717 127.20617978 113.50420142 119.36132812 110.58007812 C118.36939453 110.20173828 117.37746094 109.82339844 116.35546875 109.43359375 C115.45852295 109.0977124 114.56157715 108.76183105 113.63745117 108.41577148 C111.29760896 107.30543367 109.93577925 106.31353793 108.3125 104.3125 C107.94921875 102.375 107.94921875 102.375 108 100.3125 C108.00386719 99.631875 108.00773437 98.95125 108.01171875 98.25 C108.3125 96.3125 108.3125 96.3125 110.3125 93.3125 C118.71624256 91.0074144 127.23232512 93.87656299 135.52661133 95.6940918 C153.2149254 99.65652747 153.2149254 99.65652747 170.14453125 94.81640625 C173.34903799 92.59346013 175.79223601 90.29702314 178.3125 87.3125 C178.3125 86.6525 178.3125 85.9925 178.3125 85.3125 C176.79897949 85.02584473 176.79897949 85.02584473 175.25488281 84.73339844 C171.50208199 84.0183798 167.75350948 83.28300541 164.00585938 82.54150391 C162.38519204 82.22378315 160.76343898 81.91154835 159.140625 81.60498047 C156.80419778 81.16260546 154.47242327 80.70045875 152.140625 80.234375 C151.41756165 80.10190369 150.69449829 79.96943237 149.94952393 79.83294678 C145.60546844 78.9401142 142.97153097 77.93140915 140.3125 74.3125 C139.77393083 70.54251579 139.63149984 68.34726947 141.75341797 65.12304688 C145.61334496 62.39215405 149.13945572 62.78491543 153.7578125 62.84375 C154.68286591 62.83670044 155.60791931 62.82965088 156.56100464 62.8223877 C160.5095667 62.79296826 164.45763369 62.80943792 168.40625 62.82177734 C171.2945634 62.82417787 174.18209648 62.80312451 177.0703125 62.78125 C178.38492966 62.79822937 178.38492966 62.79822937 179.72610474 62.81555176 C187.24500254 62.75513388 194.08205303 60.96811744 199.96875 56.12890625 C200.5771875 55.38511719 201.185625 54.64132813 201.8125 53.875 C202.75609375 52.76318359 202.75609375 52.76318359 203.71875 51.62890625 C205.64719856 49.00818465 205.64719856 49.00818465 207.3125 44.3125 C155.8325 44.3125 104.3525 44.3125 51.3125 44.3125 Z " fill="#000000" transform="translate(280.6875,6.6875)"/>
<path d="M0 0 C12.45238019 8.82986959 22.13913031 19.84901129 25.6015625 35.16015625 C27.61031428 49.47743612 25.27852221 63.02362682 17 75 C12.36758032 80.76870717 7.18822458 86.91797828 1 91 C-1.078125 91.0859375 -1.078125 91.0859375 -3 90 C-4.921875 87.6015625 -4.921875 87.6015625 -6.75 84.625 C-7.36359375 83.64789063 -7.9771875 82.67078125 -8.609375 81.6640625 C-10 79 -10 79 -10 76 C-8.4609375 74.45703125 -8.4609375 74.45703125 -6.375 72.8125 C1.02863555 66.58820462 6.79918705 58.84666615 8 49 C8.81303349 39.56881151 5.64550989 31.25616994 -0.2734375 23.92578125 C-3.37179831 20.46991727 -6.64306911 17.20356856 -10 14 C-6.84577733 9.17403931 -3.71080883 4.42442592 0 0 Z " fill="#000000" transform="translate(313,201)"/>
<path d="M0 0 C5.61 0 11.22 0 17 0 C18.66666667 3.33333333 20.33333333 6.66666667 22 10 C20.76640153 11.84440937 19.51255281 13.67528865 18.25 15.5 C17.55390625 16.5209375 16.8578125 17.541875 16.140625 18.59375 C15.43421875 19.3878125 14.7278125 20.181875 14 21 C10 21 10 21 7.4375 18.75 C1.94159255 12.54948903 0 8.55284129 0 0 Z " fill="#000000" transform="translate(218,472)"/>
</svg>
