<?xml version="1.0" encoding="UTF-8"?>
<svg version="1.1" xmlns="http://www.w3.org/2000/svg" width="512" height="512">
<path d="M0 0 C5.29358596 4.34923102 8.6146209 8.73085944 10.57421875 15.3359375 C10.57421875 15.9959375 10.57421875 16.6559375 10.57421875 17.3359375 C11.38052734 17.32022705 12.18683594 17.3045166 13.01757812 17.28833008 C16.70305245 17.22561774 20.3884141 17.1868313 24.07421875 17.1484375 C25.34265625 17.12330078 26.61109375 17.09816406 27.91796875 17.07226562 C38.25471139 16.99150982 45.18082938 18.1939281 52.875 25.46484375 C57.14893339 30.17108304 57.70322656 34.44303002 57.63671875 40.57421875 C57.62769531 41.65356689 57.61867188 42.73291504 57.609375 43.8449707 C57.59197266 45.07799927 57.59197266 45.07799927 57.57421875 46.3359375 C58.42089111 46.32705505 59.26756348 46.31817261 60.13989258 46.309021 C68.14292672 46.22866871 76.14582417 46.1678686 84.14916992 46.12868881 C88.26319677 46.1078684 92.37688858 46.07965339 96.49072266 46.03417969 C100.46539576 45.99052227 104.43974785 45.96675873 108.41464233 45.95642853 C109.92643279 45.94907263 111.43820689 45.9347085 112.94985962 45.91301727 C127.71131663 45.7097421 127.71131663 45.7097421 134.57421875 50.3359375 C136.6328125 52.5546875 136.6328125 52.5546875 138.01171875 54.8359375 C138.48480469 55.58875 138.95789063 56.3415625 139.4453125 57.1171875 C141.46004428 61.07693716 141.70014208 64.56078676 141.70564651 68.97513199 C141.70948766 70.13116653 141.7133288 71.28720107 141.71728635 72.47826695 C141.71641987 73.74906252 141.71555338 75.01985808 141.71466064 76.3291626 C141.71724455 77.69222305 141.72025778 79.05528275 141.72366405 80.4183414 C141.73173433 84.16778383 141.73352363 87.91720712 141.73426151 91.66665721 C141.73611201 95.70904603 141.74365933 99.75142491 141.75039673 103.79380798 C141.76398071 112.63473404 141.77000485 121.47565556 141.77440739 130.31659031 C141.77716966 135.83645537 141.78140698 141.35631868 141.78591156 146.87618256 C141.79810424 162.15781672 141.8084036 177.43944948 141.81178665 192.72108841 C141.81200622 193.69921475 141.81222578 194.6773411 141.812452 195.68510763 C141.81267028 196.66557934 141.81288856 197.64605105 141.81311345 198.65623403 C141.81355692 200.64305576 141.81400348 202.62987749 141.81445312 204.61669922 C141.81467455 205.60223222 141.81489598 206.58776522 141.81512412 207.60316285 C141.81907232 223.57307873 141.83652699 239.54294897 141.85981265 255.51284721 C141.88352439 271.90723421 141.89598842 288.3015983 141.89715457 304.69600272 C141.89807142 313.90152963 141.90382633 323.10699709 141.92197418 332.31250763 C141.93737275 340.151087 141.94249707 347.98958855 141.93423608 355.82818016 C141.93032873 359.82713389 141.93126326 363.82593089 141.94529343 367.82486534 C141.95802723 371.48781977 141.95683956 375.15049962 141.94470271 378.81345364 C141.94181934 380.76185819 141.95368546 382.71026745 141.96612477 384.65863442 C141.92874396 391.2753956 141.39010371 396.31884743 138.57421875 402.3359375 C139.75994476 402.34180374 140.94567078 402.34766998 142.16732788 402.35371399 C153.32167775 402.41083586 164.47583067 402.48354177 175.62998009 402.57165241 C181.36495952 402.61645022 187.09986636 402.6556854 192.83496094 402.68237305 C198.36584828 402.70831236 203.89645765 402.74864763 209.42717361 402.79912376 C211.54112933 402.81585613 213.65513319 402.82733056 215.76914597 402.83355141 C218.72188465 402.84312348 221.67390188 402.87109914 224.62646484 402.90356445 C225.94815926 402.90141182 225.94815926 402.90141182 227.29655457 402.8992157 C229.72714233 402.93721008 229.72714233 402.93721008 233.57421875 403.3359375 C235.57421875 406.3359375 235.57421875 406.3359375 235.32421875 408.8984375 C234.57421875 411.3359375 234.57421875 411.3359375 232.57421875 413.3359375 C229.74522597 413.58663583 229.74522597 413.58663583 226.04270267 413.58761978 C225.36087918 413.59052666 224.67905569 413.59343354 223.97657087 413.59642851 C221.66911255 413.6037851 219.36191545 413.59675909 217.05445862 413.58990479 C215.39257465 413.59220699 213.73069169 413.59538189 212.06881088 413.59935927 C207.48425975 413.60774903 202.89979131 413.60356314 198.31523979 413.59738684 C193.37787861 413.59288031 188.44053213 413.59983715 183.50317383 413.60534668 C173.82356979 413.61426185 164.14399669 413.61230919 154.46439142 413.6065214 C146.60023538 413.60201298 138.73608804 413.60138844 130.87193108 413.60356903 C129.19593093 413.60402873 129.19593093 413.60402873 127.48607219 413.60449772 C125.21654145 413.60513714 122.94701071 413.60578556 120.67747997 413.6064429 C99.37217862 413.61215248 78.06689444 413.6055786 56.7615959 413.59484217 C38.46467186 413.58590731 20.16777319 413.58745694 1.87084961 413.59667969 C-19.35429635 413.60737335 -40.57942723 413.61160181 -61.8045755 413.60545516 C-64.06627627 413.60481803 -66.32797704 413.60418929 -68.58967781 413.60356903 C-69.70260214 413.60326048 -70.81552646 413.60295193 -71.96217577 413.60263403 C-79.82004241 413.60090428 -87.67789953 413.60382823 -95.53576469 413.60852814 C-105.10743179 413.614127 -114.67906606 413.61264159 -124.25072937 413.60196665 C-129.1381014 413.59669631 -134.02541863 413.59467625 -138.9127903 413.60126495 C-143.38167729 413.60719854 -147.8504584 413.60399244 -152.31933571 413.59330985 C-153.94112101 413.59106475 -155.56291514 413.59223676 -157.18469482 413.59706143 C-159.37940066 413.60309263 -161.57373786 413.59695669 -163.76842403 413.58761978 C-164.99041907 413.58729508 -166.21241411 413.58697037 -167.4714393 413.58663583 C-170.42578125 413.3359375 -170.42578125 413.3359375 -173.42578125 411.3359375 C-173.61328125 407.7109375 -173.61328125 407.7109375 -173.42578125 404.3359375 C-172.43578125 404.0059375 -171.44578125 403.6759375 -170.42578125 403.3359375 C-171.15660162 402.03608547 -171.15660162 402.03608547 -171.90218604 400.70997381 C-173.47623384 397.22420909 -173.80149539 395.13367714 -173.80330467 391.35135651 C-173.81112791 390.1692061 -173.81895116 388.98705569 -173.82701147 387.76908255 C-173.8203193 386.47940274 -173.81362714 385.18972293 -173.80673218 383.86096191 C-173.81019012 382.46999828 -173.8149556 381.07903739 -173.82091391 379.68808222 C-173.83343497 375.87081689 -173.82724856 372.05377664 -173.81795526 368.23651052 C-173.81116962 364.11783783 -173.82164358 359.99920393 -173.82989502 355.88053894 C-173.84323973 347.81404878 -173.84035133 339.74764233 -173.8316571 331.68114889 C-173.82488387 325.12574856 -173.82396227 318.5703717 -173.82722855 312.01496887 C-173.82768825 311.08221741 -173.82814794 310.14946595 -173.82862157 309.18844929 C-173.82958074 307.29362388 -173.83055338 305.39879847 -173.83153935 303.50397307 C-173.8400954 285.73328274 -173.83025572 267.96263882 -173.81413825 250.1919561 C-173.80073487 234.94158681 -173.8030629 219.69128602 -173.81689453 204.44091797 C-173.83294653 186.73411795 -173.83927141 169.02735862 -173.83005774 151.32055235 C-173.82910209 149.43267028 -173.82815897 147.54478821 -173.82722855 145.65690613 C-173.82676572 144.72801517 -173.82630289 143.79912421 -173.82582604 142.84208503 C-173.82323501 136.29403085 -173.82760958 129.74600246 -173.83466721 123.19795227 C-173.84307818 115.21881759 -173.84081055 107.23977146 -173.82482497 99.26064694 C-173.81693683 95.1890266 -173.81385989 91.11755394 -173.82377243 87.04593468 C-173.83270863 83.3190049 -173.82780439 79.59235975 -173.81183977 75.86545581 C-173.80689871 73.87790106 -173.81669813 71.89032658 -173.82701147 69.90279245 C-173.81918822 68.72064205 -173.81136498 67.53849164 -173.80330467 66.32051849 C-173.80281762 65.30232324 -173.80233056 64.28412799 -173.80182874 63.23507833 C-173.14765729 58.19173885 -170.9562407 54.30219822 -167.05078125 51.0859375 C-166.48617187 50.60640625 -165.9215625 50.126875 -165.33984375 49.6328125 C-160.85822284 46.59628568 -156.97208336 46.08901245 -151.6159668 46.10888672 C-150.95199387 46.10859467 -150.28802094 46.10830261 -149.60392761 46.10800171 C-147.42331582 46.1093879 -145.24305163 46.12491511 -143.0625 46.140625 C-141.54507128 46.14435767 -140.02764013 46.14720344 -138.51020813 46.14920044 C-134.52681766 46.15681695 -130.54357427 46.17644827 -126.5602417 46.1986084 C-122.49135325 46.21910964 -118.4224409 46.22821129 -114.35351562 46.23828125 C-106.37753685 46.25969616 -98.40167738 46.29380801 -90.42578125 46.3359375 C-90.45297241 45.22859253 -90.45297241 45.22859253 -90.48071289 44.09887695 C-90.49481201 43.12136475 -90.50891113 42.14385254 -90.5234375 41.13671875 C-90.54156494 40.17161377 -90.55969238 39.20650879 -90.57836914 38.2121582 C-90.24984345 32.01958031 -87.6792533 27.15524671 -83.17578125 22.9609375 C-75.31014883 16.30240709 -66.15210746 16.96267515 -56.42578125 17.1484375 C-55.06511899 17.16351274 -53.70444056 17.17719612 -52.34375 17.18945312 C-49.03734282 17.22462767 -45.73177441 17.27385462 -42.42578125 17.3359375 C-42.28261475 16.39427734 -42.13944824 15.45261719 -41.99194336 14.48242188 C-40.93233255 8.59356286 -37.70556622 4.08401544 -32.98046875 0.4609375 C-22.60031668 -5.98405244 -10.43287026 -7.1568482 0 0 Z M-28.23828125 10.5859375 C-31.4444569 14.61655832 -32.95350198 18.83575629 -34.48828125 23.7109375 C-35.42578125 26.3359375 -35.42578125 26.3359375 -37.42578125 27.3359375 C-39.97994934 27.43213828 -42.51188839 27.47299932 -45.06640625 27.4765625 C-46.62761868 27.4948966 -48.18881699 27.51446746 -49.75 27.53515625 C-52.21003943 27.56407482 -54.66917432 27.58593619 -57.12939453 27.58642578 C-59.50504695 27.58977379 -61.87861727 27.62440439 -64.25390625 27.6640625 C-64.9822467 27.6569928 -65.71058716 27.6499231 -66.46099854 27.64263916 C-70.24415299 27.73214684 -72.8472825 28.27519561 -75.81152344 30.56542969 C-81.13382576 36.20583749 -80.71071705 41.4438913 -80.65625 48.8515625 C-80.65579178 49.86313416 -80.65533356 50.87470581 -80.65486145 51.91693115 C-80.65184684 54.0484739 -80.64398429 56.18001459 -80.6315918 58.31152344 C-80.61326989 61.58796917 -80.61108266 64.86413325 -80.61132812 68.140625 C-80.60641519 70.21093996 -80.60058786 72.281253 -80.59375 74.3515625 C-80.59263718 75.33690979 -80.59152435 76.32225708 -80.59037781 77.33746338 C-80.58399796 78.24220398 -80.5776181 79.14694458 -80.57104492 80.07910156 C-80.56723312 80.87898499 -80.56342133 81.67886841 -80.55949402 82.50299072 C-80.62522129 84.35442623 -80.62522129 84.35442623 -79.42578125 85.3359375 C-77.78087576 85.43202413 -76.13182434 85.45781537 -74.4841156 85.45619202 C-73.41414337 85.45756668 -72.34417114 85.45894135 -71.24177551 85.46035767 C-70.057827 85.45676239 -68.87387848 85.45316711 -67.65405273 85.44946289 C-66.41520325 85.44960892 -65.17635376 85.44975494 -63.89996338 85.4499054 C-60.49308292 85.44932642 -57.08626241 85.44429709 -53.67939258 85.43733144 C-50.12261299 85.43109743 -46.56583267 85.43049406 -43.00904846 85.42930603 C-36.26941543 85.42619285 -29.52979854 85.41797965 -22.79017264 85.40795654 C-15.11919727 85.39679498 -7.44822114 85.39128485 0.22276032 85.38626111 C16.00658916 85.37579702 31.79040188 85.35819785 47.57421875 85.3359375 C47.65033886 78.59162635 47.70284807 71.84742616 47.73901367 65.1027832 C47.75409183 62.80879578 47.77455745 60.51483713 47.80053711 58.22094727 C47.83696233 54.92196545 47.85395506 51.6233651 47.8671875 48.32421875 C47.88267136 47.30008377 47.89815521 46.27594879 47.91410828 45.22077942 C47.91568845 38.52178768 47.12725182 34.97931084 42.37329102 30.05712891 C38.82182346 27.87327838 35.83576445 27.76792851 31.7890625 27.796875 C31.0509584 27.78508209 30.31285431 27.77328918 29.55238342 27.76113892 C27.20527862 27.72598037 24.85906497 27.71671973 22.51171875 27.7109375 C20.16106983 27.69456841 17.81081579 27.67248522 15.46034241 27.63931274 C14.00132923 27.61975864 12.54213531 27.61033966 11.08299255 27.61239624 C7.45660658 27.57440577 4.58317416 27.48895786 1.57421875 25.3359375 C0.95703125 23.19921875 0.95703125 23.19921875 0.69921875 20.6484375 C-0.22329719 15.19218937 -1.97083314 11.71231923 -6.42578125 8.3359375 C-14.55558301 4.51014844 -21.05980928 4.84315993 -28.23828125 10.5859375 Z M-162.04428053 61.0911833 C-163.78038574 63.91212244 -163.80370802 65.67939178 -163.8088913 68.98071861 C-163.81794794 70.13798655 -163.82700458 71.29525449 -163.83633566 72.48759115 C-163.83100773 73.75975095 -163.82567981 75.03191075 -163.82019043 76.34262085 C-163.82507826 77.70711095 -163.83126756 79.07159691 -163.83864832 80.43607581 C-163.85508499 84.18943766 -163.8527224 87.94258999 -163.84727335 91.6959753 C-163.84460771 95.74243704 -163.85912619 99.78884234 -163.87136841 103.83528137 C-163.8924446 111.76433849 -163.896962 119.69332251 -163.89518052 127.62240432 C-163.89387396 134.06629846 -163.89767163 140.51016976 -163.90510559 146.9540596 C-163.90720474 148.80876561 -163.90930234 150.66347162 -163.91139841 152.51817763 C-163.91244194 153.44126057 -163.91348547 154.3643435 -163.91456062 155.31539865 C-163.93347192 172.78181639 -163.9324101 190.24819215 -163.92559129 207.7146159 C-163.92001554 223.69886077 -163.94084101 239.68294539 -163.97395176 255.66715281 C-164.00767228 272.07284227 -164.02285911 288.47845493 -164.01823473 304.88417971 C-164.01598833 314.09750162 -164.02125803 323.3106754 -164.04612732 332.52396774 C-164.06711935 340.36777946 -164.07075342 348.21136185 -164.05182773 356.05518292 C-164.04265669 360.05803434 -164.04156814 364.06045795 -164.06218338 368.06327629 C-164.08084643 371.7275379 -164.07644357 375.39101994 -164.05363756 379.05525143 C-164.04745073 381.00911845 -164.06588153 382.96301548 -164.08517408 384.91679704 C-164.144863 391.97829331 -164.144863 391.97829331 -161.07444 398.10222816 C-157.57377493 401.05446512 -155.15810355 401.46079774 -150.73176861 401.46736526 C-149.76111169 401.47120641 -148.79045476 401.47504755 -147.79038399 401.4790051 C-146.72153161 401.47813862 -145.65267923 401.47727213 -144.55143738 401.47637939 C-143.41787994 401.47935052 -142.28432251 401.48232164 -141.11641484 401.4853828 C-137.29789875 401.49409115 -133.47941393 401.49557985 -129.66088867 401.49707031 C-126.93129795 401.50115804 -124.20171055 401.50670062 -121.47212219 401.51211548 C-114.0423835 401.52570233 -106.6126502 401.53172403 -99.18290114 401.53612614 C-94.54466052 401.5388879 -89.90642197 401.54312512 -85.26818275 401.54763031 C-72.42884419 401.55982331 -59.5895073 401.57012265 -46.75016308 401.5735054 C-45.92828189 401.57372497 -45.10640069 401.57394453 -44.25961401 401.57417075 C-43.43575552 401.57438903 -42.61189704 401.57460731 -41.76307315 401.5748322 C-40.09359499 401.57527567 -38.42411683 401.57572223 -36.75463867 401.57617188 C-35.51245786 401.57650402 -35.51245786 401.57650402 -34.24518249 401.57684287 C-20.8248926 401.58079138 -7.40465699 401.59824688 6.01561192 401.6215314 C19.7905892 401.64523865 33.56553924 401.65770696 47.34053725 401.65887332 C55.07607745 401.65979042 62.81154691 401.66555154 70.54706764 401.68369293 C77.13372178 401.69908546 83.72028333 401.70421942 90.30695204 401.69595483 C93.66774538 401.69204527 97.02820045 401.69462102 100.38899612 401.70701218 C104.03246714 401.71965965 107.67545674 401.71389365 111.31892395 401.70343018 C112.38108417 401.71148658 113.44324439 401.71954298 114.53759128 401.72784352 C119.93836726 401.69147051 123.96966309 401.5010374 128.57421875 398.3359375 C130.84020552 394.93695735 130.82656233 393.76714292 130.83428097 389.78017616 C130.84134656 388.61731578 130.84841215 387.45445541 130.85569185 386.25635684 C130.85327677 384.97282018 130.85086168 383.68928352 130.84837341 382.36685181 C130.85282381 380.99426461 130.85813719 379.62167997 130.86424214 378.24909914 C130.87845636 374.46878646 130.88008479 370.68855587 130.87964523 366.90822029 C130.88129042 362.83450231 130.89435126 358.76081844 130.90583801 354.68711853 C130.92870958 345.77608813 130.93661081 336.86508151 130.94166446 327.95402575 C130.9449187 322.39247691 130.95143949 316.83093502 130.95866585 311.26939011 C130.97823389 295.87798853 130.99463713 280.48659342 130.99754238 265.0951786 C130.99782374 263.61715154 130.99782374 263.61715154 130.99811077 262.10926535 C130.99847703 260.11162941 130.99884073 258.11399346 130.99920189 256.11635752 C130.9993847 255.12469782 130.99956751 254.13303812 130.99975586 253.11132812 C130.99993641 252.11846146 131.00011696 251.1255948 131.00030298 250.10264127 C131.00384607 234.00773219 131.03087594 217.91295679 131.06825375 201.81809409 C131.1063017 185.30283655 131.1256996 168.7876454 131.12600189 152.27234304 C131.12658723 142.99587332 131.135128 133.71956308 131.16399956 124.44313431 C131.18846645 116.54548097 131.19582816 108.64804528 131.18075203 100.75036432 C131.17356399 96.71928434 131.17452131 92.68863454 131.19716263 88.65760231 C131.21768424 84.96869351 131.21521739 81.28054746 131.19428778 77.59164755 C131.18911525 75.62207293 131.20862463 73.65248152 131.22894949 71.68300498 C131.41015105 64.79778045 131.41015105 64.79778045 128.16079807 59.07199669 C124.1641944 56.38955797 122.10985193 56.21324618 117.28857422 56.22241211 C116.32253265 56.22219307 116.32253265 56.22219307 115.3369751 56.2219696 C113.20508473 56.2226671 111.07328138 56.23045184 108.94140625 56.23828125 C107.46452889 56.24014601 105.98765091 56.24156964 104.51077271 56.24256897 C100.62109676 56.24638958 96.73145808 56.25621598 92.84179688 56.26727295 C88.87370304 56.27749686 84.9056032 56.28206869 80.9375 56.28710938 C73.14972062 56.29783865 65.36197965 56.31543177 57.57421875 56.3359375 C57.57421875 61.6159375 57.57421875 66.8959375 57.57421875 72.3359375 C75.72421875 72.6659375 93.87421875 72.9959375 112.57421875 73.3359375 C113.82935725 75.8462145 113.69956807 77.54498882 113.70005989 80.35536194 C113.70397151 81.95836356 113.70397151 81.95836356 113.70796216 83.59374905 C113.70461607 85.36890943 113.70461607 85.36890943 113.70120239 87.17993164 C113.70276238 88.42979638 113.70432237 89.67966112 113.70592964 90.96740055 C113.71012188 94.44791125 113.70803274 97.92839468 113.70494342 101.40890551 C113.70268912 105.15809347 113.70616908 108.90727661 113.70892334 112.65646362 C113.7133797 120.00557963 113.71240516 127.35468545 113.7095107 134.70380187 C113.70725614 140.67437178 113.70694437 146.64493882 113.70803452 152.61550903 C113.70818775 153.46392115 113.70834098 154.31233326 113.70849886 155.18645483 C113.70881857 156.9097623 113.70914278 158.63306977 113.70947145 160.35637724 C113.71232585 176.53170579 113.70903984 192.70702867 113.70367108 208.88235629 C113.69920308 222.77411276 113.69997902 236.66586087 113.70458984 250.55761719 C113.70993631 266.67341849 113.71205116 282.78921483 113.70897758 298.9050169 C113.70865902 300.62213325 113.70834465 302.33924961 113.70803452 304.05636597 C113.70788024 304.90131231 113.70772596 305.74625865 113.70756701 306.61680943 C113.70670208 312.58309267 113.70816424 318.54937277 113.71051407 324.51565552 C113.71331307 331.78241345 113.71257168 339.04916057 113.70723332 346.31591725 C113.70459767 350.02647322 113.70358897 353.73701114 113.70688248 357.44756699 C113.71039225 361.46237496 113.70621338 365.477137 113.70120239 369.49194336 C113.70343311 370.67538362 113.70566384 371.85882387 113.70796216 373.07812595 C113.70535441 374.1467937 113.70274666 375.21546144 113.70005989 376.31651306 C113.69989754 377.24422484 113.69973519 378.17193663 113.69956791 379.12776089 C113.57421875 381.3359375 113.57421875 381.3359375 112.57421875 383.3359375 C79.3413844 383.35880296 46.108552 383.37643526 12.87571153 383.38700283 C8.95644765 383.38825361 5.03718378 383.38954792 1.11791992 383.39086914 C0.33763178 383.39113145 -0.44265637 383.39139376 -1.24658961 383.39166402 C-13.89767546 383.39602089 -26.54875678 383.40390854 -39.19983994 383.4130903 C-52.17125683 383.42242636 -65.14267134 383.42799301 -78.11409146 383.43002599 C-86.12465816 383.43140132 -94.13521208 383.43575243 -102.14577485 383.44385397 C-108.27781797 383.4497415 -114.40985126 383.45039658 -120.54189682 383.44904518 C-123.06512977 383.44932172 -125.58836317 383.45132953 -128.11159325 383.45514297 C-131.54006624 383.4600731 -134.96848327 383.45893832 -138.3969574 383.45619202 C-139.40958206 383.45910486 -140.42220672 383.4620177 -141.46551698 383.46501881 C-142.37667428 383.46302776 -143.28783157 383.46103671 -144.22659969 383.45898533 C-145.01907602 383.45936505 -145.81155235 383.45974477 -146.62804312 383.460136 C-148.42578125 383.3359375 -148.42578125 383.3359375 -149.42578125 382.3359375 C-149.52383284 380.69486065 -149.55133684 379.04953626 -149.55162239 377.40553284 C-149.55423014 376.33127265 -149.55683789 375.25701246 -149.55952466 374.15019894 C-149.55617857 372.35797327 -149.55617857 372.35797327 -149.55276489 370.52954102 C-149.55432488 369.27165803 -149.55588487 368.01377504 -149.55749214 366.71777439 C-149.56168982 363.21027067 -149.5595928 359.70279394 -149.55650592 356.19529009 C-149.55425381 352.4188369 -149.55773048 348.64238853 -149.56048584 344.86593628 C-149.56494457 337.46153913 -149.56396661 330.0571521 -149.5610732 322.65275455 C-149.55881957 316.63781574 -149.55850647 310.62287978 -149.55959702 304.60794067 C-149.55975025 303.75355362 -149.55990348 302.89916658 -149.56006136 302.01888901 C-149.56038107 300.28350027 -149.56070528 298.54811154 -149.56103395 296.8127228 C-149.56388904 280.52011332 -149.56060126 264.22750945 -149.55523358 247.93490088 C-149.55076552 233.93934517 -149.55154144 219.94379775 -149.55615234 205.94824219 C-149.56149759 189.71599535 -149.56361435 173.48375344 -149.56054008 157.25150585 C-149.56022151 155.52231534 -149.55990714 153.79312484 -149.55959702 152.06393433 C-149.55944274 151.21302406 -149.55928846 150.3621138 -149.55912951 149.48541838 C-149.55826421 143.47409323 -149.55972752 137.4627712 -149.56207657 131.45144653 C-149.56487422 124.13083703 -149.56413706 116.81023825 -149.55879582 109.48962998 C-149.55615833 105.75085118 -149.55515455 102.0120903 -149.55844498 98.27331161 C-149.56195005 94.22963664 -149.55777974 90.18600735 -149.55276489 86.14233398 C-149.55499561 84.94751687 -149.55722634 83.75269976 -149.55952466 82.52167606 C-149.55561303 80.91028578 -149.55561303 80.91028578 -149.55162239 79.26634216 C-149.55146004 78.33163306 -149.55129769 77.39692396 -149.55113041 76.43389034 C-149.42578125 74.3359375 -149.42578125 74.3359375 -148.42578125 73.3359375 C-146.61610385 73.21263662 -144.80170288 73.15803567 -142.98803711 73.13061523 C-141.82690903 73.11067001 -140.66578094 73.09072479 -139.46946716 73.07017517 C-138.20594925 73.05346268 -136.94243134 73.03675018 -135.640625 73.01953125 C-133.71169151 72.9883596 -133.71169151 72.9883596 -131.74378967 72.95655823 C-128.31942221 72.90127574 -124.89499375 72.85189389 -121.47052002 72.80371094 C-117.97833811 72.75354085 -114.48624515 72.6978314 -110.99414062 72.64257812 C-104.13809623 72.53492108 -97.28196945 72.43400467 -90.42578125 72.3359375 C-90.42578125 67.0559375 -90.42578125 61.7759375 -90.42578125 56.3359375 C-98.81437963 56.26810517 -107.20276406 56.21308906 -115.59156322 56.18050098 C-119.48700861 56.16485872 -123.38225628 56.14364709 -127.27758789 56.10961914 C-131.0382665 56.07697382 -134.79875519 56.05907365 -138.55956459 56.05130577 C-139.99287212 56.0457715 -141.42616951 56.03496429 -142.85939598 56.01874733 C-144.86994628 55.99690695 -146.88068853 55.99571153 -148.89135742 55.99536133 C-150.03497238 55.98869949 -151.17858734 55.98203766 -152.3568573 55.97517395 C-156.62786631 56.47724712 -159.14460493 57.94651498 -162.04428053 61.0911833 Z M-140.42578125 82.3359375 C-140.42578125 178.6959375 -140.42578125 275.0559375 -140.42578125 374.3359375 C-59.90578125 374.3359375 20.61421875 374.3359375 103.57421875 374.3359375 C103.57421875 277.9759375 103.57421875 181.6159375 103.57421875 82.3359375 C88.39421875 82.3359375 73.21421875 82.3359375 57.57421875 82.3359375 C56.91421875 84.9759375 56.25421875 87.6159375 55.57421875 90.3359375 C53.27388544 93.22990521 52.0911867 94.16361485 48.57421875 95.3359375 C46.83702208 95.43239442 45.09635486 95.47087782 43.35649109 95.47637939 C42.27561218 95.48208954 41.19473328 95.48779968 40.08110046 95.49368286 C38.3020507 95.49535965 38.3020507 95.49535965 36.48706055 95.49707031 C34.61354416 95.50451767 34.61354416 95.50451767 32.70217896 95.51211548 C29.27436148 95.524226 25.84660502 95.53168281 22.41877341 95.53612614 C20.27642603 95.53905841 18.13408397 95.54316352 15.99173927 95.54763031 C9.28656943 95.56130333 2.5814118 95.57097079 -4.12377101 95.5748322 C-11.85965718 95.57931184 -19.59536657 95.59685602 -27.33119899 95.6258328 C-33.31347302 95.64746196 -39.29569736 95.65753715 -45.27801007 95.65887332 C-48.84968341 95.65992052 -52.42119053 95.66581001 -55.99282265 95.68369293 C-59.97875271 95.70326202 -63.96446252 95.69887969 -67.95043945 95.69238281 C-69.13039993 95.7015976 -70.31036041 95.71081238 -71.52607727 95.7203064 C-81.64336738 95.66858258 -81.64336738 95.66858258 -86.42578125 92.3359375 C-89.08060534 88.85720249 -89.53666753 86.78150608 -90.42578125 82.3359375 C-106.92578125 82.3359375 -123.42578125 82.3359375 -140.42578125 82.3359375 Z " fill="#000000" transform="translate(249.42578125,51.6640625)"/>
<path d="M0 0 C0.85261917 -0.00379669 1.70523834 -0.00759338 2.58369446 -0.01150513 C5.39463392 -0.01889884 8.20453368 0.0024534 11.01538086 0.02490234 C12.97163268 0.02728738 14.92788681 0.02819196 16.88414001 0.02767944 C20.98052342 0.03080533 25.07655632 0.04735567 29.17285156 0.07421875 C34.42430826 0.10822062 39.67538035 0.11584654 44.92693424 0.11432838 C48.96495741 0.11487212 53.00289646 0.12583945 57.04089165 0.14033127 C58.97738445 0.1466961 60.91388678 0.15063743 62.85038948 0.15211868 C65.5553729 0.15645374 68.25994804 0.17395852 70.96484375 0.1953125 C71.76547241 0.19440613 72.56610107 0.19349976 73.39099121 0.19256592 C80.4433349 0.2739992 80.4433349 0.2739992 83.41772461 2.48583984 C85.32127588 6.67847176 85.68948208 10.41677056 85.66772461 14.98583984 C85.67545898 16.61005859 85.67545898 16.61005859 85.68334961 18.26708984 C85.39973181 21.70387022 84.84435686 24.34363717 83.41772461 27.48583984 C79.72193972 30.23413042 75.3664045 29.78135009 70.96484375 29.77636719 C69.68854347 29.78644302 69.68854347 29.78644302 68.38645935 29.79672241 C65.57520705 29.81571244 62.7641933 29.81962694 59.95288086 29.82177734 C57.9975932 29.82820395 56.04230651 29.83493221 54.08702087 29.84194946 C49.98898081 29.85392429 45.89102507 29.85763001 41.79296875 29.85644531 C36.54257585 29.85624197 31.29272331 29.88355904 26.04245853 29.91798973 C22.00440488 29.94022831 17.96648197 29.94428381 13.92837334 29.94322586 C11.99268161 29.94558583 10.05698649 29.9544316 8.12135506 29.96989059 C5.41385154 29.98949156 2.70752251 29.98373622 0 29.97167969 C-1.19790665 29.98853821 -1.19790665 29.98853821 -2.42001343 30.0057373 C-6.17829594 29.96322008 -8.36694919 29.62135268 -11.57823181 27.60037231 C-13.94963687 25.09822463 -14.22332787 24.04231403 -14.24633789 20.64208984 C-14.2527832 19.72556641 -14.25922852 18.80904297 -14.26586914 17.86474609 C-14.2465332 16.91470703 -14.22719727 15.96466797 -14.20727539 14.98583984 C-14.22661133 14.03580078 -14.24594727 13.08576172 -14.26586914 12.10693359 C-14.25942383 11.19041016 -14.25297852 10.27388672 -14.24633789 9.32958984 C-14.24069824 8.49621094 -14.23505859 7.66283203 -14.22924805 6.80419922 C-12.33580672 0.01924871 -5.98303654 -0.08420117 0 0 Z M-3.58227539 10.48583984 C-3.58227539 13.45583984 -3.58227539 16.42583984 -3.58227539 19.48583984 C22.15772461 19.48583984 47.89772461 19.48583984 74.41772461 19.48583984 C74.41772461 16.51583984 74.41772461 13.54583984 74.41772461 10.48583984 C48.67772461 10.48583984 22.93772461 10.48583984 -3.58227539 10.48583984 Z " fill="#000000" transform="translate(197.582275390625,93.51416015625)"/>
<path d="M0 0 C0.75475382 0.0030972 1.50950765 0.00619441 2.2871328 0.00938547 C3.08710121 0.00485435 3.88706963 0.00032324 4.71127951 -0.00434518 C7.40675215 -0.01706174 10.10202462 -0.01536417 12.79752403 -0.01371634 C14.72396408 -0.01969704 16.65040172 -0.02650151 18.57683617 -0.03407156 C23.82056633 -0.0517847 29.06423128 -0.05642915 34.30798846 -0.05770314 C38.6795055 -0.05959857 43.05100721 -0.06695193 47.42251837 -0.07404733 C57.73242394 -0.09034881 68.04229456 -0.09521465 78.35221153 -0.09379447 C89.00184016 -0.09259232 99.65126634 -0.11370462 110.30084372 -0.14528179 C119.43207527 -0.17139612 128.56324051 -0.18216381 137.69450915 -0.18088365 C143.15355594 -0.18037262 148.61242291 -0.18613333 154.07143265 -0.20723975 C159.20389334 -0.2265409 164.33600116 -0.22680254 169.46847397 -0.21220648 C171.35552536 -0.2101072 173.24259837 -0.21488536 175.12961251 -0.2269274 C177.69938566 -0.24226831 180.26792504 -0.23314682 182.83766991 -0.21766531 C183.96645456 -0.233096 183.96645456 -0.233096 185.11804295 -0.24883842 C188.41066209 -0.20478779 190.16460472 -0.15319065 192.62437588 2.13974702 C193.93618893 4.93892825 193.6378036 6.39675827 192.62589318 9.276811 C189.54382397 10.81784561 186.30232745 10.42111258 182.91996056 10.4172529 C181.71282426 10.42170958 181.71282426 10.42170958 180.48130137 10.4262563 C177.76972264 10.43496647 175.05818793 10.43645348 172.3465963 10.43794382 C170.40868335 10.44257025 168.47077131 10.44759467 166.53286034 10.45298898 C161.25821966 10.46612943 155.98359172 10.47256082 150.70893723 10.47699964 C147.41734319 10.47992693 144.12575266 10.48403102 140.83416039 10.48850381 C130.54628489 10.50218134 120.25841739 10.51184748 109.97053343 10.5157057 C98.07405676 10.52019115 86.17769472 10.53776053 74.28125292 10.5667063 C65.09824008 10.58827857 55.91525959 10.59840755 46.73222166 10.59974682 C41.24137621 10.6007978 35.75063846 10.60676776 30.25981957 10.62456644 C25.09869079 10.6409709 19.93775159 10.64323999 14.77660614 10.63442743 C12.87784688 10.63365302 10.97907774 10.63805248 9.08034378 10.64788568 C6.49727441 10.66048308 3.91488904 10.65479581 1.33182579 10.64430368 C0.19283545 10.65638829 0.19283545 10.65638829 -0.96916479 10.66871703 C-3.05697578 10.6487478 -3.05697578 10.6487478 -6.37410682 10.276811 C-8.37410682 7.276811 -8.37410682 7.276811 -8.12410682 4.714311 C-6.68272811 0.02983019 -4.52758821 0.04263234 0 0 Z " fill="#000000" transform="translate(140.37410682439804,353.723188996315)"/>
<path d="M0 0 C0.76223973 0.0015486 1.52447947 0.0030972 2.30981737 0.00469273 C3.11372048 0.00242718 3.91762359 0.00016162 4.7458874 -0.00217259 C7.46057614 -0.00854201 10.17521534 -0.00768135 12.88991076 -0.00685817 C14.82767591 -0.00984783 16.76544046 -0.0132499 18.70320421 -0.01703578 C23.98203973 -0.02589956 29.26085905 -0.02821489 34.53970128 -0.02885157 C38.9385957 -0.02979865 43.33748631 -0.0334746 47.73637927 -0.03702366 C58.10998676 -0.04517721 68.48358558 -0.04760707 78.85719591 -0.04689723 C89.57662859 -0.04629615 100.29601098 -0.05685195 111.01543093 -0.0726409 C120.20266986 -0.08569342 129.38989231 -0.0910821 138.57714045 -0.09044182 C144.07132745 -0.09018617 149.56546981 -0.09307444 155.05964762 -0.10361987 C160.22483762 -0.11326251 165.38993993 -0.11340656 170.55513293 -0.10610324 C172.45550005 -0.10505261 174.35587252 -0.10744839 176.25623041 -0.1134637 C178.84141775 -0.12111942 181.42629737 -0.11658186 184.01147753 -0.10883266 C184.77148654 -0.11397622 185.53149555 -0.11911978 186.31453514 -0.12441921 C191.49586805 -0.08986572 191.49586805 -0.08986572 193.72413927 2.1384055 C194.03663927 5.1384055 194.03663927 5.1384055 193.72413927 8.1384055 C190.03390211 10.59856361 187.24867101 10.42066804 182.980609 10.39910191 C181.78550007 10.40484023 181.78550007 10.40484023 180.56624752 10.41069448 C177.88769184 10.42104055 175.20934987 10.41702933 172.5307799 10.4130637 C170.61404508 10.41740925 168.69731201 10.42259187 166.78058153 10.42855138 C161.56789458 10.44196854 156.35528 10.4425171 151.14257914 10.43998808 C146.7958663 10.43892035 142.44916822 10.44379656 138.10245854 10.4485935 C127.8515037 10.45969778 117.6005855 10.46012071 107.34962755 10.45407933 C96.76192688 10.44803563 86.17435897 10.46035853 75.58668095 10.4816494 C66.50638532 10.49924003 57.42613206 10.50527084 48.34582001 10.50201166 C42.91812285 10.50019483 37.49052041 10.50287481 32.06283861 10.5167262 C26.96077661 10.52925894 21.8589223 10.52740381 16.75686365 10.51431531 C14.88110383 10.51194012 13.00532959 10.51471768 11.12958628 10.52293843 C8.57536962 10.5333282 6.02186002 10.52536847 3.46766955 10.5126273 C2.71971951 10.52000159 1.97176948 10.52737587 1.20115429 10.53497362 C-1.73732625 10.50398629 -3.78892715 10.46181338 -6.27545637 8.81032914 C-7.27586073 7.1384055 -7.27586073 7.1384055 -7.02586073 4.0134055 C-5.81293002 -0.63616222 -4.55048117 0.02135818 0 0 Z " fill="#000000" transform="translate(138.27586072683334,264.8615944981575)"/>
<path d="M0 0 C4.62 -0.0825 9.24 -0.165 14 -0.25 C16.16175781 -0.30462402 16.16175781 -0.30462402 18.3671875 -0.36035156 C25.73674311 -0.42395296 30.80561292 -0.12708557 37 4 C40.54711702 7.63579495 41.28578227 10.56629785 41.5 15.5 C41.30648693 20.41790102 40.37005911 23.26561017 37 27 C35.35 28.32 33.7 29.64 32 31 C34.64 34.3 37.28 37.6 40 41 C43.2332678 37.7667322 44.60331967 36.04530172 46.625 32.25 C48.140625 29.86328125 48.140625 29.86328125 50 28 C53.45451935 27.22945601 56.52272366 27.4433609 60 28 C58.20415065 33.69415647 54.35977128 37.92025545 50.63671875 42.47265625 C47.67707226 46.06089462 47.67707226 46.06089462 47.2890625 50.45703125 C49.76913859 54.14317174 52.39263234 57.68487092 55.125 61.1875 C56.23609113 62.61513769 57.34308742 64.04597485 58.4453125 65.48046875 C58.93531738 66.10848389 59.42532227 66.73649902 59.93017578 67.38354492 C61 69 61 69 61 71 C57.35843107 71.97625039 54.6141464 72.16238762 51 71 C46.8289598 67.06130634 43.92763022 61.88353636 41 57 C39.01114264 59.42365085 37.11923398 61.81343739 35.4296875 64.45703125 C31.29591615 70.72000644 31.29591615 70.72000644 27.32421875 71.578125 C24.82247827 71.56397088 22.46740679 71.4021327 20 71 C22.79017175 65.93466484 25.84810566 61.2351601 29.25 56.5625 C29.70890625 55.92634766 30.1678125 55.29019531 30.640625 54.63476562 C31.75735503 53.08762923 32.87823863 51.54349227 34 50 C31.81735899 45.05029497 28.28133044 41.02975413 24.99609375 36.77734375 C23 34 23 34 22 31 C18.04 31 14.08 31 10 31 C10.165 32.4025 10.33 33.805 10.5 35.25 C11.10356982 41.18368636 11.0693144 47.03896166 11 53 C7.37 53 3.74 53 0 53 C0 35.51 0 18.02 0 0 Z M10 8 C10 12.95 10 17.9 10 23 C12.371875 23.061875 14.74375 23.12375 17.1875 23.1875 C17.92508545 23.21481201 18.6626709 23.24212402 19.42260742 23.27026367 C23.84236338 23.32577175 26.46742902 22.64111239 30 20 C31.38142556 18.83622098 31.38142556 18.83622098 31.25 15.625 C31.3210449 12.11557734 31.3210449 12.11557734 29.6875 10.125 C25.79235542 7.52823695 21.79033248 7.88356171 17.3125 7.9375 C14.899375 7.958125 12.48625 7.97875 10 8 Z " fill="#000000" transform="translate(134,164)"/>
<path d="M0 0 C0.85803223 -0.00563965 1.71606445 -0.0112793 2.60009766 -0.01708984 C3.53837402 -0.01304138 4.47665039 -0.00899292 5.44335938 -0.00482178 C6.43384277 -0.00832642 7.42432617 -0.01183105 8.44482422 -0.01544189 C11.7256568 -0.02425929 15.00627452 -0.01840996 18.28710938 -0.01165771 C20.56250042 -0.01300436 22.83789119 -0.01494489 25.11328125 -0.01745605 C29.88479346 -0.02040733 34.65623085 -0.01610951 39.42773438 -0.0067749 C45.55145218 0.00461958 51.67499468 -0.00193987 57.79870605 -0.01391983 C62.49806037 -0.02113829 67.19737296 -0.01885055 71.89672852 -0.01366425 C74.15502951 -0.01232771 76.41333426 -0.01397558 78.67163086 -0.01862335 C81.82480949 -0.0236883 84.9777021 -0.01597863 88.13085938 -0.00482178 C89.06913574 -0.00887024 90.00741211 -0.0129187 90.97412109 -0.01708984 C92.26116943 -0.00863037 92.26116943 -0.00863037 93.57421875 0 C94.31973999 0.00075405 95.06526123 0.0015081 95.83337402 0.002285 C97.78710938 0.25396729 97.78710938 0.25396729 100.78710938 2.25396729 C101.88215977 4.78100666 101.94006641 5.84215988 100.97460938 8.44146729 C99.78710938 10.25396729 99.78710938 10.25396729 97.78710938 11.25396729 C96.42791654 11.35377193 95.06403218 11.39332233 93.70120239 11.40113831 C92.84598999 11.40829361 91.99077759 11.41544891 91.10964966 11.42282104 C90.16934906 11.42550995 89.22904846 11.42819885 88.26025391 11.43096924 C87.27152283 11.43754044 86.28279175 11.44411163 85.26409912 11.45088196 C81.982706 11.47064001 78.70135866 11.48228206 75.41992188 11.49224854 C74.30142727 11.49632406 73.18293266 11.50039959 72.03054428 11.50459862 C66.11264988 11.52546829 60.19477873 11.53976714 54.27685547 11.5491333 C48.15422558 11.56021029 42.03195789 11.59462277 35.90945625 11.634305 C31.21006579 11.66040474 26.51076257 11.66881914 21.811306 11.67241478 C19.5538068 11.67729655 17.2963119 11.6889554 15.03888321 11.70745277 C11.88321152 11.73170657 8.72848955 11.7309044 5.57275391 11.72393799 C4.63650177 11.73674805 3.70024963 11.74955811 2.73562622 11.76275635 C-3.57080238 11.71188734 -3.57080238 11.71188734 -6.82839966 9.38865662 C-8.21289062 7.25396729 -8.21289062 7.25396729 -8.15039062 4.62896729 C-6.54362295 0.55848917 -4.01500497 0.00406094 0 0 Z " fill="#000000" transform="translate(232.212890625,193.74603271484375)"/>
<path d="M0 0 C0.85803223 -0.00563965 1.71606445 -0.0112793 2.60009766 -0.01708984 C3.53837402 -0.01304138 4.47665039 -0.00899292 5.44335938 -0.00482178 C6.43384277 -0.00832642 7.42432617 -0.01183105 8.44482422 -0.01544189 C11.7256568 -0.02425929 15.00627452 -0.01840996 18.28710938 -0.01165771 C20.56250042 -0.01300436 22.83789119 -0.01494489 25.11328125 -0.01745605 C29.88479346 -0.02040733 34.65623085 -0.01610951 39.42773438 -0.0067749 C45.55145218 0.00461958 51.67499468 -0.00193987 57.79870605 -0.01391983 C62.49806037 -0.02113829 67.19737296 -0.01885055 71.89672852 -0.01366425 C74.15502951 -0.01232771 76.41333426 -0.01397558 78.67163086 -0.01862335 C81.82480949 -0.0236883 84.9777021 -0.01597863 88.13085938 -0.00482178 C89.06913574 -0.00887024 90.00741211 -0.0129187 90.97412109 -0.01708984 C92.26116943 -0.00863037 92.26116943 -0.00863037 93.57421875 0 C94.31973999 0.00075405 95.06526123 0.0015081 95.83337402 0.002285 C97.78710938 0.25396729 97.78710938 0.25396729 100.78710938 2.25396729 C101.86963054 4.75209305 101.92497336 5.85186398 101.03710938 8.44146729 C99.78710938 10.25396729 99.78710938 10.25396729 96.78710938 11.25396729 C95.40017587 11.35015565 94.00915336 11.39307535 92.61891174 11.40113831 C91.77073883 11.40829361 90.92256592 11.41544891 90.0486908 11.42282104 C89.12133621 11.42550995 88.19398163 11.42819885 87.23852539 11.43096924 C86.25940186 11.43754044 85.28027832 11.44411163 84.27148438 11.45088196 C81.02799404 11.4706107 77.78454993 11.48227463 74.54101562 11.49224854 C73.43447065 11.49632406 72.32792568 11.50039959 71.18784904 11.50459862 C65.33478863 11.52545427 59.48175165 11.53976005 53.62866211 11.5491333 C47.57444055 11.5602164 41.52058465 11.59463986 35.46649265 11.634305 C30.81771647 11.66040312 26.16902848 11.66881892 21.52018547 11.67241478 C19.28780577 11.67729579 17.0554304 11.68895251 14.82312202 11.70745277 C11.70347867 11.73170647 8.58479594 11.73090463 5.46508789 11.72393799 C4.53975754 11.73674805 3.61442719 11.74955811 2.66105652 11.76275635 C-3.57244636 11.71189304 -3.57244636 11.71189304 -6.82167053 9.38865662 C-8.21289062 7.25396729 -8.21289062 7.25396729 -8.15039062 4.62896729 C-6.54362295 0.55848917 -4.01500497 0.00406094 0 0 Z " fill="#000000" transform="translate(232.212890625,158.74603271484375)"/>
<path d="M0 0 C1.17113799 0.00138269 1.17113799 0.00138269 2.36593533 0.00279331 C3.70584782 0.00073132 3.70584782 0.00073132 5.07282925 -0.00137234 C6.55420376 0.00402058 6.55420376 0.00402058 8.06550503 0.00952244 C9.09952953 0.00937641 10.13355404 0.00923038 11.19891262 0.00907993 C14.63485175 0.00977956 18.07073742 0.01757425 21.50666714 0.02539158 C23.88178382 0.02725558 26.25690089 0.02867957 28.63201809 0.0296793 C34.89727233 0.03350586 41.16250356 0.04333732 47.42774868 0.05438328 C53.81537979 0.06459443 60.2030146 0.06917628 66.59065151 0.0742197 C79.13428115 0.08495947 91.6778948 0.10184656 104.22151089 0.12304783 C106.31526089 4.84179783 106.31526089 4.84179783 105.47151089 7.37304783 C104.22151089 9.12304783 104.22151089 9.12304783 102.22151089 10.12304783 C100.86231805 10.22285247 99.4984337 10.26240288 98.1356039 10.27021885 C97.2803915 10.27737415 96.4251791 10.28452946 95.54405117 10.29190159 C94.60375057 10.29459049 93.66344997 10.2972794 92.69465542 10.30004978 C91.70592434 10.30662098 90.71719326 10.31319218 89.69850063 10.3199625 C86.41710751 10.33972055 83.13576017 10.3513626 79.85432339 10.36132908 C78.73582878 10.36540461 77.61733418 10.36948013 76.46494579 10.37367916 C70.54705139 10.39454883 64.62918025 10.40884768 58.71125698 10.41821384 C52.5886271 10.42929084 46.4663594 10.46370332 40.34385777 10.50338554 C35.64446731 10.52948528 30.94516408 10.53789969 26.24570751 10.54149532 C23.98820831 10.54637709 21.73071341 10.55803594 19.47328472 10.57653332 C16.31761304 10.60078711 13.16289106 10.59998494 10.00715542 10.59301853 C9.07090328 10.60582859 8.13465115 10.61863865 7.17002773 10.63183689 C0.86690611 10.58099456 0.86690611 10.58099456 -2.40181065 8.26164341 C-3.77848911 6.12304783 -3.77848911 6.12304783 -3.59098911 3.43554783 C-2.44329851 0.16904381 -2.44329851 0.16904381 0 0 Z " fill="#000000" transform="translate(227.778489112854,229.87695217132568)"/>
<path d="M0 0 C1.70209877 0.00333092 1.70209877 0.00333092 3.43858337 0.00672913 C4.71983597 0.00680466 6.00108856 0.00688019 7.32116699 0.00695801 C8.73001646 0.01206542 10.13886554 0.01728143 11.54771423 0.02259827 C12.98118033 0.02446249 14.41464706 0.02588637 15.84811401 0.02688599 C19.62765755 0.03071079 23.40716288 0.04054075 27.18669128 0.05158997 C31.04075097 0.06180489 34.8948168 0.06638378 38.74888611 0.07142639 C46.31596085 0.08216306 53.88300407 0.09923903 61.45005798 0.12025452 C62.63755798 2.30775452 62.63755798 2.30775452 63.45005798 5.12025452 C62.44908142 7.89331055 62.44908142 7.89331055 60.45005798 10.12025452 C57.75572205 10.7484436 57.75572205 10.7484436 54.46568298 10.75135803 C53.23430603 10.76389114 52.00292908 10.77642426 50.73423767 10.78933716 C49.38950038 10.77706917 48.04477318 10.7636492 46.70005798 10.74916077 C45.32147535 10.74998939 43.94289281 10.75244852 42.5643158 10.75646973 C39.67566676 10.75932845 36.7877928 10.74462141 33.89927673 10.71717834 C30.19654602 10.68309352 26.49520124 10.68911197 22.79240417 10.70784092 C19.94587147 10.71840977 17.09966129 10.70947455 14.25315857 10.6944561 C12.88801532 10.68927284 11.5228384 10.68975788 10.15769958 10.69600105 C8.24989973 10.70145067 6.34208287 10.67823544 4.43443298 10.65370178 C3.34872009 10.6475032 2.2630072 10.64130463 1.14439392 10.63491821 C-1.54994202 10.12025452 -1.54994202 10.12025452 -3.43959045 8.25488281 C-4.54994202 6.12025452 -4.54994202 6.12025452 -4.29994202 3.43275452 C-3.2361127 0.15261412 -3.2361127 0.15261412 0 0 Z " fill="#000000" transform="translate(270.54994201660156,390.87974548339844)"/>
<path d="M0 0 C1.34888732 0.00015905 2.69778075 0.00584927 4.04663086 0.01586914 C5.10991859 0.01799156 5.10991859 0.01799156 6.19468689 0.02015686 C8.46699173 0.02577096 10.73919936 0.03832576 13.01147461 0.05102539 C14.54858257 0.05603858 16.08569206 0.0606018 17.62280273 0.06469727 C21.39823103 0.07574497 25.17358632 0.09301898 28.94897461 0.11352539 C30.13647461 2.86352539 30.13647461 2.86352539 30.94897461 6.11352539 C29.99584961 8.45532227 29.99584961 8.45532227 27.94897461 10.11352539 C24.90209961 10.63110352 24.90209961 10.63110352 21.19897461 10.64477539 C20.54445313 10.64860229 19.88993164 10.6524292 19.21557617 10.65637207 C17.83372456 10.6590903 16.45182142 10.6517349 15.07006836 10.63500977 C12.95561964 10.6135927 10.84456774 10.63480778 8.73022461 10.66040039 C7.38646712 10.65775709 6.04271173 10.65263205 4.69897461 10.64477539 C3.47694336 10.64026367 2.25491211 10.63575195 0.99584961 10.63110352 C-2.05102539 10.11352539 -2.05102539 10.11352539 -3.98852539 8.24829102 C-5.3751283 5.46234068 -4.99502913 4.02420359 -4.05102539 1.11352539 C-3.05102539 0.11352539 -3.05102539 0.11352539 0 0 Z " fill="#000000" transform="translate(32.051025390625,454.886474609375)"/>
</svg>
