<?xml version="1.0" encoding="UTF-8"?>
<svg version="1.1" xmlns="http://www.w3.org/2000/svg" width="512" height="512">
<path d="M0 0 C1.19098801 -0.0038269 2.38197601 -0.00765381 3.60905457 -0.01159668 C6.10746108 -0.01430141 8.60589661 -0.00704197 11.10424805 0.00976562 C14.92495505 0.03128936 18.743802 0.00986398 22.56445312 -0.015625 C25.00130622 -0.01298333 27.43815816 -0.00786168 29.875 0 C31.01258255 -0.00809692 32.1501651 -0.01619385 33.32221985 -0.02453613 C39.55174322 0.04920311 43.40185271 0.29630968 48.10546875 4.53125 C51.48980636 8.62807973 52.61151389 11.21777603 52.10546875 16.53125 C52.97171875 16.44875 53.83796875 16.36625 54.73046875 16.28125 C59.00906011 16.59818269 60.81470215 17.81279063 64.10546875 20.53125 C67.83876997 25.16362218 68.59061745 28.20945595 68.49609375 34.1171875 C68.49043396 34.81897125 68.48477417 35.520755 68.47894287 36.24380493 C68.45671358 38.46534087 68.40654931 40.68520923 68.35546875 42.90625 C68.33538606 44.42054947 68.31713839 45.93487446 68.30078125 47.44921875 C68.25689508 51.14376268 68.18796452 54.83734333 68.10546875 58.53125 C69.02585938 58.95277344 69.02585938 58.95277344 69.96484375 59.3828125 C73.17021581 61.10248291 74.84990556 63.18735213 76.10546875 66.53125 C76.87170335 72.12476255 76.8755862 76.87253548 74.48046875 82.03125 C70.69340848 86.01762924 67.42294999 88.74421595 61.80078125 88.921875 C60.27684926 88.89560031 58.75314945 88.84835118 57.23046875 88.78125 C56.44671875 88.76320313 55.66296875 88.74515625 54.85546875 88.7265625 C52.93826686 88.67980148 51.0217016 88.60807003 49.10546875 88.53125 C48.81671875 89.253125 48.52796875 89.975 48.23046875 90.71875 C47.18880208 93.32291667 46.14713542 95.92708333 45.10546875 98.53125 C59.05987581 103.26065572 73.02001685 107.97278165 86.98713779 112.66451359 C93.47248043 114.84346758 99.95584394 117.027994 106.43481445 119.22583008 C112.68719559 121.34678347 118.94474383 123.45195603 125.20567131 125.547575 C127.59363502 126.34972255 129.97983194 127.15714972 132.36419868 127.96992683 C135.70385329 129.10733627 139.04929354 130.22582154 142.39672852 131.34008789 C143.38144135 131.68030975 144.36615417 132.02053162 145.38070679 132.37106323 C152.53273108 134.71938552 157.78722028 134.84721389 164.77709961 131.69287109 C166.05024269 131.12625259 166.05024269 131.12625259 167.34910583 130.54818726 C168.69610313 129.93265488 168.69610313 129.93265488 170.0703125 129.3046875 C171.02128311 128.87878326 171.97225372 128.45287903 172.95204163 128.0140686 C175.98615647 126.6530797 179.01462537 125.28002612 182.04296875 123.90625 C184.04324597 123.00567966 186.04389399 122.10593241 188.04492188 121.20703125 C191.93388899 119.45902345 195.82246704 117.71015846 199.71044922 115.95996094 C200.62203796 115.54983765 201.53362671 115.13971436 202.47283936 114.71716309 C204.16356505 113.95554669 205.8536078 113.19241137 207.54278564 112.42736816 C209.70806148 111.44790046 211.87686615 110.47673866 214.046875 109.5078125 C215.82300171 108.70851318 215.82300171 108.70851318 217.63500977 107.89306641 C227.43016644 104.0494235 239.97118774 101.94449779 250.1328125 105.62890625 C254.71370145 108.48719803 258.68336301 112.19602979 260.10546875 117.53125 C260.9874566 124.00956781 261.2786228 130.51032506 258.10546875 136.40625 C255.02382584 140.10184783 251.53973659 142.10856251 247.265625 144.15625 C246.574048 144.4944577 245.88247101 144.83266541 245.16993713 145.18112183 C236.37202894 149.43869998 227.43478311 153.39873911 218.49633789 157.35009766 C215.54157375 158.65686695 212.58997241 159.97058608 209.63867188 161.28515625 C201.38581742 164.95211191 193.12449358 168.60339936 184.765625 172.0234375 C183.68031494 172.46800293 182.59500488 172.91256836 181.47680664 173.37060547 C159.33920477 180.9918785 137.08474803 175.35645145 115.23046875 169.53125 C112.61214862 168.85101253 109.9917676 168.17891803 107.37109375 167.5078125 C103.71373196 166.57005308 100.05786401 165.6285832 96.40701294 164.66577148 C95.34344574 164.38548096 94.27987854 164.10519043 93.18408203 163.81640625 C92.24831329 163.56769775 91.31254456 163.31898926 90.34841919 163.06274414 C88.16529445 162.45439103 88.16529445 162.45439103 86.10546875 162.53125 C86.58790039 163.60157471 87.07033203 164.67189941 87.56738281 165.7746582 C91.89824763 175.38471681 96.22431965 184.99691504 100.54452515 194.61177063 C102.71677854 199.4454981 104.89290147 204.2774295 107.07543945 209.10652161 C108.4647459 212.18366999 109.84710183 215.26392705 111.23046875 218.34375 C111.98312012 220.00241089 111.98312012 220.00241089 112.75097656 221.69458008 C113.20053711 222.69900146 113.65009766 223.70342285 114.11328125 224.73828125 C114.5014502 225.5991333 114.88961914 226.45998535 115.28955078 227.34692383 C116.10546875 229.53125 116.10546875 229.53125 116.10546875 232.53125 C117.39649002 232.52236755 118.68751129 232.51348511 120.01765442 232.5043335 C132.21386305 232.42307169 144.41001639 232.36320012 156.60643482 232.32400131 C162.87600342 232.30317099 169.14535258 232.27493628 175.41479492 232.22949219 C181.47078786 232.18587247 187.52657038 232.16207866 193.58270836 232.15174103 C195.88746132 232.1443786 198.19220341 232.13000178 200.49686623 232.10832977 C203.73749865 232.079082 206.97727337 232.07530298 210.21801758 232.07714844 C211.16029709 232.06276733 212.1025766 232.04838623 213.07341003 232.03356934 C223.41975348 232.09687951 233.23160465 235.74343612 241.10546875 242.53125 C242.06380713 243.6265709 243.00847555 244.73388929 243.9453125 245.84765625 C248.74025651 251.36682127 253.94016873 256.4777761 259.12485504 261.62580109 C260.96854469 263.45658122 262.8089641 265.29059497 264.64862061 267.12542725 C268.54808092 271.01354054 272.45148677 274.89767755 276.35546875 278.78125 C280.89654993 283.29868406 285.43597419 287.81775805 289.97121429 292.34105682 C291.7811161 294.14449547 293.59401021 295.94488851 295.40704346 297.74517822 C296.51662722 298.85112947 297.62607084 299.95722136 298.73535156 301.06347656 C299.23720978 301.56016846 299.73906799 302.05686035 300.25613403 302.56860352 C302.77256444 305.08465258 305.0593034 307.61715101 307.10546875 310.53125 C312.181386 308.83927758 316.36860887 305.89956006 320.79296875 302.96875 C322.31716727 301.96662449 323.84188234 300.96528407 325.3671875 299.96484375 C326.03709717 299.52197021 326.70700684 299.07909668 327.3972168 298.62280273 C331.75440398 295.83861181 336.04327769 295.81804697 341.10546875 296.53125 C344.23125018 298.2033247 346.4982805 300.3168735 348.10546875 303.53125 C348.308307 305.5248602 348.4190572 307.52828879 348.48046875 309.53125 C348.52945312 310.60375 348.5784375 311.67625 348.62890625 312.78125 C347.14721484 323.39635266 340.11763392 330.25975136 332.74902344 337.4296875 C331.0942818 339.04215113 329.46233046 340.67536311 327.83203125 342.3125 C326.77860633 343.35544348 325.72396116 344.39715621 324.66796875 345.4375 C324.18448975 345.92077759 323.70101074 346.40405518 323.20288086 346.90197754 C318.40459417 351.53571107 314.37802525 352.83468298 307.79296875 352.96875 C296.07748076 352.6932458 289.63482315 344.53681042 281.57861328 336.91162109 C279.77156494 335.21837428 277.91838388 333.5857572 276.04296875 331.96875 C272.67127768 329.05327083 269.38404008 326.05049358 266.10546875 323.03125 C262.80519999 319.99234823 259.49597528 316.969689 256.10546875 314.03125 C252.71496095 311.0928099 249.40577845 308.07010858 246.10546875 305.03125 C242.17621278 301.41365616 238.23272114 297.82301237 234.15625 294.37109375 C232.5497158 292.92980307 231.01987358 291.40295365 229.5234375 289.84765625 C228.60175781 288.91824219 227.68007813 287.98882812 226.73046875 287.03125 C225.89773438 286.1546875 225.065 285.278125 224.20703125 284.375 C216.83993606 279.9955681 205.37587654 284.64447098 197.51171875 286.4375 C195.60900208 286.86464294 195.60900208 286.86464294 193.66784668 287.30041504 C191.00461451 287.89861834 188.34230322 288.50070598 185.68066406 289.10595703 C182.26789477 289.88190329 178.85346313 290.65021479 175.43839264 291.41596222 C172.17048104 292.14927399 168.90361104 292.88715976 165.63671875 293.625 C164.40973267 293.90106079 163.18274658 294.17712158 161.9185791 294.46154785 C160.78980347 294.7185144 159.66102783 294.97548096 158.49804688 295.24023438 C157.50228638 295.46594116 156.50652588 295.69164795 155.48059082 295.92419434 C153.10984189 296.44081381 153.10984189 296.44081381 151.10546875 297.53125 C151.65004227 297.88568176 152.19461578 298.24011353 152.75569153 298.60528564 C158.42257658 302.29552899 164.08289456 305.99568287 169.73950195 309.70166016 C171.85143926 311.08344693 173.96503799 312.46269782 176.08032227 313.83935547 C179.12045575 315.81854587 182.15449817 317.80677824 185.1875 319.796875 C186.13446243 320.41056946 187.08142487 321.02426392 188.05708313 321.65655518 C188.93776962 322.23685486 189.81845612 322.81715454 190.72583008 323.41503906 C191.50082352 323.9213385 192.27581696 324.42763794 193.07429504 324.94927979 C196.6906925 327.76589416 198.40730863 330.82036727 199.88867188 335.10131836 C200.20818314 336.01294739 200.5276944 336.92457642 200.85688782 337.86383057 C201.19673203 338.85622742 201.53657623 339.84862427 201.88671875 340.87109375 C202.43630501 342.4465799 202.43630501 342.4465799 202.99699402 344.05389404 C204.20612121 347.52335558 205.40570435 350.99604085 206.60546875 354.46875 C208.30644478 359.36057984 210.01245478 364.25064836 211.71875 369.140625 C211.93714853 369.76751913 212.15554707 370.39441326 212.38056374 371.04030418 C215.72719806 380.6459719 219.13332271 390.22881132 222.5859375 399.796875 C223.0257193 401.01665543 223.4655011 402.23643585 223.91860962 403.49317932 C225.63160621 408.2409498 227.3461098 412.98814569 229.06884766 417.73239136 C230.25557793 421.00117048 231.43679426 424.27189708 232.6171875 427.54296875 C233.15015694 429.00171417 233.15015694 429.00171417 233.69389343 430.4899292 C234.01364639 431.37843567 234.33339935 432.26694214 234.6628418 433.18237305 C234.94306686 433.95437546 235.22329193 434.72637787 235.51200867 435.52177429 C236.10546875 437.53125 236.10546875 437.53125 236.10546875 440.53125 C236.77078613 440.51030273 237.43610352 440.48935547 238.12158203 440.46777344 C241.15772177 440.38424391 244.19361918 440.33247397 247.23046875 440.28125 C248.80054688 440.23097656 248.80054688 440.23097656 250.40234375 440.1796875 C256.65958149 440.10048196 260.36198207 440.31048307 265.10546875 444.53125 C268.70564789 448.49144705 268.61753507 452.74965642 268.4453125 457.875 C267.94747211 461.76616629 266.84123093 463.72709377 264.10546875 466.53125 C250.0362507 474.17720975 231.45526256 484.01392292 215.10546875 480.53125 C207.45749553 478.21399724 202.81632356 473.84939678 198.10546875 467.53125 C196.3577441 464.25948866 195.06663138 460.88224551 193.79296875 457.40234375 C193.42130081 456.43060715 193.04963287 455.45887054 192.66670227 454.45768738 C191.46337497 451.30059837 190.28425654 448.13507358 189.10546875 444.96875 C188.27660125 442.77917216 187.44609938 440.59021235 186.61401367 438.40185547 C184.92424198 433.95257881 183.24310478 429.50017964 181.56787109 425.04541016 C179.26135627 418.92503743 176.90600068 412.82464071 174.53125 406.73046875 C173.82743425 404.92066974 173.12365712 403.11085571 172.41992188 401.30102539 C171.42507394 398.74321803 170.42948038 396.18571991 169.4309082 393.62936401 C168.52201073 391.29902352 167.61955309 388.96629151 166.71875 386.6328125 C166.45097244 385.95075241 166.18319489 385.26869232 165.90730286 384.56596375 C164.8157167 381.72329959 164.10546875 379.60699507 164.10546875 376.53125 C163.27509094 376.27773773 162.44471313 376.02422546 161.58917236 375.76303101 C157.68079253 374.38109139 154.0711829 372.66930808 150.36621094 370.82275391 C149.23783813 370.26601486 149.23783813 370.26601486 148.08666992 369.69802856 C145.6063238 368.47241605 143.12909991 367.24066216 140.65234375 366.0078125 C139.7977079 365.58332195 138.94307205 365.15883141 138.06253815 364.72147751 C133.52680872 362.46859182 128.99339771 360.21111997 124.46191406 357.94970703 C119.83510446 355.64174032 115.20109025 353.34866507 110.56507492 351.05925941 C106.95727557 349.27422834 103.35507697 347.4781054 99.75418854 345.67918015 C98.05177842 344.8309553 96.34741379 343.98663915 94.64089203 343.14671707 C77.22233845 334.56373825 61.65577397 324.39485783 47.10546875 311.53125 C46.05802654 310.6680951 45.00854056 309.80741437 43.95703125 308.94921875 C41.63466279 306.97997755 39.68163489 305.09887882 37.73046875 302.78125 C35.95435281 300.6878323 34.18404216 298.61493665 32.3046875 296.61328125 C2.20840801 264.39842308 -10.90714448 221.73076234 -12.89453125 178.53125 C-42.87282205 203.74703219 -70.86811154 235.90496913 -74.4296875 276.859375 C-74.56745859 278.62471845 -74.70163063 280.39034682 -74.83203125 282.15625 C-75.39692106 289.53850857 -76.22997691 295.23641017 -81.89453125 300.53125 C-87.26183856 305.11582499 -92.48589566 305.25755365 -99.44140625 305.04296875 C-104.62211556 304.2752392 -108.31941942 302.35317918 -111.89453125 298.53125 C-116.05341945 292.7529717 -116.56644514 288.18098226 -116.45703125 281.15625 C-116.44752441 280.15746826 -116.43801758 279.15868652 -116.42822266 278.12963867 C-115.72193109 251.86416589 -106.81749518 226.15346212 -95.89453125 202.53125 C-95.55131836 201.7882666 -95.20810547 201.0452832 -94.85449219 200.27978516 C-81.39778186 171.51820438 -60.39845953 145.06301324 -36.19921875 124.55078125 C-32.08975635 120.94977776 -28.14199152 117.17015802 -24.17236328 113.41625977 C-21.18949022 110.60973508 -18.26340981 107.87925627 -14.89453125 105.53125 C-16.76046514 101.40556702 -19.47424862 98.22448297 -22.3359375 94.75 C-23.8484643 92.59682901 -24.46842412 91.09956694 -24.89453125 88.53125 C-26.05210938 88.57765625 -27.2096875 88.6240625 -28.40234375 88.671875 C-29.94138031 88.70941248 -31.48044495 88.74581051 -33.01953125 88.78125 C-33.78007813 88.81476563 -34.540625 88.84828125 -35.32421875 88.8828125 C-40.69702356 88.97544707 -43.61407029 88.06391959 -47.89453125 84.53125 C-51.52286788 80.71194828 -52.20453583 77.64845994 -52.39453125 72.53125 C-52.20994165 67.21770651 -51.5523404 64.39227077 -47.89453125 60.53125 C-46.58092636 59.82650577 -45.24986477 59.15196997 -43.89453125 58.53125 C-43.92595215 57.39079224 -43.92595215 57.39079224 -43.95800781 56.22729492 C-44.04204518 52.72458552 -44.09346748 49.22208923 -44.14453125 45.71875 C-44.17804688 44.52314453 -44.2115625 43.32753906 -44.24609375 42.09570312 C-44.37928726 29.87519838 -41.41147801 20.45296255 -32.89453125 11.53125 C-23.29737733 2.36950571 -12.99363051 -0.09331445 0 0 Z " fill="#4B96F2" transform="translate(139.89453125,15.46875)"/>
<path d="M0 0 C1.01723145 -0.00730133 2.03446289 -0.01460266 3.08251953 -0.02212524 C6.43362977 -0.03829008 9.78279075 -0.01115175 13.13378906 0.01806641 C15.47397866 0.01910452 17.81417003 0.01806559 20.15435791 0.01504517 C25.05694658 0.01522443 29.95887625 0.03603771 34.86132812 0.07226562 C41.12336898 0.11753975 47.38444332 0.11874459 53.64660263 0.10523033 C58.48016842 0.09852176 63.31351687 0.11186679 68.14704132 0.1314888 C70.4545401 0.13915076 72.76206315 0.14150679 75.06957245 0.13831711 C78.30725966 0.13756908 81.54374477 0.16300239 84.78125 0.1953125 C85.72188293 0.19035767 86.66251587 0.18540283 87.63165283 0.18029785 C97.96181776 0.34349729 107.78143745 3.96189045 115.64941406 10.74462891 C116.60775244 11.83994981 117.55242086 12.94726819 118.48925781 14.06103516 C123.28420183 19.58020018 128.48411405 24.69115501 133.66880035 29.83917999 C135.51249001 31.66996012 137.35290941 33.50397388 139.19256592 35.33880615 C143.09202623 39.22691944 146.99543209 43.11105645 150.89941406 46.99462891 C155.44049524 51.51206297 159.97991951 56.03113696 164.51515961 60.55443573 C166.32506141 62.35787438 168.13795552 64.15826742 169.95098877 65.95855713 C171.06057253 67.06450838 172.17001615 68.17060026 173.27929688 69.27685547 C173.78115509 69.77354736 174.28301331 70.27023926 174.80007935 70.78198242 C177.31650975 73.29803149 179.60324871 75.83052992 181.64941406 78.74462891 C186.72533131 77.05265649 190.91255418 74.11293897 195.33691406 71.18212891 C196.86111258 70.1800034 198.38582766 69.17866298 199.91113281 68.17822266 C200.58104248 67.73534912 201.25095215 67.29247559 201.94116211 66.83618164 C206.2983493 64.05199071 210.587223 64.03142588 215.64941406 64.74462891 C218.77519549 66.4167036 221.04222581 68.5302524 222.64941406 71.74462891 C222.85225231 73.73823911 222.96300252 75.74166769 223.02441406 77.74462891 C223.07339844 78.81712891 223.12238281 79.88962891 223.17285156 80.99462891 C221.69116015 91.60973156 214.66157923 98.47313027 207.29296875 105.64306641 C205.63822711 107.25553003 204.00627577 108.88874201 202.37597656 110.52587891 C201.32255164 111.56882239 200.26790647 112.61053512 199.21191406 113.65087891 C198.72843506 114.13415649 198.24495605 114.61743408 197.74682617 115.11535645 C192.94853948 119.74908998 188.92197057 121.04806189 182.33691406 121.18212891 C170.62142607 120.90662471 164.17876846 112.75018932 156.12255859 105.125 C154.31551026 103.43175318 152.46232919 101.7991361 150.58691406 100.18212891 C147.21522299 97.26664973 143.92798539 94.26387249 140.64941406 91.24462891 C137.3491453 88.20572714 134.0399206 85.1830679 130.64941406 82.24462891 C127.25890626 79.30618881 123.94972376 76.28348749 120.64941406 73.24462891 C116.72015809 69.62703507 112.77666645 66.03639128 108.70019531 62.58447266 C107.09366112 61.14318198 105.56381889 59.61633256 104.06738281 58.06103516 C103.14570313 57.13162109 102.22402344 56.20220703 101.27441406 55.24462891 C100.44167969 54.36806641 99.60894531 53.49150391 98.75097656 52.58837891 C91.38388137 48.20894701 79.91982185 52.85784988 72.05566406 54.65087891 C70.15294739 55.07802185 70.15294739 55.07802185 68.21179199 55.51379395 C65.54855982 56.11199724 62.88624853 56.71408489 60.22460938 57.31933594 C56.81184008 58.09528219 53.39740845 58.8635937 49.98233795 59.62934113 C46.71442635 60.36265289 43.44755635 61.10053867 40.18066406 61.83837891 C38.95367798 62.1144397 37.72669189 62.39050049 36.46252441 62.67492676 C35.33374878 62.93189331 34.20497314 63.18885986 33.04199219 63.45361328 C31.54835144 63.79217346 31.54835144 63.79217346 30.02453613 64.13757324 C27.6537872 64.65419272 27.6537872 64.65419272 25.64941406 65.74462891 C26.46627434 66.27627655 26.46627434 66.27627655 27.29963684 66.81866455 C32.96652189 70.50890789 38.62683987 74.20906178 44.28344727 77.91503906 C46.39538457 79.29682583 48.5089833 80.67607673 50.62426758 82.05273438 C53.66440106 84.03192477 56.69844348 86.02015714 59.73144531 88.01025391 C60.67840775 88.62394836 61.62537018 89.23764282 62.60102844 89.86993408 C63.48171494 90.45023376 64.36240143 91.03053345 65.26977539 91.62841797 C66.04476883 92.13471741 66.81976227 92.64101685 67.61824036 93.16265869 C71.23463781 95.97927307 72.95125394 99.03374618 74.43261719 103.31469727 C74.75212845 104.22632629 75.07163971 105.13795532 75.40083313 106.07720947 C75.74067734 107.06960632 76.08052155 108.06200317 76.43066406 109.08447266 C76.7970549 110.13479675 77.16344574 111.18512085 77.54093933 112.26727295 C78.75006652 115.73673449 79.94964967 119.20941976 81.14941406 122.68212891 C82.8503901 127.57395875 84.55640009 132.46402726 86.26269531 137.35400391 C86.48109385 137.98089804 86.69949238 138.60779217 86.92450905 139.25368309 C90.27114338 148.85935081 93.67726802 158.44219023 97.12988281 168.01025391 C97.56966461 169.23003433 98.00944641 170.44981476 98.46255493 171.70655823 C100.17555153 176.45432871 101.89005511 181.20152459 103.61279297 185.94577026 C104.79952324 189.21454938 105.98073957 192.48527598 107.16113281 195.75634766 C107.51644577 196.7288446 107.87175873 197.70134155 108.23783875 198.70330811 C108.55759171 199.59181458 108.87734467 200.48032104 109.20678711 201.39575195 C109.48701218 202.16775436 109.76723724 202.93975677 110.05595398 203.7351532 C110.64941406 205.74462891 110.64941406 205.74462891 110.64941406 208.74462891 C111.31473145 208.72368164 111.98004883 208.70273437 112.66552734 208.68115234 C115.70166708 208.59762282 118.73756449 208.54585287 121.77441406 208.49462891 C122.82113281 208.46111328 123.86785156 208.42759766 124.94628906 208.39306641 C131.2035268 208.31386087 134.90592738 208.52386198 139.64941406 212.74462891 C143.2495932 216.70482596 143.16148038 220.96303533 142.98925781 226.08837891 C142.49141742 229.9795452 141.38517624 231.94047267 138.64941406 234.74462891 C124.58019601 242.39058866 105.99920788 252.22730182 89.64941406 248.74462891 C82.00144084 246.42737615 77.36026887 242.06277568 72.64941406 235.74462891 C70.90168942 232.47286756 69.61057669 229.09562441 68.33691406 225.61572266 C67.96524612 224.64398605 67.59357819 223.67224945 67.21064758 222.67106628 C66.00732029 219.51397727 64.82820185 216.34845249 63.64941406 213.18212891 C62.82054656 210.99255106 61.9900447 208.80359126 61.15795898 206.61523438 C59.46818729 202.16595772 57.78705009 197.71355854 56.11181641 193.25878906 C53.80530158 187.13841633 51.449946 181.03801962 49.07519531 174.94384766 C48.37137957 173.13404864 47.66760243 171.32423462 46.96386719 169.5144043 C45.96901925 166.95659694 44.9734257 164.39909882 43.97485352 161.84274292 C43.06595604 159.51240242 42.1634984 157.17967041 41.26269531 154.84619141 C40.99491776 154.16413132 40.7271402 153.48207123 40.45124817 152.77934265 C39.35966201 149.9366785 38.64941406 147.82037398 38.64941406 144.74462891 C37.40384735 144.3643605 37.40384735 144.3643605 36.13311768 143.97640991 C32.22473784 142.59447029 28.61512821 140.88268699 24.91015625 139.03613281 C24.15790771 138.66497345 23.40565918 138.29381409 22.63061523 137.91140747 C20.15026912 136.68579496 17.67304522 135.45404106 15.19628906 134.22119141 C14.34165321 133.79670086 13.48701736 133.37221031 12.60648346 132.93485641 C8.07075404 130.68197073 3.53734302 128.42449888 -0.99414062 126.16308594 C-5.62095023 123.85511923 -10.25496444 121.56204398 -14.89097977 119.27263832 C-18.49877912 117.48760724 -22.10097772 115.69148431 -25.70186615 113.89255905 C-27.40427627 113.0443342 -29.1086409 112.20001805 -30.81516266 111.36009598 C-48.23371624 102.77711715 -63.80028072 92.60823673 -78.35058594 79.74462891 C-79.4170261 78.85611817 -80.48603238 77.97067814 -81.55761719 77.08837891 C-84.28785563 74.79726973 -86.42619828 72.74667365 -88.35058594 69.74462891 C-88.24221464 66.58154177 -87.17505178 65.55839498 -84.97949219 63.22900391 C-83.96598076 62.30796553 -82.94325644 61.39699571 -81.91308594 60.49462891 C-81.37031006 60.00865234 -80.82753418 59.52267578 -80.26831055 59.02197266 C-76.28192586 55.48318818 -72.17125694 52.12242638 -67.97558594 48.83447266 C-64.90065121 46.38642194 -61.90520623 43.85517812 -58.91308594 41.30712891 C-54.92382726 37.91250984 -50.91388168 34.55086227 -46.85058594 31.24462891 C-42.25049072 27.50036535 -37.71892498 23.68242017 -33.19970703 19.84155273 C-28.83956506 16.14225493 -24.42599835 12.51263552 -19.98339844 8.91259766 C-17.47631588 6.93754543 -17.47631588 6.93754543 -15.92611313 5.24659157 C-10.92833719 0.25585805 -6.87154973 -0.11072556 0 0 Z " fill="#845D42" transform="translate(265.3505859375,247.25537109375)"/>
<path d="M0 0 C1.19098801 -0.0038269 2.38197601 -0.00765381 3.60905457 -0.01159668 C6.10746108 -0.01430141 8.60589661 -0.00704197 11.10424805 0.00976562 C14.92495505 0.03128936 18.743802 0.00986398 22.56445312 -0.015625 C25.00130622 -0.01298333 27.43815816 -0.00786168 29.875 0 C31.01258255 -0.00809692 32.1501651 -0.01619385 33.32221985 -0.02453613 C39.55174322 0.04920311 43.40185271 0.29630968 48.10546875 4.53125 C51.48980636 8.62807973 52.61151389 11.21777603 52.10546875 16.53125 C53.40484375 16.4075 53.40484375 16.4075 54.73046875 16.28125 C59.00906011 16.59818269 60.81470215 17.81279063 64.10546875 20.53125 C67.83876997 25.16362218 68.59061745 28.20945595 68.49609375 34.1171875 C68.49043396 34.81897125 68.48477417 35.520755 68.47894287 36.24380493 C68.45671358 38.46534087 68.40654931 40.68520923 68.35546875 42.90625 C68.33538606 44.42054947 68.31713839 45.93487446 68.30078125 47.44921875 C68.25689508 51.14376268 68.18796452 54.83734333 68.10546875 58.53125 C69.02585938 58.95277344 69.02585938 58.95277344 69.96484375 59.3828125 C73.17021581 61.10248291 74.84990556 63.18735213 76.10546875 66.53125 C76.87170335 72.12476255 76.8755862 76.87253548 74.48046875 82.03125 C70.69340848 86.01762924 67.42294999 88.74421595 61.80078125 88.921875 C60.27684926 88.89560031 58.75314945 88.84835118 57.23046875 88.78125 C56.44671875 88.76320313 55.66296875 88.74515625 54.85546875 88.7265625 C52.93826686 88.67980148 51.0217016 88.60807003 49.10546875 88.53125 C48.79996094 89.30597656 48.49445313 90.08070312 48.1796875 90.87890625 C45.43154698 97.66431503 45.43154698 97.66431503 42.390625 99.65234375 C40.12774921 101.13778982 38.68331226 102.3099742 37.10546875 104.53125 C36.50671711 108.29857786 36.41382858 111.95000327 36.3203125 115.76171875 C35.91757295 122.82796728 33.85344996 128.33340321 28.54296875 133.09375 C24.39045894 136.35841807 20.61204004 136.87960784 15.453125 136.8125 C10.64807258 136.23685312 7.40383214 133.84174763 4.015625 130.421875 C1.5463089 126.68507762 1.08747589 123.32302689 0.35546875 118.96875 C-0.64408374 113.31630186 -0.64408374 113.31630186 -3.71484375 108.671875 C-5.75926195 107.72351371 -7.71850766 107.1047756 -9.89453125 106.53125 C-16.49982748 102.70017819 -21.3978852 97.33028398 -24.89453125 90.53125 C-24.89453125 89.87125 -24.89453125 89.21125 -24.89453125 88.53125 C-26.05210938 88.57765625 -27.2096875 88.6240625 -28.40234375 88.671875 C-29.94138031 88.70941248 -31.48044495 88.74581051 -33.01953125 88.78125 C-33.78007813 88.81476563 -34.540625 88.84828125 -35.32421875 88.8828125 C-40.69702356 88.97544707 -43.61407029 88.06391959 -47.89453125 84.53125 C-51.52286788 80.71194828 -52.20453583 77.64845994 -52.39453125 72.53125 C-52.20994165 67.21770651 -51.5523404 64.39227077 -47.89453125 60.53125 C-46.58092636 59.82650577 -45.24986477 59.15196997 -43.89453125 58.53125 C-43.91547852 57.77094482 -43.93642578 57.01063965 -43.95800781 56.22729492 C-44.04204518 52.72458552 -44.09346748 49.22208923 -44.14453125 45.71875 C-44.19480469 43.9253418 -44.19480469 43.9253418 -44.24609375 42.09570312 C-44.37928726 29.87519838 -41.41147801 20.45296255 -32.89453125 11.53125 C-23.29737733 2.36950571 -12.99363051 -0.09331445 0 0 Z " fill="#FBD1D1" transform="translate(139.89453125,15.46875)"/>
<path d="M0 0 C4.77290246 4.06024905 7.22229155 7.47955301 8.06640625 13.6796875 C8.39704165 20.2220476 8.30884887 26.0939486 3.97680664 31.2890625 C1.17092182 33.85231241 -1.82057393 35.4363366 -5.21484375 37.0625 C-5.90642075 37.4007077 -6.59799774 37.73891541 -7.31053162 38.08737183 C-16.10843981 42.34494998 -25.04568564 46.30498911 -33.98413086 50.25634766 C-36.938895 51.56311695 -39.89049634 52.87683608 -42.84179688 54.19140625 C-79.79745297 70.61175548 -104.46966912 71.43078989 -143.375 60.4375 C-142.04272239 45.3905999 -140.32680533 30.41633466 -138.375 15.4375 C-129.36449437 17.15048624 -120.83917916 20.26354629 -112.22607422 23.3503418 C-110.25682199 24.05337297 -108.28162786 24.73690829 -106.3046875 25.41796875 C-105.14179199 25.82942139 -103.97889648 26.24087402 -102.78076172 26.66479492 C-95.18834067 28.38737647 -89.18449633 25.30658266 -82.41015625 22.2109375 C-81.45918564 21.78503326 -80.50821503 21.35912903 -79.52842712 20.9203186 C-76.49431228 19.5593297 -73.46584338 18.18627612 -70.4375 16.8125 C-68.43722278 15.91192966 -66.43657476 15.01218241 -64.43554688 14.11328125 C-60.54657976 12.36527345 -56.65800171 10.61640846 -52.77001953 8.86621094 C-51.40263641 8.251026 -51.40263641 8.251026 -50.00762939 7.62341309 C-48.3169037 6.86179669 -46.62686095 6.09866137 -44.93768311 5.33361816 C-42.77240727 4.35415046 -40.6036026 3.38298866 -38.43359375 2.4140625 C-37.24950928 1.88119629 -36.0654248 1.34833008 -34.84545898 0.79931641 C-24.76677546 -3.15558312 -9.77320476 -6.09808949 0 0 Z " fill="#FBD1D2" transform="translate(392.375,122.5625)"/>
<path d="M0 0 C3.2574919 1.38160774 4.90773314 2.81973126 6.9609375 5.68359375 C7.78247314 6.81510864 7.78247314 6.81510864 8.62060547 7.96948242 C9.19955566 8.78392822 9.77850586 9.59837402 10.375 10.4375 C11.61433372 12.15122221 12.85392511 13.8647581 14.09375 15.578125 C14.73183594 16.46564453 15.36992188 17.35316406 16.02734375 18.26757812 C19.27525255 22.76641418 22.57726625 27.22513434 25.875 31.6875 C27.06015095 33.29538491 28.24507061 34.90344034 29.4296875 36.51171875 C29.92710449 37.18678467 30.42452148 37.86185059 30.93701172 38.55737305 C31.28779785 39.03343994 31.63858398 39.50950684 32 40 C30.41589575 43.34354329 28.65875587 45.53490585 26.0625 48.1875 C8.54250354 67.42293752 -4.92652555 95.32430137 -6.58081055 121.44726562 C-7.61362906 137.03045513 -7.61362906 137.03045513 -14 143 C-19.36730731 147.58457499 -24.59136441 147.72630365 -31.546875 147.51171875 C-36.72758431 146.7439892 -40.42488817 144.82192918 -44 141 C-48.1588882 135.2217217 -48.67191389 130.64973226 -48.5625 123.625 C-48.55299316 122.62621826 -48.54348633 121.62743652 -48.53369141 120.59838867 C-47.82739984 94.33291589 -38.92296393 68.62221212 -28 45 C-27.65678711 44.2570166 -27.31357422 43.5140332 -26.95996094 42.74853516 C-19.71108755 27.25521974 -10.23115163 13.6542846 0 0 Z " fill="#FBD2D2" transform="translate(72,173)"/>
<path d="M0 0 C1.19098801 -0.0038269 2.38197601 -0.00765381 3.60905457 -0.01159668 C6.10746108 -0.01430141 8.60589661 -0.00704197 11.10424805 0.00976562 C14.92495505 0.03128936 18.743802 0.00986398 22.56445312 -0.015625 C25.00130622 -0.01298333 27.43815816 -0.00786168 29.875 0 C31.01258255 -0.00809692 32.1501651 -0.01619385 33.32221985 -0.02453613 C39.55174322 0.04920311 43.40185271 0.29630968 48.10546875 4.53125 C51.48980636 8.62807973 52.61151389 11.21777603 52.10546875 16.53125 C53.40484375 16.4075 53.40484375 16.4075 54.73046875 16.28125 C59.00906011 16.59818269 60.81470215 17.81279063 64.10546875 20.53125 C67.83876997 25.16362218 68.59061745 28.20945595 68.49609375 34.1171875 C68.49043396 34.81897125 68.48477417 35.520755 68.47894287 36.24380493 C68.45671358 38.46534087 68.40654931 40.68520923 68.35546875 42.90625 C68.33538606 44.42054947 68.31713839 45.93487446 68.30078125 47.44921875 C68.26030857 51.14437413 68.18201088 54.83596616 68.10546875 58.53125 C62.82546875 57.87125 57.54546875 57.21125 52.10546875 56.53125 C51.61046875 52.57125 51.61046875 52.57125 51.10546875 48.53125 C49.03626089 46.12522825 49.03626089 46.12522825 46.1953125 44.46875 C45.20595703 43.81777344 44.21660156 43.16679688 43.19726562 42.49609375 C42.15634766 41.84769531 41.11542969 41.19929688 40.04296875 40.53125 C38.99818359 39.85191406 37.95339844 39.17257813 36.87695312 38.47265625 C34.30034105 36.80197627 31.71081343 35.15661429 29.10546875 33.53125 C26.95288594 35.67475018 24.82295922 37.82862845 22.73046875 40.03125 C15.53569308 46.8834173 8.43410611 48.8633822 -1.234375 48.7265625 C-2.00133194 48.7237326 -2.76828888 48.72090271 -3.55848694 48.71798706 C-5.98316746 48.70688475 -8.40746434 48.68179967 -10.83203125 48.65625 C-12.48632275 48.6462073 -14.1406201 48.63708372 -15.79492188 48.62890625 C-19.82827048 48.60697817 -23.86133605 48.57251843 -27.89453125 48.53125 C-27.89453125 51.17125 -27.89453125 53.81125 -27.89453125 56.53125 C-28.79816406 56.59183594 -29.70179687 56.65242188 -30.6328125 56.71484375 C-31.81230469 56.79863281 -32.99179688 56.88242188 -34.20703125 56.96875 C-35.37878906 57.04996094 -36.55054687 57.13117188 -37.7578125 57.21484375 C-40.92044083 57.4179871 -40.92044083 57.4179871 -43.89453125 58.53125 C-44.01219098 54.26065439 -44.08226756 49.99048403 -44.14453125 45.71875 C-44.17804688 44.52314453 -44.2115625 43.32753906 -44.24609375 42.09570312 C-44.37928726 29.87519838 -41.41147801 20.45296255 -32.89453125 11.53125 C-23.29737733 2.36950571 -12.99363051 -0.09331445 0 0 Z " fill="#70492A" transform="translate(139.89453125,15.46875)"/>
<path d="M0 0 C1.32 0 2.64 0 4 0 C5.72751519 9.25527968 6.75565729 18.52904851 7.68902588 27.88873291 C8.91852237 40.19124818 10.21096939 52.4673356 12.00244141 64.70288086 C12.71250908 69.61522322 13.22742246 74.50110131 13.61132812 79.44921875 C16.32889582 113.06262889 30.59038258 142.52297798 54.125 166.375 C54.98581177 167.25007202 54.98581177 167.25007202 55.86401367 168.14282227 C59.65138328 171.90092903 63.58586486 175.00108376 68 178 C66.46000416 181.83248964 64.08835992 183.94064065 61 186.625 C60.113125 187.40101563 59.22625 188.17703125 58.3125 188.9765625 C57.549375 189.64429688 56.78625 190.31203125 56 191 C55.34 191.66 54.68 192.32 54 193 C21.68869795 159.90236095 7.09232328 116.48050079 5 71 C2.64282174 73.01740481 0.28925732 75.03879176 -2.0625 77.0625 C-2.71927734 77.62388672 -3.37605469 78.18527344 -4.05273438 78.76367188 C-8.56972622 82.65763036 -12.84196472 86.72522518 -17 91 C-21.46568496 86.8342491 -24.93597121 82.19515243 -28.5 77.25 C-33.38288389 70.54437336 -38.32386789 63.89248647 -43.375 57.3125 C-43.94025391 56.57612305 -44.50550781 55.83974609 -45.08789062 55.08105469 C-46.39054169 53.38630402 -47.69504302 51.69297575 -49 50 C-46.13867285 45.46673347 -42.98477685 41.58415461 -39.3125 37.6875 C-38.78430664 37.12208496 -38.25611328 36.55666992 -37.71191406 35.97412109 C-31.55097749 29.40879152 -25.29525426 23.03129235 -18.45703125 17.16796875 C-14.92876748 14.05479483 -11.49886141 10.83897062 -8.0625 7.625 C-7.04905518 6.67717651 -7.04905518 6.67717651 -6.01513672 5.71020508 C-2.97626164 2.88762923 -2.97626164 2.88762923 0 0 Z " fill="#2E7AE8" transform="translate(122,123)"/>
<path d="M0 0 C2.56814589 0.98193813 3.61003546 1.79517512 5.390625 3.8515625 C19.77438617 18.97295244 39.55225824 29.42491268 58.12347412 38.43783379 C60.72721434 39.70220383 63.32347002 40.98096729 65.91845703 42.26319885 C72.34048426 45.43345497 78.77227927 48.58363372 85.20715332 51.72772217 C90.70151143 54.41237618 96.19026663 57.10782507 101.67126465 59.81965828 C104.22253288 61.07642881 106.78139682 62.31669113 109.34082031 63.55674744 C110.8969184 64.32528352 112.45260571 65.09465211 114.0078125 65.86499023 C114.7152359 66.20219086 115.4226593 66.53939148 116.15151978 66.8868103 C122.2292528 69.936886 124.0435176 73.64594977 126.37670898 79.76318359 C126.73855789 80.70483368 127.1004068 81.64648376 127.47322083 82.6166687 C127.85717514 83.63004303 128.24112946 84.64341736 128.63671875 85.6875 C129.04439987 86.752034 129.45208099 87.81656799 129.87211609 88.9133606 C131.19502098 92.37032569 132.51150296 95.82970028 133.828125 99.2890625 C134.73302869 101.65580263 135.63846627 104.0223387 136.54443359 106.38867188 C138.33703472 111.07186347 140.12768272 115.75579301 141.91650391 120.44042969 C144.85092828 128.12239125 147.79953206 135.7988066 150.76443481 143.46905518 C151.49902366 145.37107773 152.2309366 147.27411452 152.96264648 149.17724609 C153.39520752 150.29695801 153.82776855 151.41666992 154.2734375 152.5703125 C154.82088623 153.99053711 154.82088623 153.99053711 155.37939453 155.43945312 C156.34206411 157.90106236 156.34206411 157.90106236 157.53125 160.11621094 C158.390625 161.9140625 158.390625 161.9140625 158.2578125 164.0234375 C157.11591089 166.51298875 155.97816432 167.02750589 153.515625 168.1640625 C152.81695312 168.49921875 152.11828125 168.834375 151.3984375 169.1796875 C149.390625 169.9140625 149.390625 169.9140625 146.390625 169.9140625 C146.390625 169.2540625 146.390625 168.5940625 146.390625 167.9140625 C145.730625 167.9140625 145.070625 167.9140625 144.390625 167.9140625 C140.38671875 157.50390625 136.3828125 147.09375 132.37890625 136.68359375 C131.94414978 135.55346863 131.50939331 134.42334351 131.0614624 133.25897217 C130.18047782 130.96792316 129.30014952 128.67662168 128.42047119 126.3850708 C126.12743483 120.41433464 123.82175922 114.44894021 121.49511719 108.49121094 C121.0306015 107.29700531 120.56608582 106.10279968 120.0874939 104.87240601 C119.19772976 102.58583488 118.3040314 100.30078975 117.40591431 98.01748657 C117.00947723 96.99641815 116.61304016 95.97534973 116.20458984 94.92333984 C115.67761002 93.57675797 115.67761002 93.57675797 115.13998413 92.20297241 C114.390625 89.9140625 114.390625 89.9140625 114.390625 86.9140625 C113.56024719 86.66055023 112.72986938 86.40703796 111.87432861 86.14584351 C107.96594878 84.76390389 104.35633915 83.05212058 100.65136719 81.20556641 C99.89911865 80.83440704 99.14687012 80.46324768 98.37182617 80.08084106 C95.89148005 78.85522855 93.41425616 77.62347466 90.9375 76.390625 C90.08286415 75.96613445 89.2282283 75.54164391 88.3476944 75.10429001 C83.81196497 72.85140432 79.27855396 70.59393247 74.74707031 68.33251953 C70.12026071 66.02455282 65.4862465 63.73147757 60.85023117 61.44207191 C57.24243182 59.65704084 53.64023322 57.8609179 50.03934479 56.06199265 C48.33693467 55.2137678 46.63257004 54.36945165 44.92604828 53.52952957 C27.5074947 44.94655075 11.94093022 34.77767033 -2.609375 21.9140625 C-3.67581516 21.02555177 -4.74482144 20.14011173 -5.81640625 19.2578125 C-8.54664469 16.96670332 -10.68498734 14.91610724 -12.609375 11.9140625 C-12.32367537 7.97957046 -10.18730612 6.16261933 -7.359375 3.6015625 C-6.59109375 2.88355469 -5.8228125 2.16554688 -5.03125 1.42578125 C-2.609375 -0.0859375 -2.609375 -0.0859375 0 0 Z " fill="#734C2D" transform="translate(189.609375,305.0859375)"/>
<path d="M0 0 C3.4029013 1.79505439 6.31095433 4.10635079 9.3125 6.5 C10.15570801 7.13478271 10.99891602 7.76956543 11.86767578 8.42358398 C15.37825632 11.07765321 18.80866536 13.720319 21.94140625 16.81640625 C25.15594311 19.78327414 27.67948613 21.92509506 32.20849609 22.07128906 C37.66376783 21.7269257 42.97218918 20.69608195 48.31201172 19.56542969 C52.39806918 18.70591024 56.5076054 18.00348828 60.625 17.3125 C61.36322998 17.18697754 62.10145996 17.06145508 62.86206055 16.93212891 C77.39105711 14.54384583 77.39105711 14.54384583 82.6875 17.5 C84.54038687 21.02930832 84.85917474 24.16080475 84 28 C82.36519611 30.12524505 81.05142434 31.35054394 79 33 C77.45568059 34.41377442 75.91432116 35.83078511 74.375 37.25 C69.99223596 41.17312409 65.48901902 44.91650646 60.91796875 48.6171875 C57.74582635 51.20755814 54.61955427 53.84681357 51.5 56.5 C45.72590069 61.40746703 39.88396115 66.22444035 34 71 C29.04741286 67.22660027 25.56320845 63.09210286 22 58 C25.85616416 54.03386918 29.91468618 50.39791461 34.125 46.8125 C34.74503906 46.27947266 35.36507812 45.74644531 36.00390625 45.19726562 C38.6151307 42.96508989 41.13421821 40.91052119 44 39 C42.1128125 39.2475 42.1128125 39.2475 40.1875 39.5 C38.45841436 39.66750517 36.72924168 39.83411344 35 40 C34.13375 40.12632812 33.2675 40.25265625 32.375 40.3828125 C24.42924814 41.09885409 20.19367841 37.84769101 14.3359375 32.96875 C13.56507813 32.3190625 12.79421875 31.669375 12 31 C11.67 31 11.34 31 11 31 C11.33 33.64 11.66 36.28 12 39 C10.10787298 39.53414112 8.21108364 40.05178329 6.3125 40.5625 C5.25675781 40.85253906 4.20101563 41.14257812 3.11328125 41.44140625 C-0.04745072 42.00851374 -1.92153171 41.71427767 -5 41 C-6.01099317 37.18073514 -7.00723111 33.35793574 -7.99072266 29.53149414 C-8.4901937 27.60041362 -9.00084731 25.6722365 -9.51171875 23.74414062 C-13.78394682 7.04757582 -13.78394682 7.04757582 -10.5 1.4375 C-6.97663416 -0.58843536 -3.91145957 -0.77901627 0 0 Z " fill="#FFBB60" transform="translate(404,392)"/>
<path d="M0 0 C58.08 0 116.16 0 176 0 C176 5.28 176 10.56 176 16 C117.92 16 59.84 16 0 16 C0 10.72 0 5.44 0 0 Z " fill="#A2C4ED" transform="translate(112,472)"/>
<path d="M0 0 C3.41445925 2.21017442 5.56952459 4.33154727 7.02392578 8.12915039 C7.67284306 13.36855661 7.65083858 17.69247522 5.52392578 22.56665039 C-4.02987222 32.35929334 -26.02660854 39.66743391 -39.47607422 40.06665039 C-47.93177391 39.36521167 -54.12941681 36.43514188 -59.91357422 30.25415039 C-62.74053918 26.71877341 -64.62028806 23.45071877 -65.97607422 19.12915039 C-65.48107422 17.64415039 -65.48107422 17.64415039 -64.97607422 16.12915039 C-64.97607422 16.78915039 -64.97607422 17.44915039 -64.97607422 18.12915039 C-62.52081257 16.96219112 -60.06633471 15.79364346 -57.61303711 14.62255859 C-55.50294269 13.61800979 -53.39008714 12.61924248 -51.2746582 11.62597656 C-46.65529941 9.44300179 -42.09284844 7.28308891 -37.72998047 4.61743164 C-27.38996889 -1.5838861 -11.55218403 -5.09101068 0 0 Z " fill="#999797" transform="translate(400.97607421875,456.870849609375)"/>
<path d="M0 0 C3.12578143 1.6720747 5.39281175 3.7856235 7 7 C7.20283825 8.9936102 7.31358845 10.99703879 7.375 13 C7.42398438 14.0725 7.47296875 15.145 7.5234375 16.25 C6.04174609 26.86510266 -0.98783483 33.72850136 -8.35644531 40.8984375 C-10.01118695 42.51090113 -11.64313829 44.14411311 -13.2734375 45.78125 C-14.32686242 46.82419348 -15.38150759 47.86590621 -16.4375 48.90625 C-16.920979 49.38952759 -17.40445801 49.87280518 -17.90258789 50.37072754 C-23.72850017 55.99684512 -28.92658379 56.51166995 -36.77734375 56.37890625 C-41.53958923 55.81898163 -44.39547627 54.04574385 -48 51 C-48.67289062 50.44957031 -49.34578125 49.89914062 -50.0390625 49.33203125 C-51.7243465 47.91867554 -53.36619421 46.47193102 -55 45 C-54.47321655 44.30233521 -54.47321655 44.30233521 -53.93579102 43.59057617 C-51.10310353 39.82769725 -48.29710163 36.04776363 -45.52734375 32.23828125 C-44.93759766 31.42939453 -44.34785156 30.62050781 -43.74023438 29.78710938 C-42.53147794 28.12785216 -41.32577937 26.46636329 -40.12304688 24.80273438 C-34.52480303 17.14423869 -28.73842768 11.91165761 -20.8125 6.75 C-19.58370117 5.93789063 -19.58370117 5.93789063 -18.33007812 5.109375 C-11.94745277 0.90682332 -7.84683497 -1.10552652 0 0 Z " fill="#989796" transform="translate(481,312)"/>
<path d="M0 0 C31.68 0 63.36 0 96 0 C96 5.28 96 10.56 96 16 C64.32 16 32.64 16 0 16 C0 10.72 0 5.44 0 0 Z " fill="#A2C4ED" transform="translate(136,408)"/>
<path d="M0 0 C29.04 0 58.08 0 88 0 C88 5.28 88 10.56 88 16 C58.96 16 29.92 16 0 16 C0 10.72 0 5.44 0 0 Z " fill="#114998" transform="translate(184,440)"/>
<path d="M0 0 C2.7516951 1.73371737 4.25154822 3.42663874 6.06347656 6.14453125 C6.18847656 8.83203125 6.18847656 8.83203125 6.06347656 11.14453125 C2.31217875 12.69856945 -1.44152587 14.24662748 -5.19750977 15.78930664 C-6.47356761 16.31438075 -7.74896905 16.84105318 -9.02368164 17.36938477 C-10.86136156 18.13071956 -12.70165316 18.88574063 -14.54199219 19.640625 C-15.64696045 20.09622803 -16.75192871 20.55183105 -17.89038086 21.02124023 C-25.64194377 23.87969507 -34.19991092 24.29868866 -41.93652344 21.14453125 C-44.87494498 19.43380638 -47.65425884 17.68172966 -49.93652344 15.14453125 C-49.93652344 13.82453125 -49.93652344 12.50453125 -49.93652344 11.14453125 C-35.73858515 2.56185473 -16.93064346 -7.479195 0 0 Z " fill="#B2B2B2" transform="translate(400.9365234375,456.85546875)"/>
<path d="M0 0 C-0.39832031 0.47308594 -0.79664062 0.94617188 -1.20703125 1.43359375 C-5.17023845 6.38037062 -7.41069915 10.88000569 -9 17 C-9.226875 17.804375 -9.45375 18.60875 -9.6875 19.4375 C-10.57795965 26.73926912 -10.8419147 32.18433868 -6.4296875 38.37890625 C-4.52257389 40.54134382 -2.61045411 41.79517503 0 43 C1.32 43.66 2.64 44.32 4 45 C-0.95 45 -5.9 45 -11 45 C-11 47.64 -11 50.28 -11 53 C-11.90363281 53.06058594 -12.80726562 53.12117188 -13.73828125 53.18359375 C-14.91777344 53.26738281 -16.09726563 53.35117188 -17.3125 53.4375 C-18.48425781 53.51871094 -19.65601562 53.59992188 -20.86328125 53.68359375 C-24.02590958 53.8867371 -24.02590958 53.8867371 -27 55 C-27.11765973 50.72940439 -27.18773631 46.45923403 -27.25 42.1875 C-27.28351563 40.99189453 -27.31703125 39.79628906 -27.3515625 38.56445312 C-27.48425818 26.38962439 -24.54607243 16.86321183 -16 8 C-5.04211013 -1.68070338 -5.04211013 -1.68070338 0 0 Z " fill="#603813" transform="translate(123,19)"/>
<path d="M0 0 C0.93716338 19.52423698 0.93716338 19.52423698 -5.71875 26.90625 C-10.44075951 31.14805515 -14.3416686 32.36334008 -20.65234375 32.28125 C-25.4893984 31.70176924 -28.77482757 29.30990399 -32.08984375 25.765625 C-34.25352847 22.6329281 -34.97545996 20.15098917 -35.75 16.4375 C-35.99234375 15.32246094 -36.2346875 14.20742187 -36.484375 13.05859375 C-37 10 -37 10 -37 6 C-35.96939453 6.23976563 -35.96939453 6.23976563 -34.91796875 6.484375 C-20.71334489 8.99442902 -11.67154057 0 0 0 Z " fill="#F9D0D1" transform="translate(176,120)"/>
<path d="M0 0 C13.07501187 -0.57968033 13.07501187 -0.57968033 19 3 C23.93596926 8.32565105 24.35383044 11.91086113 24.27734375 19.015625 C23.90333603 23.04015882 22.77391295 25.08009163 20 28 C14.94863601 32.16889678 11.37970993 32.52563128 5.125 32.25 C4.34125 32.23195312 3.5575 32.21390625 2.75 32.1953125 C0.83279811 32.14855148 -1.08376715 32.07682003 -3 32 C-2.86287598 31.41299316 -2.72575195 30.82598633 -2.58447266 30.22119141 C-1.13367403 23.58544369 -0.59221437 17.15389857 -0.375 10.375 C-0.33632812 9.37082031 -0.29765625 8.36664063 -0.2578125 7.33203125 C-0.16471378 4.88818995 -0.07889087 2.44433404 0 0 Z " fill="#DA7F7E" transform="translate(192,72)"/>
<path d="M0 0 C1.18851563 0.00902344 2.37703125 0.01804687 3.6015625 0.02734375 C4.51679687 0.03894531 5.43203125 0.05054687 6.375 0.0625 C6.39481934 0.74763672 6.41463867 1.43277344 6.43505859 2.13867188 C6.53104678 5.28029611 6.64042401 8.4213215 6.75 11.5625 C6.7809375 12.64015625 6.811875 13.7178125 6.84375 14.828125 C7.0647109 20.8677228 7.64458256 26.26630501 9.375 32.0625 C6.66557607 32.17111833 3.960561 32.25008577 1.25 32.3125 C0.48945312 32.34601563 -0.27109375 32.37953125 -1.0546875 32.4140625 C-6.42749231 32.50669707 -9.34453904 31.59516959 -13.625 28.0625 C-17.25333663 24.24319828 -17.93500458 21.17970994 -18.125 16.0625 C-17.94185859 10.96611668 -17.23742303 7.87018914 -13.625 4.0625 C-8.80202168 0.7323483 -5.84761815 -0.05732959 0 0 Z " fill="#DA7E7E" transform="translate(105.625,71.9375)"/>
<path d="M0 0 C21.61702128 13.61702128 21.61702128 13.61702128 24 16 C24.14115161 18.67058851 24.04247107 21.32432238 24 24 C16.25065849 19.11852503 8.60180612 14.10767078 1 9 C-1.49491895 11.47836891 -3.9560325 13.95127926 -6.3125 16.5625 C-12.76939927 22.41875748 -19.61460021 24.15484273 -28.16796875 24.09765625 C-29.36018791 24.09553383 -29.36018791 24.09553383 -30.57649231 24.09336853 C-33.11353325 24.08777378 -35.65048575 24.07522228 -38.1875 24.0625 C-39.90820185 24.05748432 -41.62890508 24.05292153 -43.34960938 24.04882812 C-47.5664403 24.03780607 -51.78320516 24.02054506 -56 24 C-56 21.36 -56 18.72 -56 16 C-54.99735107 15.9906543 -53.99470215 15.98130859 -52.96166992 15.97167969 C-49.19089629 15.93137712 -45.42090456 15.86551415 -41.65063477 15.79248047 C-40.02834222 15.76450159 -38.40591919 15.74317397 -36.78344727 15.72900391 C-25.97474572 15.62901592 -16.5489046 15.12865724 -7.125 9.1875 C-4.35488955 6.33591572 -2.22023078 3.29862859 0 0 Z " fill="#F2B2B1" transform="translate(168,48)"/>
<path d="M0 0 C0 2.64 0 5.28 0 8 C-11.95438529 14.18982005 -21.52704539 16.1991077 -35 16 C-36.31626692 12.38026598 -37 9.90432869 -37 6 C-35.96939453 6.23976563 -35.96939453 6.23976563 -34.91796875 6.484375 C-20.71334489 8.99442902 -11.67154057 0 0 0 Z " fill="#F3B3B4" transform="translate(176,120)"/>
<path d="M0 0 C5.28 0 10.56 0 16 0 C16 5.28 16 10.56 16 16 C10.72 16 5.44 16 0 16 C0 10.72 0 5.44 0 0 Z " fill="#A2C4ED" transform="translate(104,408)"/>
<path d="M0 0 C5.28 0 10.56 0 16 0 C16 3.3 16 6.6 16 10 C10.72 9.34 5.44 8.68 0 8 C0 5.36 0 2.72 0 0 Z " fill="#603813" transform="translate(192,64)"/>
<path d="M0 0 C0.66 0.33 1.32 0.66 2 1 C-8.89 11.89 -19.78 22.78 -31 34 C-31.66 33.67 -32.32 33.34 -33 33 C-24.2684314 23.44107465 -15.56979361 13.95274202 -5.73046875 5.5078125 C-3.72531622 3.76065928 -1.84156687 1.91829882 0 0 Z " fill="#6893E3" transform="translate(110,134)"/>
</svg>
