<?xml version="1.0" standalone="no"?>
<!DOCTYPE svg PUBLIC "-//W3C//DTD SVG 20010904//EN"
 "http://www.w3.org/TR/2001/REC-SVG-20010904/DTD/svg10.dtd">
<svg version="1.0" xmlns="http://www.w3.org/2000/svg"
 width="512.000000pt" height="512.000000pt" viewBox="0 0 512.000000 512.000000"
 preserveAspectRatio="xMidYMid meet">

<g transform="translate(0.000000,512.000000) scale(0.100000,-0.100000)"
fill="#000000" stroke="none">
<path d="M1897 5086 c-93 -25 -184 -112 -208 -199 -7 -23 -25 -55 -40 -72 -50
-54 -59 -91 -59 -248 0 -131 -2 -145 -20 -162 -25 -23 -44 -89 -37 -133 9 -50
44 -100 88 -122 21 -11 44 -20 51 -20 7 0 28 -32 46 -71 23 -49 53 -90 98
-135 50 -50 64 -71 64 -94 l0 -30 -882 -2 c-825 -3 -885 -4 -909 -21 -36 -24
-49 -58 -49 -126 0 -112 46 -193 132 -235 52 -25 66 -26 673 -61 341 -20 634
-38 651 -41 l31 -4 12 -268 c6 -147 14 -289 17 -315 6 -48 6 -48 38 -41 17 3
32 8 34 9 2 2 -4 153 -13 337 -12 241 -20 336 -30 343 -7 6 -301 27 -661 49
-357 21 -665 42 -685 47 -44 11 -85 41 -103 77 -21 41 -31 139 -16 157 11 13
126 15 910 15 856 0 898 1 913 18 10 10 17 33 17 51 0 29 2 32 23 25 29 -10
316 -11 345 0 20 7 22 4 22 -31 0 -22 5 -44 12 -51 9 -9 225 -12 909 -12 790
0 898 -2 909 -15 17 -21 7 -117 -17 -158 -25 -42 -75 -75 -126 -82 -23 -3
-331 -22 -685 -43 -516 -31 -645 -41 -653 -53 -5 -8 -9 -48 -9 -89 0 -41 -9
-244 -20 -450 -11 -206 -20 -441 -20 -522 l0 -148 -391 0 -390 0 -33 -25 c-63
-48 -125 -69 -203 -68 l-73 1 0 -97 c0 -71 -38 -1548 -40 -1558 0 -1 -65 -49
-144 -108 -79 -58 -148 -118 -155 -131 -26 -58 -2 -119 57 -143 21 -9 108 -11
308 -9 258 3 281 4 312 23 59 35 72 69 72 182 0 66 28 317 85 759 47 362 87
664 89 669 6 17 14 -39 96 -678 56 -430 80 -649 80 -722 0 -124 12 -160 66
-201 l37 -29 286 -3 c325 -3 343 0 369 69 25 65 3 94 -162 216 l-146 108 0 85
c0 47 -3 176 -7 288 l-6 202 -62 0 c-84 0 -145 23 -205 77 -97 87 -132 209
-94 329 14 47 30 72 78 120 69 69 126 94 213 94 l53 0 0 98 c-1 53 -5 230 -10
392 -7 253 -5 359 15 748 13 249 26 456 29 459 3 3 297 24 653 45 633 38 649
40 701 64 90 44 131 118 132 240 0 84 -19 117 -78 134 -24 6 -339 10 -899 10
l-863 0 0 26 c0 20 17 44 64 89 44 43 75 85 101 139 24 47 44 76 54 76 21 0
79 36 102 63 45 53 46 139 3 203 -22 31 -24 46 -24 141 l0 106 -30 -41 c-33
-46 -89 -87 -147 -108 -35 -12 -36 -13 -10 -14 23 0 27 -4 27 -29 0 -34 15
-49 59 -57 61 -13 100 -91 71 -145 -13 -23 -61 -49 -93 -49 -30 0 -41 -13 -57
-65 -31 -100 -111 -188 -219 -239 -60 -28 -75 -31 -166 -31 -92 0 -106 3 -167
32 -116 54 -176 125 -236 274 -8 21 -19 27 -54 32 -56 7 -88 43 -88 97 0 46
30 79 86 95 l39 11 11 79 c6 44 12 82 13 84 0 3 11 -5 24 -17 12 -11 45 -31
72 -44 47 -22 63 -23 285 -25 213 -2 231 -1 197 12 -131 49 -216 181 -205 318
11 128 102 239 228 278 46 14 -411 9 -463 -5z m5 -4653 c2 -5 1 -73 -2 -151
-7 -198 22 -182 -331 -182 -153 0 -279 2 -279 4 0 2 -3 11 -6 20 -4 10 38 47
149 129 150 112 167 129 167 168 0 18 9 19 149 19 83 0 151 -3 153 -7z m796
-29 c3 -26 22 -45 157 -145 217 -160 223 -153 -125 -157 -199 -2 -281 1 -297
9 -33 18 -43 67 -43 207 l0 123 153 -3 152 -3 3 -31z"/>
<path d="M2388 4990 c-133 -40 -193 -191 -121 -308 31 -53 113 -102 167 -102
118 0 216 95 216 210 0 135 -135 238 -262 200z m106 -95 c83 -39 89 -154 10
-206 -62 -40 -147 -8 -173 66 -12 35 -11 45 2 77 17 41 68 78 105 78 13 0 38
-7 56 -15z"/>
<path d="M1892 4364 c-18 -12 -22 -25 -22 -69 0 -60 16 -85 55 -85 37 0 59 40
52 97 -7 66 -40 89 -85 57z"/>
<path d="M2346 4358 c-23 -33 -21 -103 4 -128 24 -24 38 -25 68 -4 29 20 32
112 4 137 -26 23 -58 21 -76 -5z"/>
<path d="M2085 4107 c-38 -18 -59 -42 -51 -62 7 -19 35 -19 60 0 26 20 91 19
126 -1 32 -19 63 -12 58 12 -9 48 -130 79 -193 51z"/>
<path d="M4000 3248 c-43 -22 -63 -51 -483 -728 -240 -387 -442 -721 -447
-742 -19 -68 16 -146 81 -178 38 -20 58 -20 933 -18 890 3 895 3 923 24 49 37
73 82 73 139 0 50 -7 63 -226 416 -702 1130 -660 1065 -707 1088 -55 27 -92
26 -147 -1z m128 -75 c23 -20 872 -1385 879 -1414 9 -33 -18 -80 -53 -95 -28
-12 -184 -14 -881 -14 -787 0 -850 1 -883 18 -42 20 -59 60 -44 100 15 40 844
1373 871 1400 27 27 82 30 111 5z"/>
<path d="M1595 2581 c-29 -6 -30 -9 -27 -51 2 -25 5 -46 5 -46 1 -1 17 1 35 3
31 5 32 7 32 54 0 27 -3 48 -7 48 -5 -1 -21 -4 -38 -8z"/>
<path d="M1572 2226 c3 -50 4 -51 36 -54 32 -3 32 -3 32 40 0 41 -2 44 -35 54
l-36 11 3 -51z"/>
<path d="M4042 1544 c-21 -14 -22 -23 -22 -133 0 -102 3 -120 18 -134 24 -22
55 -21 75 1 14 15 17 40 17 130 0 99 -2 114 -20 132 -24 24 -38 25 -68 4z"/>
<path d="M2638 1500 c-173 -53 -207 -285 -55 -374 46 -27 113 -42 149 -33 21
6 23 11 20 51 l-4 45 -41 -5 c-54 -7 -102 22 -124 74 -34 81 37 170 125 158
l43 -6 -3 48 -3 47 -40 2 c-22 1 -52 -2 -67 -7z"/>
<path d="M4042 1174 c-21 -14 -22 -23 -22 -134 0 -128 8 -150 54 -150 46 0 56
27 56 148 0 99 -2 114 -20 132 -24 24 -38 25 -68 4z"/>
<path d="M4042 804 c-15 -11 -22 -25 -22 -50 0 -31 -3 -34 -28 -34 -41 0 -72
-26 -72 -60 0 -46 35 -63 116 -58 84 5 94 17 94 110 0 55 -4 72 -20 88 -24 24
-38 25 -68 4z"/>
<path d="M2823 710 c-27 -11 -39 -50 -24 -79 15 -26 58 -34 171 -30 77 3 94 7
106 23 19 27 18 52 -6 76 -17 17 -33 20 -122 19 -57 0 -113 -4 -125 -9z"/>
<path d="M3192 704 c-14 -10 -22 -26 -22 -44 0 -48 29 -60 148 -60 96 0 105 2
127 25 14 13 25 29 25 35 0 6 -11 22 -25 35 -22 23 -31 25 -127 25 -78 0 -109
-4 -126 -16z"/>
<path d="M3573 710 c-43 -17 -41 -84 4 -101 13 -5 68 -9 121 -9 112 0 142 13
142 60 0 48 -29 60 -145 59 -55 0 -110 -4 -122 -9z"/>
</g>
</svg>
