<svg id="accept_4315445" xmlns="http://www.w3.org/2000/svg" width="20" height="20" viewBox="0 0 20 20">
  <path id="Path_5272" data-name="Path 5272" d="M10,0A10,10,0,1,0,20,10,10.009,10.009,0,0,0,10,0Z" fill="#e69186" fill-rule="evenodd"/>
  <path id="Path_5273" data-name="Path 5273" d="M109.934,145.55c-1.277-1.277-2.547-2.566-3.828-3.844a.368.368,0,0,1,0-.516l1.473-1.473a.368.368,0,0,1,.516,0l2.105,2.105,5.414-5.418a.373.373,0,0,1,.52,0l1.477,1.477a.361.361,0,0,1,0,.516l-7.16,7.152A.361.361,0,0,1,109.934,145.55Z" transform="translate(-101.859 -130.976)" fill="#fff"/>
</svg>
