<svg id="invite" xmlns="http://www.w3.org/2000/svg" width="20" height="20" viewBox="0 0 20 20">
  <path id="Path_42642" data-name="Path 42642" d="M18,5a5,5,0,1,0-5,5,5,5,0,0,0,5-5ZM9.667,5A3.333,3.333,0,1,1,13,8.333,3.333,3.333,0,0,1,9.667,5Z" transform="translate(-1.333)" fill="#e57465"/>
  <path id="Path_42643" data-name="Path 42643" d="M14.833,14h-5A5.84,5.84,0,0,0,4,19.833V21.5a.833.833,0,1,0,1.667,0V19.833a4.172,4.172,0,0,1,4.167-4.167h5A4.172,4.172,0,0,1,19,19.833V21.5a.833.833,0,0,0,1.667,0V19.833A5.84,5.84,0,0,0,14.833,14Z" transform="translate(-0.667 -2.333)" fill="#e57465"/>
  <path id="Path_42644" data-name="Path 42644" d="M3.333,7a.833.833,0,0,0-.833.833V9.5H.833a.833.833,0,0,0,0,1.667H2.5v1.667a.833.833,0,1,0,1.667,0V11.167H5.833a.833.833,0,1,0,0-1.667H4.167V7.833A.833.833,0,0,0,3.333,7Z" transform="translate(0 -1.167)" fill="#e57465"/>
</svg>
