<svg xmlns="http://www.w3.org/2000/svg" width="26" height="26" viewBox="0 0 26 26">
  <g id="image-" transform="translate(-1.25 -1.25)">
    <path id="Path_42629" data-name="Path 42629" d="M9.576,11.9A3.326,3.326,0,1,1,12.9,8.576,3.324,3.324,0,0,1,9.576,11.9Zm0-4.837a1.512,1.512,0,1,0,1.512,1.512A1.512,1.512,0,0,0,9.576,7.064Z" transform="translate(1.047 0.837)" fill="#e69186"/>
    <path id="Path_42630" data-name="Path 42630" d="M17.878,27.25H10.622c-6.567,0-9.372-2.806-9.372-9.372V10.622c0-6.567,2.806-9.372,9.372-9.372h4.837a.907.907,0,0,1,0,1.814H10.622c-5.575,0-7.558,1.983-7.558,7.558v7.256c0,5.575,1.983,7.558,7.558,7.558h7.256c5.575,0,7.558-1.983,7.558-7.558V11.831a.907.907,0,1,1,1.814,0v6.047C27.25,24.444,24.444,27.25,17.878,27.25Z" fill="#e69186"/>
    <path id="Path_42631" data-name="Path 42631" d="M18.157,10.318a.914.914,0,0,1-.907-.907V2.156a.9.9,0,0,1,.556-.834.938.938,0,0,1,.992.193l2.419,2.419a.906.906,0,0,1-1.282,1.282l-.871-.871V9.411A.914.914,0,0,1,18.157,10.318Z" transform="translate(3.349 0.001)" fill="#e69186"/>
    <path id="Path_42632" data-name="Path 42632" d="M16.156,5.482a.9.9,0,0,1-.641-.266.912.912,0,0,1,0-1.282l2.419-2.419A.906.906,0,0,1,19.216,2.8L16.8,5.216A.9.9,0,0,1,16.156,5.482Z" transform="translate(2.931 0.001)" fill="#e69186"/>
    <path id="Path_42633" data-name="Path 42633" d="M2.826,21.469a.907.907,0,0,1-.508-1.657l5.962-4a3.632,3.632,0,0,1,4.293.23l.4.351a1.782,1.782,0,0,0,2.225,0l5.031-4.317a3.611,3.611,0,0,1,4.6,0l1.971,1.693a.909.909,0,0,1-1.185,1.379l-1.971-1.693a1.782,1.782,0,0,0-2.225,0l-5.031,4.317a3.611,3.611,0,0,1-4.6,0l-.4-.351a1.8,1.8,0,0,0-2.092-.1l-5.95,4a1.059,1.059,0,0,1-.52.145Z" transform="translate(0.141 2.093)" fill="#e69186"/>
  </g>
</svg>
