<svg xmlns="http://www.w3.org/2000/svg" width="87.148" height="80" viewBox="0 0 87.148 80">
  <g id="Group_1" data-name="Group 1" transform="translate(-167.77 -148.19)">
    <path id="Path_1" data-name="Path 1" d="M187.711,186.406c.451-.212.83-.383,1.2-.564a16.973,16.973,0,0,1,3.28-1.3,11.722,11.722,0,0,1,3.887-.239,10.691,10.691,0,0,1,3.678.968,9.513,9.513,0,0,1,3.35,2.729,10.666,10.666,0,0,1,2.3,4.419,11.5,11.5,0,0,1,.267,2.34c.024,5.191-.007,10.383.025,15.574A1.932,1.932,0,0,1,203.061,212a2.011,2.011,0,0,1-1.26-1.928c.013-2.7,0-5.406,0-8.109,0-2.216.041-4.431-.014-6.645a9.306,9.306,0,0,0-1.293-4.591,5.38,5.38,0,0,0-3.646-2.519,9.652,9.652,0,0,0-4.231,0,5.12,5.12,0,0,0-3.759,3.044,12.376,12.376,0,0,0-1.114,3.431,4.269,4.269,0,0,0-.035.553q0,7.406,0,14.813a1.773,1.773,0,0,1-1.147,1.875,2.048,2.048,0,0,1-2.271-.447,1.553,1.553,0,0,1-.454-1.078c-.016-.2-.013-.41-.013-.615q0-17.7,0-35.392a2.7,2.7,0,0,1,.22-1.311,1.612,1.612,0,0,1,1.534-.966,1.915,1.915,0,0,1,1.8.806,2.215,2.215,0,0,1,.332,1.223v12.258Z" transform="translate(2.215 3.301)" fill="#139491"/>
    <path id="Path_2" data-name="Path 2" d="M210.211,200.244c1.065.848,2.118,1.249,3.276.065.027.271.056.444.06.617a7.785,7.785,0,0,0,1.111,3.946,7.628,7.628,0,0,0,5.512,3.714,7.758,7.758,0,0,0,8.79-6.1,6.468,6.468,0,0,0,.141-1.331q.012-12.486.006-24.974c0-.374,0-.376-.393-.376q-3.689,0-7.379,0a1.74,1.74,0,0,1-1.215-.487,1.73,1.73,0,0,1,1.183-2.977q4.817,0,9.633,0a1.668,1.668,0,0,1,1.639,1.588c.006.156.006.313.006.469,0,8.793.022,17.586-.009,26.379a10.982,10.982,0,0,1-6.192,10.183,9.539,9.539,0,0,1-4.16,1.155,11.052,11.052,0,0,1-10.928-6.18,9.668,9.668,0,0,1-1.163-4.306c-.015-.366,0-.735,0-1.1a1.349,1.349,0,0,1,.077-.279" transform="translate(5.843 3.331)" fill="#139491"/>
    <path id="Path_3" data-name="Path 3" d="M254.2,226.747h-3.191V183.289a6.6,6.6,0,0,0-2.583-4.99L220.5,154.8c-4.256-3.581-11.789-3.622-16.12-.09L174.371,179.2a6.636,6.636,0,0,0-2.692,5.081V228.16h-2.267a1.642,1.642,0,0,1-1.642-1.642V184.283a10.461,10.461,0,0,1,4.131-8.109l30.012-24.491c5.768-4.707,15.434-4.647,21.109.129l27.921,23.5a10.433,10.433,0,0,1,3.975,7.981v42.74a.718.718,0,0,1-.718.718" transform="translate(0)" fill="#e69186"/>
    <path id="Path_4" data-name="Path 4" d="M197.661,218.965h-27.9a1.929,1.929,0,0,1-1.954-1.925,1.98,1.98,0,0,1,1.954-1.983h27.9a1.954,1.954,0,1,1,0,3.909" transform="translate(0.006 9.225)" fill="#e69186"/>
    <path id="Path_5" data-name="Path 5" d="M246.706,218.965H215.043a1.954,1.954,0,1,1,0-3.909h31.663a1.954,1.954,0,1,1,0,3.909" transform="translate(6.253 9.225)" fill="#e69186"/>
    <path id="Path_6" data-name="Path 6" d="M211.95,199.269a1.276,1.276,0,0,1-.421-.067,1.3,1.3,0,0,1-.074-2.434l.364-.283c.345-.266.69-.534,1.023-.815a18.421,18.421,0,0,0,2.773-2.844,7.25,7.25,0,0,0,1.136-1.968,2.366,2.366,0,0,0,.112-1.366,1.864,1.864,0,0,0-.757-1.039,1.974,1.974,0,0,0-1.036-.44,2.31,2.31,0,0,0-1.113.17,4.864,4.864,0,0,0-1.179.677,1.654,1.654,0,0,1-1.681.168l.866-1.247-.756-1a7.461,7.461,0,0,1,1.809-1.026,4.979,4.979,0,0,1,2.316-.333,4.575,4.575,0,0,1,2.373.976A4.43,4.43,0,0,1,219.4,188.9a4.964,4.964,0,0,1-.2,2.835,9.77,9.77,0,0,1-1.523,2.675,20.917,20.917,0,0,1-3.16,3.25c-.362.3-.734.594-1.108.883l-.545.426a1.531,1.531,0,0,1-.918.3" transform="translate(5.916 5.133)" fill="#e69186"/>
    <path id="Path_7" data-name="Path 7" d="M212.555,199.225c-.1.1-.861-.239-.978-.321a24.849,24.849,0,0,1-5.012-4.484,8.929,8.929,0,0,1-1.586-2.875,6.62,6.62,0,0,1-.178-.783l-.049-.261a1.176,1.176,0,0,1-.046-.332v-.438a1.323,1.323,0,0,1,.017-.212c.042-.271.065-.421.1-.569a4.544,4.544,0,0,1,1.828-2.642,4.484,4.484,0,0,1,3.178-.892,5.6,5.6,0,0,1,2.324.782c.206.121.4.249.6.38l.189.123a1.305,1.305,0,0,1,.384,1.8,1.137,1.137,0,0,1-1.641.438l-.365-.189c-.159-.106-.319-.211-.48-.306a3.046,3.046,0,0,0-1.253-.437,1.93,1.93,0,0,0-1.388.4,1.961,1.961,0,0,0-.835,1.135c-.017.079-.031.164-.043.25l-.006.225,0,.013.052.273a3.808,3.808,0,0,0,.1.471,6.4,6.4,0,0,0,1.154,2.045,21.414,21.414,0,0,0,4.329,4.081l-.718,1.072s.555,1.03.322,1.253" transform="translate(5.096 5.133)" fill="#e69186"/>
  </g>
</svg>
