<svg width="29" height="29" viewBox="0 0 29 29" fill="none" xmlns="http://www.w3.org/2000/svg">
<path fill-rule="evenodd" clip-rule="evenodd" d="M21.6145 15.3463C21.5814 12.045 24.3064 10.4616 24.428 10.382C22.8969 8.14262 20.5111 7.83534 19.6617 7.80073C17.6334 7.59428 15.7014 8.99562 14.672 8.99562C13.6451 8.99562 12.055 7.83075 10.3728 7.86021C8.1593 7.89334 6.11967 9.1477 4.98057 11.129C2.68226 15.1158 4.39292 21.0247 6.63232 24.2608C7.72741 25.8422 9.03304 27.6222 10.7458 27.557C12.397 27.4918 13.0204 26.4889 15.016 26.4889C17.0117 26.4889 17.5725 27.557 19.3189 27.5235C21.0941 27.4913 22.2198 25.9115 23.3061 24.3235C24.5627 22.4861 25.0804 20.7071 25.1109 20.6166C25.0725 20.5989 21.6501 19.2876 21.6145 15.3463ZM18.3328 5.65909C19.2412 4.55624 19.8567 3.02355 19.6896 1.49805C18.3783 1.55129 16.7913 2.36969 15.8503 3.47152C15.0071 4.44919 14.2695 6.00568 14.4671 7.50371C15.9294 7.61705 17.4213 6.7599 18.3328 5.65909Z" fill="#1B1B1B"/>
</svg>
