<svg width="35" height="39" viewBox="0 0 35 39" fill="none" xmlns="http://www.w3.org/2000/svg">
<path d="M18.5421 13.975C18.5421 13.975 16.8817 21.8968 21.0212 22.4248C25.1608 22.9528 25.0132 18.8763 25.0132 18.8763L24.0603 14.8168L18.5421 13.975Z" fill="#383333"/>
<path d="M26.6043 13.5493C26.6043 13.5493 26.9447 16.2968 27.7065 17.4052C29.2176 19.6017 31.246 18.7972 32.3714 20.3777C34.2211 22.975 30.1189 26.7848 30.8603 33.2425C31.0132 34.5463 31.3421 35.8234 31.838 37.0389C30.3527 37.3945 28.6576 37.6567 26.7909 37.8691C23.9519 38.1918 20.4799 38.3296 17.9572 37.59C18.0185 36.5936 18.103 35.1083 18.1759 33.3038C18.3625 28.6994 18.4105 26.0559 18.4105 26.0559C18.4994 21.0221 18.3652 19.8666 19.3572 19.0177C20.5679 17.9804 22.1519 18.5226 22.7154 17.3164V14.5217L26.6043 13.5493Z" fill="#FFB08D"/>
<path d="M18.4123 26.0559C18.3812 27.7643 18.3537 29.6114 18.1777 33.3038C18.0568 35.8478 17.8648 37.8958 17.7332 39.1642C22.6028 40.5667 27.8122 40.1953 32.4336 38.1163C31.6911 36.5489 31.2262 34.8647 31.0594 33.1385C30.494 26.9963 34.198 23.183 32.374 20.3759C31.9171 19.6728 30.9669 18.8115 28.7367 18.455C27.9731 19.758 26.9607 20.8981 25.7572 21.8106C25.1742 22.2502 24.55 22.6321 23.8932 22.951C23.703 22.631 23.5172 22.2888 23.3385 21.9234C22.7291 20.6756 22.2982 19.3482 22.0585 17.9804C21.7376 18.0461 21.303 18.2159 20.7616 18.3528C20.2896 18.4728 19.7999 18.6408 19.359 19.0186C18.367 19.8666 18.5048 21.0221 18.4123 26.0559Z" fill="#AAEEEA"/>
<path d="M23.271 24.3803C23.254 24.3804 23.2373 24.3755 23.223 24.3664C23.2086 24.3572 23.1972 24.3442 23.1901 24.3288L20.9412 19.3937C20.9314 19.3721 20.9306 19.3475 20.9389 19.3254C20.9473 19.3032 20.9641 19.2852 20.9856 19.2755C21.0072 19.2657 21.0318 19.2649 21.054 19.2732C21.0761 19.2815 21.0941 19.2983 21.1039 19.3199L23.3181 24.1794C23.9065 23.959 27.7705 22.3937 29.606 18.8372C29.6106 18.8257 29.6175 18.8152 29.6264 18.8065C29.6352 18.7978 29.6458 18.7911 29.6574 18.7867C29.669 18.7823 29.6814 18.7804 29.6938 18.7811C29.7062 18.7818 29.7183 18.7851 29.7294 18.7908C29.7404 18.7965 29.7501 18.8044 29.7579 18.8141C29.7657 18.8237 29.7714 18.8349 29.7746 18.8469C29.7778 18.8589 29.7785 18.8715 29.7765 18.8837C29.7746 18.896 29.7701 18.9077 29.7634 18.9181C27.7509 22.8194 23.3447 24.3608 23.3003 24.3759C23.2908 24.3786 23.2809 24.3801 23.271 24.3803Z" fill="#00CCC1"/>
<path d="M0 14.6773V14.855C0 14.94 0.0688479 15.0088 0.153777 15.0088H2.44621C2.53114 15.0088 2.59999 14.94 2.59999 14.855V14.6773C2.59999 14.5923 2.53114 14.5235 2.44621 14.5235H0.153777C0.0688479 14.5235 0 14.5923 0 14.6773Z" fill="#FFB833"/>
<path d="M1.21068 16.0657H1.38846C1.47339 16.0657 1.54224 15.9968 1.54224 15.9119V13.6195C1.54224 13.5346 1.47339 13.4657 1.38846 13.4657H1.21068C1.12575 13.4657 1.0569 13.5346 1.0569 13.6195V15.9119C1.0569 15.9968 1.12575 16.0657 1.21068 16.0657Z" fill="#FFB833"/>
<path d="M11.2666 0.994663V1.07377C11.2666 1.1587 11.3354 1.22755 11.4204 1.22755H13.1821C13.2671 1.22755 13.3359 1.1587 13.3359 1.07377V0.994663C13.3359 0.909735 13.2671 0.840885 13.1821 0.840885H11.4204C11.3354 0.840885 11.2666 0.909735 11.2666 0.994663Z" fill="#FFB833"/>
<path d="M12.2613 2.06932H12.3404C12.4253 2.06932 12.4941 2.00048 12.4941 1.91555V0.153779C12.4941 0.0688498 12.4253 1.66893e-06 12.3404 1.66893e-06H12.2613C12.1763 1.66893e-06 12.1075 0.0688498 12.1075 0.153779V1.91555C12.1075 2.00048 12.1763 2.06932 12.2613 2.06932Z" fill="#FFB833"/>
<path d="M31.9314 7.94218V8.02129C31.9314 8.10622 32.0002 8.17507 32.0852 8.17507H33.8469C33.9319 8.17507 34.0007 8.10622 34.0007 8.02129V7.94218C34.0007 7.85725 33.9319 7.7884 33.8469 7.7884H32.0852C32.0002 7.7884 31.9314 7.85725 31.9314 7.94218Z" fill="#FFB833"/>
<path d="M32.926 9.01596H33.0052C33.0901 9.01596 33.1589 8.94711 33.1589 8.86218V7.10042C33.1589 7.01549 33.0901 6.94664 33.0052 6.94664H32.926C32.8411 6.94664 32.7723 7.01549 32.7723 7.10042V8.86218C32.7723 8.94711 32.8411 9.01596 32.926 9.01596Z" fill="#FFB833"/>
<path d="M12.7644 3.35021H3.28445C2.32225 3.35021 1.54224 4.13022 1.54224 5.09242V10.7653C1.54224 11.7275 2.32225 12.5075 3.28445 12.5075H12.7644C13.7266 12.5075 14.5066 11.7275 14.5066 10.7653V5.09242C14.5066 4.13022 13.7266 3.35021 12.7644 3.35021Z" fill="#FFB833"/>
<path d="M10.7573 11.8417C10.7573 11.8417 10.9937 14.4195 12.8701 14.3884C13.0106 14.3884 13.087 14.1217 12.999 13.9377C12.8017 13.5288 12.5795 12.7564 12.6159 11.3857L10.7573 11.8417Z" fill="#FFB833"/>
<path d="M23.5101 16.4213C26.9706 16.4213 29.7759 13.616 29.7759 10.1555C29.7759 6.69503 26.9706 3.88976 23.5101 3.88976C20.0497 3.88976 17.2444 6.69503 17.2444 10.1555C17.2444 13.616 20.0497 16.4213 23.5101 16.4213Z" fill="#FFB08D"/>
<path d="M26.7563 15.5155C26.7563 15.5155 23.9012 18.2275 20.2017 16.5661C16.5021 14.9048 17.3226 7.62929 17.3226 7.62929C17.3226 7.62929 19.4932 3.97509 22.5003 4.37331C25.5074 4.77153 26.1332 9.85595 26.1332 9.85595L26.7563 15.5155Z" fill="#FFB08D"/>
<path d="M24.6346 9.38662C24.3267 9.15254 23.9543 9.01879 23.5679 9.00351C23.3057 8.99018 22.9501 8.97151 22.8355 9.17417C22.8097 9.21811 22.7961 9.26812 22.7961 9.31906C22.7961 9.37 22.8097 9.42002 22.8355 9.46395C22.9546 9.63284 23.2675 9.4924 23.7679 9.50128C24.4266 9.51373 24.847 9.77595 24.8932 9.67906C24.9226 9.61506 24.7163 9.45151 24.6346 9.38662Z" fill="#383333"/>
<path d="M17.8773 9.63106C18.1628 9.36874 18.5222 9.20082 18.9066 9.15018C19.1661 9.11195 19.5181 9.06129 19.6515 9.25151C19.6813 9.29287 19.6996 9.34144 19.7044 9.39221C19.7093 9.44299 19.7005 9.49414 19.679 9.5404C19.5768 9.71817 19.2524 9.60795 18.7546 9.66395C18.1004 9.73773 17.7057 10.0373 17.6515 9.94928C17.6124 9.88528 17.8026 9.70306 17.8773 9.63106Z" fill="#383333"/>
<path d="M21.2754 12.1644C21.0088 12.1644 20.5963 12.1368 20.5323 11.9715C20.4497 11.7537 20.8932 10.7884 20.9448 10.6791C20.9505 10.6698 20.9594 10.663 20.9699 10.6598C20.9803 10.6567 20.9915 10.6575 21.0014 10.6621C21.0112 10.6668 21.0191 10.6748 21.0234 10.6848C21.0277 10.6948 21.0282 10.7061 21.0248 10.7164C20.839 11.1164 20.5626 11.8026 20.6159 11.9395C20.6621 12.0604 21.1492 12.0888 21.4817 12.0702C21.4875 12.0699 21.4933 12.0707 21.4988 12.0727C21.5043 12.0747 21.5094 12.0777 21.5137 12.0816C21.5181 12.0855 21.5216 12.0903 21.5241 12.0955C21.5266 12.1008 21.528 12.1065 21.5283 12.1124C21.5286 12.1182 21.5278 12.1241 21.5258 12.1296C21.5238 12.1351 21.5208 12.1401 21.5169 12.1445C21.513 12.1488 21.5082 12.1523 21.5029 12.1548C21.4977 12.1573 21.4919 12.1588 21.4861 12.1591C21.4488 12.1617 21.3705 12.1644 21.2754 12.1644Z" fill="#383333"/>
<path d="M25.3429 12.2978C25.3457 12.047 25.0212 11.84 24.6181 11.8356C24.2151 11.8311 23.8861 12.0309 23.8834 12.2818C23.8806 12.5326 24.2051 12.7396 24.6081 12.744C25.0112 12.7485 25.3401 12.5487 25.3429 12.2978Z" fill="#FF8C5F"/>
<path d="M19.4352 12.6681C19.438 12.4173 19.1135 12.2103 18.7105 12.2059C18.3074 12.2014 17.9785 12.4012 17.9757 12.6521C17.9729 12.9029 18.2974 13.1099 18.7005 13.1143C19.1035 13.1187 19.4325 12.919 19.4352 12.6681Z" fill="#FF8C5F"/>
<path d="M26.9892 9.95728C27.0443 9.8844 27.3448 9.5004 27.8514 9.45862C27.9252 9.4524 28.2212 9.4284 28.447 9.58218C29.0319 9.98128 29.0692 11.5208 28.2487 12.0462C27.7892 12.3395 27.2319 12.2062 27.0425 12.1519L26.9892 9.95728Z" fill="#FFB08D"/>
<path d="M27.8185 11.6328C27.8123 11.633 27.8061 11.6314 27.8007 11.6282C27.7953 11.625 27.791 11.6203 27.7882 11.6147C27.7854 11.6091 27.7843 11.6028 27.7849 11.5966C27.7856 11.5903 27.788 11.5844 27.7919 11.5795C27.9696 11.3502 28.0274 11.1351 27.975 10.936C27.8861 10.592 27.4754 10.4142 27.4719 10.4124C27.4646 10.4099 27.4585 10.405 27.4544 10.3985C27.4504 10.392 27.4488 10.3843 27.4498 10.3767C27.4509 10.3691 27.4546 10.3622 27.4602 10.357C27.4658 10.3518 27.4731 10.3488 27.4808 10.3484L28.3385 10.2595C28.3429 10.259 28.3472 10.2594 28.3514 10.2607C28.3556 10.2619 28.3594 10.2639 28.3628 10.2666C28.3662 10.2694 28.369 10.2727 28.3711 10.2765C28.3732 10.2803 28.3745 10.2845 28.375 10.2888C28.3754 10.2932 28.3751 10.2975 28.3738 10.3017C28.3726 10.3059 28.3706 10.3098 28.3679 10.3131C28.3651 10.3165 28.3618 10.3193 28.358 10.3214C28.3541 10.3235 28.35 10.3248 28.3456 10.3253L27.5981 10.4062C27.735 10.4862 27.9688 10.656 28.0425 10.9217C28.1003 11.1404 28.0345 11.3768 27.8479 11.6231C27.8442 11.627 27.8395 11.6299 27.8344 11.6316C27.8293 11.6333 27.8238 11.6337 27.8185 11.6328Z" fill="#383333"/>
<path d="M21.5448 14.3155C21.4004 14.3148 21.2593 14.2732 21.1377 14.1955C21.1316 14.1901 21.1277 14.1828 21.1266 14.1747C21.1255 14.1667 21.1273 14.1586 21.1317 14.1518C21.1362 14.145 21.1429 14.14 21.1506 14.1378C21.1584 14.1355 21.1667 14.1361 21.1741 14.1395C21.2971 14.2188 21.4423 14.2565 21.5883 14.247C21.7496 14.235 21.9018 14.1679 22.0194 14.0568C22.0257 14.0507 22.0342 14.0473 22.043 14.0473C22.0518 14.0473 22.0602 14.0507 22.0665 14.0568C22.0725 14.0632 22.0758 14.0716 22.0758 14.0804C22.0758 14.0891 22.0725 14.0975 22.0665 14.1039C21.9384 14.2271 21.771 14.301 21.5937 14.3128C21.5774 14.3146 21.5611 14.3155 21.5448 14.3155Z" fill="#383333"/>
<path d="M21.047 17.4924H2.34579C1.49601 17.4924 0.807129 18.1812 0.807129 19.031V34.0203C0.807129 34.8701 1.49601 35.5589 2.34579 35.5589H21.047C21.8968 35.5589 22.5857 34.8701 22.5857 34.0203V19.031C22.5857 18.1812 21.8968 17.4924 21.047 17.4924Z" fill="#AAEEEA"/>
<mask id="mask0_2_1459" style="mask-type:luminance" maskUnits="userSpaceOnUse" x="0" y="17" width="23" height="19">
<path d="M21.047 17.4924H2.34579C1.49601 17.4924 0.807129 18.1812 0.807129 19.031V34.0203C0.807129 34.8701 1.49601 35.5589 2.34579 35.5589H21.047C21.8968 35.5589 22.5857 34.8701 22.5857 34.0203V19.031C22.5857 18.1812 21.8968 17.4924 21.047 17.4924Z" fill="white"/>
</mask>
<g mask="url(#mask0_2_1459)">
<path d="M21.047 17.4924H2.34579C1.49601 17.4924 0.807129 18.1812 0.807129 19.031V34.0203C0.807129 34.8701 1.49601 35.5589 2.34579 35.5589H21.047C21.8968 35.5589 22.5857 34.8701 22.5857 34.0203V19.031C22.5857 18.1812 21.8968 17.4924 21.047 17.4924Z" fill="#FF8D93"/>
<path d="M0.208008 16.2399H23.4594V21.5092H0.208008V16.2399Z" fill="#FF535C"/>
</g>
<path d="M5.78132 23.1892H3.90133C3.49239 23.1892 3.16089 23.5207 3.16089 23.9297V25.2452C3.16089 25.6541 3.49239 25.9856 3.90133 25.9856H5.78132C6.19025 25.9856 6.52176 25.6541 6.52176 25.2452V23.9297C6.52176 23.5207 6.19025 23.1892 5.78132 23.1892Z" fill="#FF535C"/>
<path d="M10.3519 23.1892H8.47195C8.06301 23.1892 7.73151 23.5207 7.73151 23.9297V25.2452C7.73151 25.6541 8.06301 25.9856 8.47195 25.9856H10.3519C10.7609 25.9856 11.0924 25.6541 11.0924 25.2452V23.9297C11.0924 23.5207 10.7609 23.1892 10.3519 23.1892Z" fill="#FF535C"/>
<path d="M14.9217 23.1892H13.0417C12.6328 23.1892 12.3013 23.5207 12.3013 23.9297V25.2452C12.3013 25.6541 12.6328 25.9856 13.0417 25.9856H14.9217C15.3306 25.9856 15.6621 25.6541 15.6621 25.2452V23.9297C15.6621 23.5207 15.3306 23.1892 14.9217 23.1892Z" fill="#FF535C"/>
<path d="M19.4923 23.1892H17.6123C17.2034 23.1892 16.8719 23.5207 16.8719 23.9297V25.2452C16.8719 25.6541 17.2034 25.9856 17.6123 25.9856H19.4923C19.9013 25.9856 20.2328 25.6541 20.2328 25.2452V23.9297C20.2328 23.5207 19.9013 23.1892 19.4923 23.1892Z" fill="#FF535C"/>
<path d="M5.78132 27.2203H3.90133C3.49239 27.2203 3.16089 27.5518 3.16089 27.9607V29.2763C3.16089 29.6852 3.49239 30.0167 3.90133 30.0167H5.78132C6.19025 30.0167 6.52176 29.6852 6.52176 29.2763V27.9607C6.52176 27.5518 6.19025 27.2203 5.78132 27.2203Z" fill="#FF535C"/>
<path d="M10.3519 27.2203H8.47195C8.06301 27.2203 7.73151 27.5518 7.73151 27.9607V29.2763C7.73151 29.6852 8.06301 30.0167 8.47195 30.0167H10.3519C10.7609 30.0167 11.0924 29.6852 11.0924 29.2763V27.9607C11.0924 27.5518 10.7609 27.2203 10.3519 27.2203Z" fill="#FF535C"/>
<path d="M14.9217 27.2203H13.0417C12.6328 27.2203 12.3013 27.5518 12.3013 27.9607V29.2763C12.3013 29.6852 12.6328 30.0167 13.0417 30.0167H14.9217C15.3306 30.0167 15.6621 29.6852 15.6621 29.2763V27.9607C15.6621 27.5518 15.3306 27.2203 14.9217 27.2203Z" fill="#FFB833"/>
<path d="M19.4923 27.2203H17.6123C17.2034 27.2203 16.8719 27.5518 16.8719 27.9607V29.2763C16.8719 29.6852 17.2034 30.0167 17.6123 30.0167H19.4923C19.9013 30.0167 20.2328 29.6852 20.2328 29.2763V27.9607C20.2328 27.5518 19.9013 27.2203 19.4923 27.2203Z" fill="#FF535C"/>
<path d="M5.78132 31.2514H3.90133C3.49239 31.2514 3.16089 31.5829 3.16089 31.9918V33.3074C3.16089 33.7163 3.49239 34.0478 3.90133 34.0478H5.78132C6.19025 34.0478 6.52176 33.7163 6.52176 33.3074V31.9918C6.52176 31.5829 6.19025 31.2514 5.78132 31.2514Z" fill="#FF535C"/>
<path d="M10.3519 31.2514H8.47195C8.06301 31.2514 7.73151 31.5829 7.73151 31.9918V33.3074C7.73151 33.7163 8.06301 34.0478 8.47195 34.0478H10.3519C10.7609 34.0478 11.0924 33.7163 11.0924 33.3074V31.9918C11.0924 31.5829 10.7609 31.2514 10.3519 31.2514Z" fill="#FF535C"/>
<path d="M14.9217 31.2514H13.0417C12.6328 31.2514 12.3013 31.5829 12.3013 31.9918V33.3074C12.3013 33.7163 12.6328 34.0478 13.0417 34.0478H14.9217C15.3306 34.0478 15.6621 33.7163 15.6621 33.3074V31.9918C15.6621 31.5829 15.3306 31.2514 14.9217 31.2514Z" fill="#FF535C"/>
<path d="M19.4923 31.2514H17.6123C17.2034 31.2514 16.8719 31.5829 16.8719 31.9918V33.3074C16.8719 33.7163 17.2034 34.0478 17.6123 34.0478H19.4923C19.9013 34.0478 20.2328 33.7163 20.2328 33.3074V31.9918C20.2328 31.5829 19.9013 31.2514 19.4923 31.2514Z" fill="#FF535C"/>
<path d="M4.46578 16.3697H4.30489C4.09723 16.3697 3.92889 16.538 3.92889 16.7457V19.6523C3.92889 19.86 4.09723 20.0283 4.30489 20.0283H4.46578C4.67344 20.0283 4.84178 19.86 4.84178 19.6523V16.7457C4.84178 16.538 4.67344 16.3697 4.46578 16.3697Z" fill="#FFB833"/>
<path d="M19.0888 16.3697H18.9279C18.7202 16.3697 18.5519 16.538 18.5519 16.7457V19.6523C18.5519 19.86 18.7202 20.0283 18.9279 20.0283H19.0888C19.2964 20.0283 19.4648 19.86 19.4648 19.6523V16.7457C19.4648 16.538 19.2964 16.3697 19.0888 16.3697Z" fill="#FFB833"/>
<path fill-rule="evenodd" clip-rule="evenodd" d="M23.927 11.3573C23.8574 11.4368 23.7657 11.4938 23.6636 11.5211C23.5615 11.5485 23.4536 11.5448 23.3536 11.5107C23.2535 11.4766 23.1659 11.4135 23.1018 11.3295C23.0377 11.2454 23 11.1443 22.9934 11.0388C22.9869 10.9333 23.0119 10.8282 23.0652 10.737C23.1185 10.6457 23.1977 10.5723 23.2928 10.5262C23.3879 10.48 23.4946 10.4631 23.5992 10.4777C23.7039 10.4923 23.8019 10.5376 23.8808 10.6079C23.9857 10.7015 24.0494 10.8328 24.0581 10.9731C24.0667 11.1134 24.0196 11.2515 23.927 11.3573Z" fill="#383333"/>
<path fill-rule="evenodd" clip-rule="evenodd" d="M24.4088 10.6506C24.3972 10.6408 24.2932 10.8213 24.1599 10.8079C24.0612 10.7982 24.0363 10.6906 23.9101 10.5955C23.8012 10.5169 23.6702 10.4748 23.5359 10.4755C23.5926 10.5881 23.6647 10.6922 23.7501 10.7848C23.871 10.9164 23.9492 11.0017 24.0559 11.0026C24.271 11.0062 24.4265 10.6639 24.4088 10.6506Z" fill="#383333"/>
<path fill-rule="evenodd" clip-rule="evenodd" d="M18.9154 11.5439C18.8411 11.6191 18.7461 11.6705 18.6425 11.6915C18.5388 11.7125 18.4313 11.7023 18.3335 11.6621C18.2358 11.6219 18.1521 11.5535 18.0933 11.4657C18.0344 11.3779 18.003 11.2746 18.003 11.1688C18.003 11.0631 18.0344 10.9598 18.0933 10.8719C18.1521 10.7841 18.2358 10.7158 18.3335 10.6756C18.4313 10.6354 18.5388 10.6251 18.6425 10.6462C18.7461 10.6672 18.8411 10.7186 18.9154 10.7937C19.0142 10.8936 19.0697 11.0284 19.0697 11.1688C19.0697 11.3093 19.0142 11.4441 18.9154 11.5439Z" fill="#383333"/>
<path fill-rule="evenodd" clip-rule="evenodd" d="M17.6399 10.8737C17.6515 10.8631 17.767 11.0364 17.8995 11.0151C17.9972 10.9982 18.015 10.8888 18.1341 10.7857C18.2378 10.7001 18.3661 10.6496 18.5003 10.6417C18.451 10.7577 18.3858 10.8663 18.3066 10.9644C18.1946 11.1039 18.1217 11.1937 18.0159 11.2017C17.8017 11.2195 17.6257 10.8879 17.6399 10.8737Z" fill="#383333"/>
<path d="M13.7457 17.1893C13.7457 17.1893 13.4968 16.599 12.9164 17.0621C12.9164 17.0621 12.6497 16.6399 12.1688 17.0986C12.1688 17.0986 11.7368 16.743 11.4079 17.1679C11.2923 17.1084 11.1609 17.0865 11.0323 17.1055C10.9036 17.1245 10.7841 17.1833 10.6906 17.2737C10.3555 17.5937 9.97505 18.0924 10.0942 18.4141C10.2133 18.7359 10.9484 17.8986 10.9484 17.8986C10.9484 17.8986 10.4675 18.7875 10.8124 18.8844C11.1573 18.9812 11.831 17.871 11.831 17.871C11.831 17.871 11.3084 18.9021 11.5262 19.0497C11.7439 19.1972 12.415 18.6337 12.7546 17.9208C12.7546 17.9208 12.231 18.9661 12.6462 19.0239C13.0613 19.0817 13.7688 17.959 13.7457 17.1893Z" fill="#FFB08D"/>
<path d="M12.7546 17.9546C12.7499 17.9555 12.7451 17.9555 12.7404 17.9546C12.7364 17.9529 12.7328 17.9503 12.7298 17.9472C12.7268 17.944 12.7245 17.9403 12.723 17.9362C12.7215 17.9322 12.7209 17.9278 12.7211 17.9235C12.7213 17.9192 12.7225 17.9149 12.7244 17.911C12.8026 17.7386 12.8826 17.0684 12.8835 17.0621C12.8846 17.0534 12.889 17.0455 12.896 17.0401C12.9029 17.0346 12.9117 17.0322 12.9204 17.0333C12.9291 17.0343 12.937 17.0388 12.9425 17.0457C12.9479 17.0526 12.9503 17.0614 12.9493 17.0701C12.9493 17.0977 12.8675 17.7573 12.7848 17.9386C12.7816 17.9436 12.7771 17.9478 12.7718 17.9506C12.7665 17.9534 12.7606 17.9548 12.7546 17.9546Z" fill="#383333"/>
<path d="M11.8311 17.9039C11.8245 17.9038 11.8181 17.902 11.8124 17.8986C11.8051 17.8937 11.7999 17.8861 11.7981 17.8775C11.7963 17.8688 11.7979 17.8598 11.8026 17.8524C11.9617 17.6097 12.136 17.0932 12.1377 17.0879C12.1391 17.0837 12.1412 17.0799 12.144 17.0765C12.1468 17.0732 12.1503 17.0705 12.1542 17.0685C12.158 17.0665 12.1623 17.0653 12.1666 17.065C12.171 17.0647 12.1754 17.0652 12.1795 17.0666C12.188 17.0694 12.195 17.0755 12.199 17.0835C12.203 17.0915 12.2037 17.1008 12.2009 17.1092C12.1119 17.3794 11.9973 17.6404 11.8586 17.8888C11.8557 17.8934 11.8516 17.8972 11.8468 17.8999C11.842 17.9025 11.8366 17.9039 11.8311 17.9039Z" fill="#383333"/>
<path d="M10.9484 17.9315C10.9441 17.9316 10.9399 17.9309 10.9359 17.9294C10.9319 17.9279 10.9283 17.9256 10.9253 17.9226C10.9191 17.9163 10.9157 17.9078 10.9157 17.899C10.9157 17.8902 10.9191 17.8818 10.9253 17.8755C11.1271 17.6639 11.3777 17.1581 11.3795 17.1528C11.3837 17.1449 11.3907 17.139 11.3991 17.1362C11.4076 17.1334 11.4168 17.1339 11.4248 17.1377C11.4326 17.1417 11.4386 17.1486 11.4414 17.1569C11.4442 17.1651 11.4437 17.1742 11.4399 17.1821C11.4293 17.2035 11.1822 17.703 10.9742 17.9217C10.9707 17.9249 10.9667 17.9275 10.9623 17.9292C10.9578 17.9309 10.9531 17.9316 10.9484 17.9315Z" fill="#383333"/>
<path d="M20.727 28.8621C19.8517 28.8723 18.9807 28.9866 18.1324 29.2025C18.1324 29.2025 16.6408 29.5865 16.5146 30.0603C16.4417 30.3314 17.4497 30.1039 17.4497 30.1039C17.0228 30.5343 16.5331 30.8975 15.9973 31.1812C15.1839 31.5874 14.4568 31.7323 14.4986 32.1243C14.5404 32.5163 16.7466 32.6416 18.0053 32.231C19.2639 31.8203 20.3848 31.2896 21.407 31.2345C21.4964 30.9043 21.5137 30.5587 21.4577 30.2212C21.3661 29.7015 21.11 29.2251 20.727 28.8621Z" fill="#FFB08D"/>
<path d="M19.8754 28.9225C19.8754 28.9225 20.5332 28.7225 22.0976 29.0336L23.663 29.3456L23.3963 30.4247L22.8736 31.5181C22.8736 31.5181 20.8488 31.2256 19.8381 31.5856C19.8363 31.5856 19.1003 29.7136 19.8754 28.9225Z" fill="#FFB08D"/>
<path d="M31.2612 19.5003C31.5674 19.5874 31.8524 19.7365 32.0985 19.9386C32.5891 20.3483 33.3643 21.3714 32.7207 25.2719C32.1225 28.9101 31.5963 32.1056 29.3065 33.0594C28.8265 33.2594 28.3554 33.326 26.2247 33.1012C23.9838 32.8668 21.758 32.5053 19.5581 32.0185C19.7537 30.8861 19.9495 29.7536 20.1457 28.6212C20.1457 28.6212 25.055 29.4016 26.3874 28.6212C27.7198 27.8407 29.5874 21.9821 29.5874 21.9821L31.2612 19.5003Z" fill="#AAEEEA"/>
<path d="M29.4541 29.9359C29.447 29.9362 29.4399 29.9346 29.4336 29.9314C28.8495 29.6346 28.2304 29.4122 27.591 29.2692C27.0866 29.1604 26.5734 29.0979 26.0577 29.0825C24.943 29.0247 23.7803 28.9856 22.6026 28.9679C22.5967 28.9679 22.5909 28.9667 22.5855 28.9644C22.5801 28.9621 22.5752 28.9587 22.5711 28.9545C22.567 28.9502 22.5639 28.9452 22.5618 28.9397C22.5597 28.9342 22.5588 28.9284 22.559 28.9225C22.5586 28.9165 22.5595 28.9105 22.5616 28.9049C22.5638 28.8993 22.5671 28.8943 22.5715 28.8901C22.5758 28.886 22.581 28.8828 22.5867 28.8809C22.5923 28.879 22.5984 28.8783 22.6043 28.879C23.783 28.8967 24.9465 28.9359 26.0621 28.9936C26.5828 29.0087 27.1011 29.0712 27.6105 29.1803C28.2583 29.3247 28.8855 29.5499 29.4772 29.8505C29.4858 29.8552 29.4926 29.8625 29.4966 29.8714C29.5007 29.8803 29.5016 29.8903 29.4994 29.8998C29.4972 29.9093 29.4919 29.9178 29.4843 29.924C29.4768 29.9302 29.4674 29.9337 29.4576 29.9341L29.4541 29.9359Z" fill="#383333"/>
<path d="M27.5136 29.2692C27.5089 29.27 27.5041 29.27 27.4994 29.2692C27.4883 29.2652 27.4792 29.257 27.4741 29.2463C27.4689 29.2357 27.4681 29.2235 27.4719 29.2123L29.6407 23.1768C29.6447 23.1657 29.653 23.1567 29.6637 23.1517C29.6743 23.1467 29.6865 23.1461 29.6976 23.1501C29.7087 23.1541 29.7177 23.1624 29.7227 23.173C29.7277 23.1837 29.7283 23.1959 29.7243 23.207L27.5563 29.2416C27.5527 29.25 27.5468 29.257 27.5392 29.2619C27.5316 29.2669 27.5227 29.2694 27.5136 29.2692Z" fill="#383333"/>
<path d="M27.8488 33.3634C26.1314 33.3634 22.7466 32.6816 22.5768 32.647C22.565 32.6446 22.5546 32.6376 22.548 32.6276C22.5413 32.6176 22.5389 32.6054 22.5412 32.5936C22.5436 32.5818 22.5505 32.5715 22.5605 32.5648C22.5705 32.5581 22.5828 32.5557 22.5946 32.5581C22.6443 32.5678 27.5261 33.5527 28.5839 33.1954C29.6896 32.8212 30.5172 32.3954 30.9616 31.5278C30.967 31.5174 30.9762 31.5094 30.9874 31.5058C30.9985 31.5021 31.0107 31.503 31.0212 31.5083C31.0317 31.5138 31.0397 31.5232 31.0433 31.5345C31.047 31.5458 31.046 31.5581 31.0407 31.5687C30.5821 32.4621 29.7385 32.9021 28.6123 33.2789C28.3634 33.3449 28.1061 33.3734 27.8488 33.3634Z" fill="#383333"/>
<path d="M22.7172 17.1492C22.7054 17.1492 22.6941 17.1446 22.6858 17.1362C22.6775 17.1279 22.6728 17.1166 22.6728 17.1048C22.6728 17.093 22.6775 17.0817 22.6858 17.0734C22.6941 17.065 22.7054 17.0604 22.7172 17.0604C22.7359 17.0604 24.5901 17.0186 25.8648 16.1137C25.8696 16.1103 25.875 16.1079 25.8807 16.1066C25.8864 16.1053 25.8923 16.1052 25.8981 16.1061C25.9039 16.1071 25.9094 16.1093 25.9144 16.1124C25.9193 16.1155 25.9236 16.1196 25.927 16.1244C25.9304 16.1291 25.9328 16.1346 25.9341 16.1403C25.9354 16.146 25.9355 16.1519 25.9345 16.1577C25.9336 16.1635 25.9314 16.169 25.9283 16.1739C25.9252 16.1789 25.9211 16.1832 25.9163 16.1866C24.6186 17.1075 22.7377 17.1492 22.7163 17.1492H22.7172Z" fill="#383333"/>
<path d="M21.0212 5.44708C21.0212 5.44708 23.0657 5.96085 23.8817 7.37685C24.6977 8.79284 25.9466 11.1715 27.8514 9.4595C27.8514 9.4595 28.6897 9.4035 28.8292 10.2311C28.9688 11.0586 28.7572 11.4453 28.5208 11.8044C28.2843 12.1635 27.7208 12.2302 27.3839 12.2302C27.047 12.2302 27.415 14.7066 26.2666 16.8719C25.1181 19.0372 25.3857 22.9163 27.4861 23.1901C29.5865 23.4639 28.7617 19.495 30.3688 18.8781C30.3688 18.8781 32.3927 19.8141 32.7536 20.9803C33.1145 22.1465 32.927 23.655 32.927 23.655C32.927 23.655 35.0603 20.9581 34.5572 18.1999C34.0541 15.4417 32.8479 16.1137 32.3901 13.5493C31.9323 10.9848 29.527 -0.00889516 21.4844 3.53064C21.4844 3.53064 15.2053 3.44175 17.2426 9.70217C17.2426 9.70217 18.7857 5.75196 21.0212 5.44708Z" fill="#383333"/>
<path d="M17.6461 5.04797C17.6461 5.04797 17.9928 1.60088 18.5421 1.07377C19.0914 0.54666 25.6159 -0.0924483 26.5314 0.518215C27.447 1.12888 27.3643 7.12618 26.9892 7.01507C26.6141 6.90396 25.1376 2.33598 17.6461 5.04797Z" fill="#AAEEEA"/>
<path d="M26.9892 7.01507C26.9892 7.01507 28.6381 5.1093 28.4843 4.60264C28.3305 4.09597 27.3599 0.72177 26.5288 0.518215C25.6977 0.31466 25.2728 1.94043 25.2728 1.94043L26.9892 7.01507Z" fill="#AAEEEA"/>
<path d="M22.7411 1.79052L20.7943 1.97425C20.6574 1.98718 20.5569 2.10864 20.5698 2.24554L20.5954 2.51645C20.6083 2.65336 20.7297 2.75387 20.8666 2.74095L22.8135 2.55721C22.9504 2.54429 23.0509 2.42283 23.038 2.28592L23.0124 2.01501C22.9995 1.87811 22.878 1.7776 22.7411 1.79052Z" fill="#00CCC1"/>
<path d="M21.8246 1.03204L21.5537 1.05761C21.4168 1.07053 21.3163 1.19199 21.3292 1.3289L21.5129 3.27574C21.5258 3.41264 21.6473 3.51315 21.7842 3.50023L22.0551 3.47466C22.192 3.46174 22.2925 3.34028 22.2796 3.20338L22.0959 1.25654C22.083 1.11963 21.9615 1.01912 21.8246 1.03204Z" fill="#00CCC1"/>
<path d="M20.3376 13.3919L22.5412 13.1164C22.4769 13.3133 22.3613 13.4895 22.2063 13.627C22.0513 13.7644 21.8626 13.8582 21.6594 13.8986C20.9465 14.0524 20.3376 13.3919 20.3376 13.3919Z" fill="white"/>
<path d="M17.3315 5.48264C17.3315 5.48264 18.3093 3.50042 21.1821 4.21686L19.2568 5.44708L17.3315 5.48264Z" fill="#383333"/>
<path d="M17.3315 8.02485C17.3198 8.02418 17.3089 8.01914 17.3008 8.01073C17.2927 8.00232 17.2881 7.99117 17.2879 7.97952C17.2879 7.9573 17.3519 5.79642 19.695 5.07109C19.7007 5.06857 19.707 5.06731 19.7132 5.06737C19.7195 5.06742 19.7257 5.06881 19.7314 5.07143C19.7371 5.07405 19.7422 5.07785 19.7463 5.08257C19.7504 5.08729 19.7535 5.09283 19.7553 5.09883C19.7572 5.10483 19.7577 5.11115 19.7569 5.11737C19.7561 5.12359 19.754 5.12957 19.7508 5.13493C19.7475 5.14028 19.7431 5.14489 19.738 5.14844C19.7328 5.15199 19.7269 5.15441 19.7208 5.15553C18.5297 5.52442 17.9563 6.27197 17.6843 6.83375C17.5084 7.19269 17.4039 7.58245 17.3768 7.9813C17.3767 7.98713 17.3754 7.99289 17.3731 7.99824C17.3707 8.00359 17.3674 8.00842 17.3631 8.01247C17.3589 8.01651 17.354 8.01969 17.3485 8.02181C17.3431 8.02394 17.3373 8.02497 17.3315 8.02485Z" fill="white"/>
<path d="M27.2301 9.07462C27.0367 9.0752 26.8444 9.0452 26.6603 8.98574C25.9492 8.75285 25.327 8.07818 24.8523 7.03552C24.1065 5.38575 22.0586 5.16264 22.0381 5.16087C22.0323 5.16031 22.0266 5.1586 22.0214 5.15584C22.0162 5.15307 22.0116 5.14931 22.0079 5.14476C22.0042 5.14022 22.0014 5.13498 21.9997 5.12935C21.998 5.12372 21.9975 5.11782 21.9981 5.11198C21.9994 5.10033 22.0053 5.08968 22.0145 5.08235C22.0237 5.07503 22.0353 5.07162 22.047 5.07287C22.0674 5.07287 24.1661 5.30131 24.9332 6.99819C25.3954 8.01863 25.9999 8.6764 26.6879 8.90129C27.2025 9.06929 27.7545 8.99018 28.3207 8.67107C28.3311 8.66554 28.3431 8.66422 28.3544 8.66736C28.3656 8.67051 28.3752 8.67789 28.3812 8.68796C28.387 8.69835 28.3885 8.71061 28.3853 8.72208C28.3821 8.73356 28.3746 8.74333 28.3643 8.74929C28.0207 8.95405 27.6299 9.06615 27.2301 9.07462Z" fill="white"/>
<path d="M28.0016 7.99107C26.8061 7.99107 26.0461 7.11197 26.0363 7.10219C26.0288 7.09305 26.0251 7.08134 26.0261 7.06955C26.0271 7.05775 26.0327 7.04682 26.0416 7.03908C26.0508 7.03176 26.0625 7.02825 26.0742 7.02924C26.086 7.03023 26.0969 7.03565 26.1047 7.04441C26.1154 7.05774 27.2247 8.33774 28.8603 7.74752C28.8715 7.7438 28.8837 7.7446 28.8943 7.74975C28.9049 7.75489 28.9131 7.76398 28.9172 7.77507C28.9193 7.78049 28.9202 7.78627 28.92 7.79208C28.9198 7.79788 28.9184 7.80358 28.9159 7.80882C28.9134 7.81406 28.9099 7.81874 28.9055 7.82257C28.9011 7.82639 28.896 7.82929 28.8905 7.83107C28.6058 7.93578 28.305 7.98993 28.0016 7.99107Z" fill="white"/>
<path d="M27.7643 21.1483C27.4559 21.1483 27.2025 20.9857 27.0319 20.6781C26.5625 19.8363 26.8692 18.3848 27.4363 17.4684C28.3785 15.9448 27.8754 13.5822 27.8701 13.5573C27.8688 13.5514 27.8687 13.5454 27.8697 13.5395C27.8708 13.5336 27.873 13.528 27.8762 13.523C27.8794 13.5179 27.8836 13.5136 27.8885 13.5102C27.8934 13.5068 27.8989 13.5043 27.9048 13.503C27.9106 13.5018 27.9166 13.5016 27.9225 13.5027C27.9284 13.5037 27.934 13.5059 27.939 13.5092C27.9441 13.5124 27.9484 13.5165 27.9519 13.5214C27.9553 13.5264 27.9577 13.5319 27.959 13.5377C27.9643 13.5617 28.4745 15.9599 27.5145 17.5137C26.8088 18.6532 26.7563 19.9946 27.1119 20.6337C27.2665 20.911 27.4932 21.0577 27.767 21.0577C27.7788 21.0577 27.7901 21.0624 27.7984 21.0707C27.8067 21.079 27.8114 21.0903 27.8114 21.1021C27.8114 21.1139 27.8067 21.1252 27.7984 21.1335C27.7901 21.1419 27.7788 21.1466 27.767 21.1466L27.7643 21.1483Z" fill="white"/>
<path d="M28.8772 18.0239C28.8707 18.0237 28.8644 18.0222 28.8585 18.0195C28.8532 18.0171 28.8484 18.0136 28.8445 18.0094C28.8405 18.0051 28.8374 18.0001 28.8354 17.9946C28.8335 17.9892 28.8326 17.9833 28.8329 17.9775C28.8332 17.9717 28.8346 17.966 28.8372 17.9608C29.4852 16.5697 29.1438 14.8444 29.1403 14.8266C29.1382 14.8151 29.1406 14.8032 29.147 14.7934C29.1535 14.7836 29.1635 14.7767 29.1749 14.7741C29.1807 14.773 29.1866 14.7729 29.1923 14.7741C29.198 14.7752 29.2035 14.7774 29.2083 14.7806C29.2132 14.7838 29.2174 14.788 29.2207 14.7928C29.2239 14.7977 29.2262 14.8031 29.2274 14.8088C29.2274 14.8266 29.5785 16.5804 28.9172 17.9981C28.9137 18.0058 28.9081 18.0124 28.901 18.017C28.8939 18.0215 28.8856 18.024 28.8772 18.0239Z" fill="white"/>
<path d="M33.7074 20.0728H33.7012C33.6897 20.071 33.6793 20.0648 33.6723 20.0555C33.6654 20.0462 33.6623 20.0345 33.6638 20.023C33.8025 19.0577 33.2034 18.3777 32.5083 17.591C31.7821 16.7661 30.959 15.831 30.959 14.391C30.959 11.6915 29.4292 10.0142 29.4141 9.99817C29.4099 9.99404 29.4066 9.98912 29.4044 9.9837C29.4021 9.97829 29.4009 9.97248 29.4009 9.96661C29.4009 9.96075 29.4021 9.95494 29.4044 9.94952C29.4066 9.9441 29.4099 9.93919 29.4141 9.93506C29.4181 9.93081 29.4229 9.92742 29.4282 9.9251C29.4336 9.92278 29.4394 9.92159 29.4452 9.92159C29.451 9.92159 29.4568 9.92278 29.4621 9.9251C29.4675 9.92742 29.4723 9.93081 29.4763 9.93506C29.4923 9.95195 31.0452 11.6533 31.0452 14.3884C31.0452 15.7964 31.8567 16.7181 32.5723 17.5315C33.2505 18.3012 33.8914 19.0283 33.7474 20.0346C33.7459 20.0445 33.7411 20.0536 33.7339 20.0605C33.7267 20.0674 33.7174 20.0717 33.7074 20.0728Z" fill="white"/>
<path d="M34.0007 17.9155C33.9909 17.9154 33.9813 17.912 33.9736 17.9059C33.9659 17.8998 33.9604 17.8912 33.9581 17.8817C33.6994 16.8479 32.2247 15.5706 32.2096 15.5564C32.2049 15.5526 32.2011 15.5479 32.1983 15.5426C32.1954 15.5373 32.1937 15.5315 32.1932 15.5255C32.1927 15.5196 32.1934 15.5135 32.1953 15.5079C32.1972 15.5022 32.2002 15.4969 32.2041 15.4924C32.2081 15.4879 32.2129 15.4842 32.2183 15.4816C32.2238 15.4791 32.2296 15.4776 32.2356 15.4773C32.2416 15.4771 32.2476 15.4781 32.2532 15.4802C32.2588 15.4823 32.264 15.4855 32.2683 15.4897C32.3296 15.5421 33.7794 16.799 34.0461 17.8595C34.0488 17.871 34.0468 17.8831 34.0407 17.8933C34.0345 17.9034 34.0246 17.9107 34.0132 17.9137L34.0007 17.9155Z" fill="white"/>
</svg>
