<svg id="add-user_992675" xmlns="http://www.w3.org/2000/svg" width="24" height="24" viewBox="0 0 24 24">
  <g id="Group_1598" data-name="Group 1598">
    <g id="Group_1597" data-name="Group 1597">
      <path id="Path_5206" data-name="Path 5206" d="M10,0A6.006,6.006,0,0,0,4,6V8a5.967,5.967,0,0,0,1.022,3.346A9.988,9.988,0,0,0,0,20v1a3,3,0,0,0,3,3h9a1,1,0,1,0,0-2H3a1,1,0,0,1-1-1V20a8.007,8.007,0,0,1,4.456-7.169A5.989,5.989,0,0,0,16,8V6A6.006,6.006,0,0,0,10,0Zm4,8A4,4,0,0,1,6,8V6a4,4,0,0,1,8,0V8Z" fill="#b1b1b1"/>
    </g>
  </g>
  <g id="Group_1600" data-name="Group 1600" transform="translate(12 12)">
    <g id="Group_1599" data-name="Group 1599">
      <path id="Path_5207" data-name="Path 5207" d="M267,261h-4v-4a1,1,0,1,0-2,0v4h-4a1,1,0,1,0,0,2h4v4a1,1,0,0,0,2,0v-4h4a1,1,0,0,0,0-2Z" transform="translate(-256 -256.001)" fill="#b1b1b1"/>
    </g>
  </g>
</svg>
