<svg xmlns="http://www.w3.org/2000/svg" width="24" height="24" viewBox="0 0 24 24">
  <path id="date_1389446" d="M21.188,1.875H20.063V0H18.188V1.875H5.813V0H3.938V1.875H2.813A2.816,2.816,0,0,0,0,4.688v16.5A2.816,2.816,0,0,0,2.813,24H21.188A2.816,2.816,0,0,0,24,21.188V4.688A2.816,2.816,0,0,0,21.188,1.875ZM2.813,3.75H3.938V5.625H5.813V3.75H18.188V5.625h1.875V3.75h1.125a.939.939,0,0,1,.938.938v2.25H1.875V4.688A.939.939,0,0,1,2.813,3.75ZM21.188,22.125H2.813a.939.939,0,0,1-.937-.937V8.813h20.25V21.188A.939.939,0,0,1,21.188,22.125ZM3.563,10.781H5.438v1.875H3.563Zm3.75,0H9.188v1.875H7.313Zm3.75,0h1.875v1.875H11.063Zm5.625,1.875H14.813V10.781h1.875Zm3.75,0H18.563V10.781h1.875ZM3.563,14.531H5.438v1.875H3.563Zm3.75,0H9.188v1.875H7.313Zm3.75,0h1.875v1.875H11.063Zm-7.5,3.75H5.438v1.875H3.563Zm3.75,0H9.188v1.875H7.313Zm3.75,0h1.875v1.875H11.063Zm9.656-1.643-1.547,1.478.365,2.087-1.912-.985-1.912.985.365-2.087-1.547-1.478,2.138-.3.956-1.9.956,1.9Zm0,0" fill="#b1b1b1"/>
</svg>
