<svg xmlns="http://www.w3.org/2000/svg" width="20.887" height="24" viewBox="0 0 20.887 24">
  <g id="_x35_22" transform="translate(-2.557 -1)">
    <path id="Path_5202" data-name="Path 5202" d="M19.952,25a3.5,3.5,0,0,0,3.491-3.492V4.491A3.5,3.5,0,0,0,19.952,1H6.048A3.5,3.5,0,0,0,2.557,4.491V21.508A3.5,3.5,0,0,0,6.048,25Zm-15.4-3.492V4.491A1.493,1.493,0,0,1,6.048,3h13.9a1.493,1.493,0,0,1,1.491,1.491V21.508A1.493,1.493,0,0,1,19.952,23H6.048A1.493,1.493,0,0,1,4.557,21.508Z" fill="#b1b1b1"/>
    <path id="Path_5203" data-name="Path 5203" d="M12.951,18.725H8.535a1,1,0,0,0,0,2h4.416a1,1,0,0,0,0-2Z" fill="#b1b1b1"/>
    <path id="Path_5204" data-name="Path 5204" d="M17.465,13.947H8.535a1,1,0,0,0,0,2h8.93a1,1,0,0,0,0-2Z" fill="#b1b1b1"/>
    <path id="Path_5205" data-name="Path 5205" d="M8.674,11.334l2.516-2.625L14.3,10.693a1,1,0,0,0,1.281-.176l3.208-3.575A1,1,0,1,0,17.3,5.606L14.662,8.551l-3.09-1.97a1,1,0,0,0-1.259.151L7.23,9.949a1,1,0,0,0,1.443,1.385Z" fill="#b1b1b1"/>
  </g>
</svg>
