<svg width="40" height="40" viewBox="0 0 40 40" fill="none" xmlns="http://www.w3.org/2000/svg">
<path d="M1.99048 8.72757V38.2225C1.99048 39.2042 2.78634 40 3.76798 40H36.232C37.2137 40 38.0095 39.2042 38.0095 38.2226V8.72757H1.99048Z" fill="#F5F7F8"/>
<path d="M34.4314 8.72757V38.2229C34.4314 39.204 33.6354 39.9999 32.6544 39.9999H36.2319C37.2138 39.9999 38.0098 39.204 38.0098 38.2229V8.72757H34.4314Z" fill="#D9E7EB"/>
<path d="M38.0097 4.5932V10.0523H1.99033V4.5932C1.99033 3.61132 2.78634 2.81531 3.76822 2.81531H36.2318C37.2137 2.81531 38.0097 3.61125 38.0097 4.5932Z" fill="#FB4A59"/>
<path d="M38.0097 4.5932V10.0523H34.4314V4.5932C34.4314 3.61132 33.6354 2.81531 32.6544 2.81531H36.2319C37.2137 2.81531 38.0097 3.61125 38.0097 4.5932Z" fill="#F82F40"/>
<path d="M12.0981 10.052H8.6626V1.71781C8.6626 0.769063 9.43166 0 10.3804 0C11.3291 0 12.0982 0.769063 12.0982 1.71781L12.0981 10.052Z" fill="#B7C4CE"/>
<path d="M31.3374 10.052H27.9019V1.71781C27.9019 0.769063 28.6709 0 29.6196 0C30.5683 0 31.3374 0.769063 31.3374 1.71781V10.052Z" fill="#B7C4CE"/>
<path d="M13.687 15.9389H11.9217V14.1736C11.9217 13.8228 11.6374 13.5385 11.2866 13.5385H8.78627C8.43548 13.5385 8.15111 13.8228 8.15111 14.1736V15.9389H6.3858C6.03502 15.9389 5.75064 16.2233 5.75064 16.5741V19.0744C5.75064 19.4252 6.03502 19.7095 6.3858 19.7095H8.15111V21.4749C8.15111 21.8256 8.43548 22.11 8.78627 22.11H11.2866C11.6374 22.11 11.9217 21.8256 11.9217 21.4749V19.7095H13.687C14.0378 19.7095 14.3222 19.4252 14.3222 19.0744V16.5741C14.3222 16.2233 14.0378 15.9389 13.687 15.9389Z" fill="#FB4A59"/>
<path d="M14.3217 16.5741V19.0747C14.3217 19.4255 14.0374 19.7099 13.6866 19.7099H11.9219V21.4746C11.9219 21.8258 11.637 22.1098 11.2867 22.1098H9.24071C9.59094 22.1098 9.87587 21.8258 9.87587 21.4746V20.345C9.87587 19.9942 10.1602 19.7099 10.511 19.7099H11.6406C11.9914 19.7099 12.2758 19.4255 12.2758 19.0747V16.5741C12.2758 16.2233 11.9914 15.9389 11.6406 15.9389H10.5109C10.1602 15.9389 9.87579 15.6545 9.87579 15.3038V14.1732C9.87579 13.823 9.59087 13.5381 9.24063 13.5381H11.2866C11.6374 13.5381 11.9218 13.8224 11.9218 14.1732V15.9389H13.6866C14.0374 15.939 14.3217 16.2233 14.3217 16.5741Z" fill="#F82F40"/>
<path d="M20.3886 16.3332H19.5626C18.7908 16.3332 18.1651 15.7075 18.1651 14.9357C18.1651 14.1639 18.7908 13.5382 19.5626 13.5382H20.3886C21.1604 13.5382 21.7861 14.1639 21.7861 14.9357C21.7861 15.7075 21.1604 16.3332 20.3886 16.3332Z" fill="#F82F40"/>
<path d="M21.7864 14.9356C21.7864 15.3212 21.6299 15.6714 21.3772 15.9239C21.1246 16.1765 20.7745 16.3331 20.3889 16.3331H19.5624C19.4546 16.3331 19.3504 16.3214 19.25 16.2977C19.51 16.2386 19.7426 16.1064 19.925 15.9239C20.1784 15.6714 20.335 15.3212 20.335 14.9356C20.335 14.2717 19.8711 13.7154 19.2499 13.5736C19.3503 13.5499 19.4545 13.5381 19.5623 13.5381H20.3889C21.1608 13.5381 21.7864 14.1638 21.7864 14.9356Z" fill="#E22334"/>
<path d="M20.3886 21.3866H19.5626C18.7908 21.3866 18.1651 20.7609 18.1651 19.9891C18.1651 19.2173 18.7908 18.5916 19.5626 18.5916H20.3886C21.1604 18.5916 21.7861 19.2173 21.7861 19.9891C21.7861 20.7609 21.1604 21.3866 20.3886 21.3866Z" fill="#64B9FC"/>
<path d="M21.7864 19.989C21.7864 20.3745 21.6299 20.7247 21.3772 20.9773C21.1246 21.2299 20.7745 21.3865 20.3889 21.3865H19.5624C19.4546 21.3865 19.3504 21.3747 19.25 21.351C19.51 21.292 19.7426 21.1597 19.925 20.9773C20.1784 20.7247 20.335 20.3745 20.335 19.989C20.335 19.325 19.8711 18.7688 19.2499 18.627C19.3503 18.6033 19.4545 18.5915 19.5623 18.5915H20.3889C21.1608 18.5915 21.7864 19.2171 21.7864 19.989Z" fill="#31A7FB"/>
<path d="M20.3886 26.44H19.5626C18.7908 26.44 18.1651 25.8143 18.1651 25.0425C18.1651 24.2707 18.7908 23.645 19.5626 23.645H20.3886C21.1604 23.645 21.7861 24.2707 21.7861 25.0425C21.7861 25.8143 21.1604 26.44 20.3886 26.44Z" fill="#64B9FC"/>
<path d="M21.7864 25.0424C21.7864 25.4279 21.6299 25.7781 21.3772 26.0306C21.1246 26.2832 20.7745 26.4399 20.3889 26.4399H19.5624C19.4546 26.4399 19.3504 26.4281 19.25 26.4044C19.51 26.3453 19.7426 26.2131 19.925 26.0306C20.1784 25.7781 20.335 25.4279 20.335 25.0424C20.335 24.3784 19.8711 23.8221 19.2499 23.6803C19.3503 23.6567 19.4545 23.6449 19.5623 23.6449H20.3889C21.1608 23.6449 21.7864 24.2705 21.7864 25.0424Z" fill="#31A7FB"/>
<path d="M20.3886 31.4933H19.5626C18.7908 31.4933 18.1651 30.8676 18.1651 30.0958C18.1651 29.324 18.7908 28.6983 19.5626 28.6983H20.3886C21.1604 28.6983 21.7861 29.324 21.7861 30.0958C21.7861 30.8676 21.1604 31.4933 20.3886 31.4933Z" fill="#64B9FC"/>
<path d="M21.7864 30.0957C21.7864 30.4813 21.6299 30.8314 21.3772 31.084C21.1246 31.3366 20.7745 31.4932 20.3889 31.4932H19.5624C19.4546 31.4932 19.3504 31.4814 19.25 31.4577C19.51 31.3987 19.7426 31.2664 19.925 31.084C20.1784 30.8314 20.335 30.4813 20.335 30.0957C20.335 29.4317 19.8711 28.8755 19.2499 28.7337C19.3503 28.71 19.4545 28.6982 19.5623 28.6982H20.3889C21.1608 28.6983 21.7864 29.3239 21.7864 30.0957Z" fill="#31A7FB"/>
<path d="M20.3886 36.5467H19.5626C18.7908 36.5467 18.1651 35.921 18.1651 35.1492C18.1651 34.3774 18.7908 33.7517 19.5626 33.7517H20.3886C21.1604 33.7517 21.7861 34.3774 21.7861 35.1492C21.7861 35.9211 21.1604 36.5467 20.3886 36.5467Z" fill="#64B9FC"/>
<path d="M21.7864 35.1491C21.7864 35.5346 21.6299 35.8848 21.3772 36.1374C21.1246 36.3899 20.7745 36.5466 20.3889 36.5466H19.5624C19.4546 36.5466 19.3504 36.5348 19.25 36.5111C19.51 36.4521 19.7426 36.3198 19.925 36.1374C20.1784 35.8848 20.335 35.5346 20.335 35.1491C20.335 34.4851 19.8711 33.9289 19.2499 33.7871C19.3503 33.7634 19.4545 33.7516 19.5623 33.7516H20.3889C21.1608 33.7517 21.7864 34.3773 21.7864 35.1491Z" fill="#31A7FB"/>
<path d="M26.6201 16.3332H25.7941C25.0223 16.3332 24.3966 15.7075 24.3966 14.9357C24.3966 14.1639 25.0223 13.5382 25.7941 13.5382H26.6201C27.3919 13.5382 28.0176 14.1639 28.0176 14.9357C28.0176 15.7075 27.3919 16.3332 26.6201 16.3332Z" fill="#F82F40"/>
<path d="M28.0179 14.9356C28.0179 15.3212 27.8614 15.6714 27.6087 15.9239C27.3561 16.1765 27.006 16.3331 26.6204 16.3331H25.7939C25.686 16.3331 25.5819 16.3214 25.4814 16.2977C25.7414 16.2386 25.9741 16.1064 26.1565 15.9239C26.4099 15.6714 26.5664 15.3212 26.5664 14.9356C26.5664 14.2717 26.1026 13.7154 25.4814 13.5736C25.5818 13.5499 25.686 13.5381 25.7938 13.5381H26.6203C27.3923 13.5381 28.0179 14.1638 28.0179 14.9356Z" fill="#E22334"/>
<path d="M26.6201 21.3866H25.7941C25.0223 21.3866 24.3966 20.7609 24.3966 19.9891C24.3966 19.2173 25.0223 18.5916 25.7941 18.5916H26.6201C27.3919 18.5916 28.0176 19.2173 28.0176 19.9891C28.0176 20.7609 27.3919 21.3866 26.6201 21.3866Z" fill="#64B9FC"/>
<path d="M28.0179 19.989C28.0179 20.3745 27.8614 20.7247 27.6087 20.9773C27.3561 21.2299 27.006 21.3865 26.6204 21.3865H25.7939C25.686 21.3865 25.5819 21.3747 25.4814 21.351C25.7414 21.292 25.9741 21.1597 26.1565 20.9773C26.4099 20.7247 26.5664 20.3745 26.5664 19.989C26.5664 19.325 26.1026 18.7688 25.4814 18.627C25.5818 18.6033 25.686 18.5915 25.7938 18.5915H26.6203C27.3923 18.5915 28.0179 19.2171 28.0179 19.989Z" fill="#31A7FB"/>
<path d="M26.6201 26.44H25.7941C25.0223 26.44 24.3966 25.8143 24.3966 25.0425C24.3966 24.2707 25.0223 23.645 25.7941 23.645H26.6201C27.3919 23.645 28.0176 24.2707 28.0176 25.0425C28.0176 25.8143 27.3919 26.44 26.6201 26.44Z" fill="#64B9FC"/>
<path d="M28.0179 25.0424C28.0179 25.4279 27.8614 25.7781 27.6087 26.0306C27.3561 26.2832 27.006 26.4399 26.6204 26.4399H25.7939C25.686 26.4399 25.5819 26.4281 25.4814 26.4044C25.7414 26.3453 25.9741 26.2131 26.1565 26.0306C26.4099 25.7781 26.5664 25.4279 26.5664 25.0424C26.5664 24.3784 26.1026 23.8221 25.4814 23.6803C25.5818 23.6567 25.686 23.6449 25.7938 23.6449H26.6203C27.3923 23.6449 28.0179 24.2705 28.0179 25.0424Z" fill="#31A7FB"/>
<path d="M26.6201 31.4933H25.7941C25.0223 31.4933 24.3966 30.8676 24.3966 30.0958C24.3966 29.324 25.0223 28.6983 25.7941 28.6983H26.6201C27.3919 28.6983 28.0176 29.324 28.0176 30.0958C28.0176 30.8676 27.3919 31.4933 26.6201 31.4933Z" fill="#64B9FC"/>
<path d="M28.0179 30.0957C28.0179 30.4813 27.8614 30.8314 27.6087 31.084C27.3561 31.3366 27.006 31.4932 26.6204 31.4932H25.7939C25.686 31.4932 25.5819 31.4814 25.4814 31.4577C25.7414 31.3987 25.9741 31.2664 26.1565 31.084C26.4099 30.8314 26.5664 30.4813 26.5664 30.0957C26.5664 29.4317 26.1026 28.8755 25.4814 28.7337C25.5818 28.71 25.686 28.6982 25.7938 28.6982H26.6203C27.3923 28.6983 28.0179 29.3239 28.0179 30.0957Z" fill="#31A7FB"/>
<path d="M26.6201 36.5467H25.7941C25.0223 36.5467 24.3966 35.921 24.3966 35.1492C24.3966 34.3774 25.0223 33.7517 25.7941 33.7517H26.6201C27.3919 33.7517 28.0176 34.3774 28.0176 35.1492C28.0176 35.9211 27.3919 36.5467 26.6201 36.5467Z" fill="#64B9FC"/>
<path d="M28.0179 35.1491C28.0179 35.5346 27.8614 35.8848 27.6087 36.1374C27.3561 36.3899 27.006 36.5466 26.6204 36.5466H25.7939C25.686 36.5466 25.5819 36.5348 25.4814 36.5111C25.7414 36.4521 25.9741 36.3198 26.1565 36.1374C26.4099 35.8848 26.5664 35.5346 26.5664 35.1491C26.5664 34.4851 26.1026 33.9289 25.4814 33.7871C25.5818 33.7634 25.686 33.7516 25.7938 33.7516H26.6203C27.3923 33.7517 28.0179 34.3773 28.0179 35.1491Z" fill="#31A7FB"/>
<path d="M32.8517 16.3332H32.0256C31.2538 16.3332 30.6281 15.7075 30.6281 14.9357C30.6281 14.1639 31.2538 13.5382 32.0256 13.5382H32.8517C33.6235 13.5382 34.2492 14.1639 34.2492 14.9357C34.2491 15.7075 33.6235 16.3332 32.8517 16.3332Z" fill="#F82F40"/>
<path d="M34.2494 14.9356C34.2494 15.3212 34.0928 15.6714 33.8402 15.9239C33.5876 16.1765 33.2374 16.3331 32.8519 16.3331H32.0253C31.9175 16.3331 31.8134 16.3214 31.7129 16.2977C31.9729 16.2386 32.2056 16.1064 32.388 15.9239C32.6413 15.6714 32.7979 15.3212 32.7979 14.9356C32.7979 14.2717 32.3341 13.7154 31.7128 13.5736C31.8133 13.5499 31.9174 13.5381 32.0253 13.5381H32.8518C33.6238 13.5381 34.2494 14.1638 34.2494 14.9356Z" fill="#E22334"/>
<path d="M32.8517 21.3866H32.0256C31.2538 21.3866 30.6281 20.7609 30.6281 19.9891C30.6281 19.2173 31.2538 18.5916 32.0256 18.5916H32.8517C33.6235 18.5916 34.2492 19.2173 34.2492 19.9891C34.2491 20.7609 33.6235 21.3866 32.8517 21.3866Z" fill="#64B9FC"/>
<path d="M34.2494 19.989C34.2494 20.3745 34.0928 20.7247 33.8402 20.9773C33.5876 21.2299 33.2374 21.3865 32.8519 21.3865H32.0253C31.9175 21.3865 31.8134 21.3747 31.7129 21.351C31.9729 21.292 32.2056 21.1597 32.388 20.9773C32.6413 20.7247 32.7979 20.3745 32.7979 19.989C32.7979 19.325 32.3341 18.7688 31.7128 18.627C31.8133 18.6033 31.9174 18.5915 32.0253 18.5915H32.8518C33.6238 18.5915 34.2494 19.2171 34.2494 19.989Z" fill="#31A7FB"/>
<path d="M32.8517 26.44H32.0256C31.2538 26.44 30.6281 25.8143 30.6281 25.0425C30.6281 24.2707 31.2538 23.645 32.0256 23.645H32.8517C33.6235 23.645 34.2492 24.2707 34.2492 25.0425C34.2491 25.8143 33.6235 26.44 32.8517 26.44Z" fill="#64B9FC"/>
<path d="M34.2494 25.0424C34.2494 25.4279 34.0928 25.7781 33.8402 26.0306C33.5876 26.2832 33.2374 26.4399 32.8519 26.4399H32.0253C31.9175 26.4399 31.8134 26.4281 31.7129 26.4044C31.9729 26.3453 32.2056 26.2131 32.388 26.0306C32.6413 25.7781 32.7979 25.4279 32.7979 25.0424C32.7979 24.3784 32.3341 23.8221 31.7128 23.6803C31.8133 23.6567 31.9174 23.6449 32.0253 23.6449H32.8518C33.6238 23.6449 34.2494 24.2705 34.2494 25.0424Z" fill="#31A7FB"/>
<path d="M32.8517 31.4933H32.0256C31.2538 31.4933 30.6281 30.8676 30.6281 30.0958C30.6281 29.324 31.2538 28.6983 32.0256 28.6983H32.8517C33.6235 28.6983 34.2492 29.324 34.2492 30.0958C34.2491 30.8676 33.6235 31.4933 32.8517 31.4933Z" fill="#64B9FC"/>
<path d="M34.2494 30.0957C34.2494 30.4813 34.0928 30.8314 33.8402 31.084C33.5876 31.3366 33.2374 31.4932 32.8519 31.4932H32.0253C31.9175 31.4932 31.8134 31.4814 31.7129 31.4577C31.9729 31.3987 32.2056 31.2664 32.388 31.084C32.6413 30.8314 32.7979 30.4813 32.7979 30.0957C32.7979 29.4317 32.3341 28.8755 31.7128 28.7337C31.8133 28.71 31.9174 28.6982 32.0253 28.6982H32.8518C33.6238 28.6983 34.2494 29.3239 34.2494 30.0957Z" fill="#31A7FB"/>
<path d="M9.11242 35.0691H5.75063C5.41719 35.0691 5.14703 34.7988 5.14703 34.4655C5.14703 34.1321 5.41727 33.8619 5.75063 33.8619H9.11242C9.44586 33.8619 9.71602 34.1321 9.71602 34.4655C9.71602 34.7988 9.44578 35.0691 9.11242 35.0691Z" fill="#B7C4CE"/>
<path d="M13.747 32.9534H5.75063C5.41719 32.9534 5.14703 32.6832 5.14703 32.3498C5.14703 32.0165 5.41727 31.7462 5.75063 31.7462H13.747C14.0804 31.7462 14.3505 32.0165 14.3505 32.3498C14.3505 32.6832 14.0803 32.9534 13.747 32.9534Z" fill="#B7C4CE"/>
<path d="M9.11242 29.8026H5.75063C5.41719 29.8026 5.14703 29.5324 5.14703 29.1991C5.14703 28.8657 5.41727 28.5955 5.75063 28.5955H9.11242C9.44586 28.5955 9.71602 28.8657 9.71602 29.1991C9.71602 29.5324 9.44578 29.8026 9.11242 29.8026Z" fill="#B7C4CE"/>
<path d="M9.11242 27.7784H5.75063C5.41719 27.7784 5.14703 27.5081 5.14703 27.1748C5.14703 26.8414 5.41727 26.5712 5.75063 26.5712H9.11242C9.44586 26.5712 9.71602 26.8414 9.71602 27.1748C9.71602 27.5081 9.44578 27.7784 9.11242 27.7784Z" fill="#B7C4CE"/>
</svg>
