<svg xmlns="http://www.w3.org/2000/svg" width="25.385" height="22" viewBox="0 0 25.385 22">
  <g id="camera" transform="translate(-1 -3)">
    <path id="Path_42634" data-name="Path 42634" d="M23.294,6.385H19.661l-.423-1.269A3.084,3.084,0,0,0,16.306,3H11.079A3.085,3.085,0,0,0,8.147,5.115L7.724,6.385H4.09A3.094,3.094,0,0,0,1,9.475V21.913A3.094,3.094,0,0,0,4.09,25H23.3a3.094,3.094,0,0,0,3.087-3.09V9.471a3.094,3.094,0,0,0-3.09-3.087Zm1.4,15.525a1.4,1.4,0,0,1-1.4,1.4H4.09a1.4,1.4,0,0,1-1.4-1.4V9.471a1.4,1.4,0,0,1,1.4-1.394H8.334a.846.846,0,0,0,.8-.579l.617-1.851a1.4,1.4,0,0,1,1.326-.955h5.228a1.4,1.4,0,0,1,1.326.956l.617,1.85a.846.846,0,0,0,.8.579h4.243a1.4,1.4,0,0,1,1.4,1.4Z" transform="translate(0 0)" fill="#e69186"/>
    <path id="Path_42635" data-name="Path 42635" d="M14.846,10a6.346,6.346,0,1,0,6.346,6.346A6.346,6.346,0,0,0,14.846,10Zm0,11A4.654,4.654,0,1,1,19.5,16.346,4.654,4.654,0,0,1,14.846,21Z" transform="translate(-1.154 -1.077)" fill="#e69186"/>
    <circle id="Ellipse_46" data-name="Ellipse 46" cx="0.846" cy="0.846" r="0.846" transform="translate(21.308 9.769)" fill="#e69186"/>
  </g>
</svg>
