<svg xmlns="http://www.w3.org/2000/svg" width="20" height="20" viewBox="0 0 20 20">
  <g id="Group_1614" data-name="Group 1614" transform="translate(-321 -286)">
    <rect id="Rectangle_322" data-name="Rectangle 322" width="20" height="20" rx="6" transform="translate(321 286)" fill="#e69186"/>
    <path id="Path_5273" data-name="Path 5273" d="M109.576,144.709c-1.161-1.161-2.315-2.333-3.48-3.494a.334.334,0,0,1,0-.469l1.339-1.339a.334.334,0,0,1,.469,0l1.914,1.914,4.922-4.925a.339.339,0,0,1,.472,0l1.342,1.342a.328.328,0,0,1,0,.469l-6.509,6.5A.328.328,0,0,1,109.576,144.709Z" transform="translate(219.545 156.064)" fill="#fff"/>
  </g>
</svg>
