<svg width="34" height="34" viewBox="0 0 34 34" fill="none" xmlns="http://www.w3.org/2000/svg">
<path d="M28.9615 17.4615L25.1154 33.5385H0.5L4.34615 17.4615H28.9615Z" fill="#D0DCE7"/>
<path d="M21.6154 20.0769H24.3077V22.3846H21.6154V20.0769Z" fill="#FFD400"/>
<path d="M20.8461 24.3077H23.5384V26.6154H20.8461V24.3077Z" fill="#FFD400"/>
<path d="M20.0385 28.5385H22.7308V30.8462H20.0385V28.5385Z" fill="#FFD400"/>
<path d="M15.8077 28.5385H18.5V30.8462H15.8077V28.5385Z" fill="#FFD400"/>
<path d="M16.6154 24.3077H19.3077V26.6154H16.6154V24.3077Z" fill="#FFD400"/>
<path d="M17.3846 20.0769H20.0769V22.3846H17.3846V20.0769Z" fill="#FFD400"/>
<path d="M31.9615 4.30769C32.8108 4.30769 33.5 4.99616 33.5 5.84616C33.5 6.69616 32.8108 7.38462 31.9615 7.38462C31.1115 7.38462 30.4231 6.69616 30.4231 5.84616C30.4231 4.99616 31.1115 4.30769 31.9615 4.30769Z" fill="#F88F19"/>
<path d="M3.49999 9.3077C4.98691 9.3077 6.19229 8.10231 6.19229 6.61539C6.19229 5.12847 4.98691 3.92308 3.49999 3.92308C2.01307 3.92308 0.807678 5.12847 0.807678 6.61539C0.807678 8.10231 2.01307 9.3077 3.49999 9.3077Z" fill="#F88F19"/>
<path d="M9.12847 22.7692C10.1431 22.7623 11.0631 23.1646 11.7346 23.82L9.38155 26.1731L8.82232 25.6131C8.51309 25.3038 8.01155 25.3038 7.70232 25.6131C7.5477 25.7678 7.47078 25.9708 7.47078 26.1731C7.47078 26.3754 7.5477 26.5785 7.70232 26.7331L8.26232 27.2923L9.38155 28.4124L10.5016 27.2923L12.6185 25.1754C12.7877 25.63 12.87 26.1261 12.8454 26.6446C12.7554 28.5147 11.2539 30.037 9.38617 30.1508C7.20001 30.2831 5.39309 28.5138 5.46309 26.3408C5.52693 24.3715 7.15847 22.7831 9.12847 22.7692Z" fill="#F88F19"/>
<path d="M13.6731 23.0008C13.9823 23.3101 13.9823 23.8115 13.6731 24.1209L12.6185 25.1755L10.5015 27.2924L9.38153 28.4125L8.2623 27.2923L7.7023 26.7331C7.54769 26.5784 7.47076 26.3754 7.47076 26.1731C7.47076 25.9708 7.54769 25.7677 7.7023 25.6131C8.01153 25.3038 8.51307 25.3038 8.8223 25.6131L9.38153 26.1731L11.7346 23.82L12.5538 23.0008C12.7085 22.8462 12.9108 22.7692 13.1138 22.7692C13.3161 22.7692 13.5185 22.8462 13.6731 23.0008Z" fill="#07CC66"/>
<path d="M28.5 29.6923L32.0385 33.5385H25.1154L28.5 29.6923Z" fill="#788894"/>
<path d="M28.5 29.6923L25.1154 33.5385L28.9615 17.4615L30.3077 12.1285L32.0385 33.5385L28.5 29.6923Z" fill="#A0B5C5"/>
<path d="M30.3077 12.1285L28.9615 17.4615H4.34616L5.69231 12.1285H30.3077Z" fill="#D94556"/>
<path d="M32.9231 12.7692C33.2417 12.7692 33.5 12.5109 33.5 12.1923C33.5 11.8737 33.2417 11.6154 32.9231 11.6154C32.6045 11.6154 32.3462 11.8737 32.3462 12.1923C32.3462 12.5109 32.6045 12.7692 32.9231 12.7692Z" fill="#5CBEFF"/>
<path d="M32.9231 23.5385C33.2417 23.5385 33.5 23.2802 33.5 22.9615C33.5 22.6429 33.2417 22.3846 32.9231 22.3846C32.6045 22.3846 32.3462 22.6429 32.3462 22.9615C32.3462 23.2802 32.6045 23.5385 32.9231 23.5385Z" fill="#5CBEFF"/>
<path d="M23.6923 2.38462C24.0109 2.38462 24.2692 2.12632 24.2692 1.80769C24.2692 1.48907 24.0109 1.23077 23.6923 1.23077C23.3737 1.23077 23.1154 1.48907 23.1154 1.80769C23.1154 2.12632 23.3737 2.38462 23.6923 2.38462Z" fill="#5CBEFF"/>
<path d="M16 4.69231C16.3186 4.69231 16.5769 4.43401 16.5769 4.11539C16.5769 3.79676 16.3186 3.53846 16 3.53846C15.6814 3.53846 15.4231 3.79676 15.4231 4.11539C15.4231 4.43401 15.6814 4.69231 16 4.69231Z" fill="#5CBEFF"/>
<path d="M6.3846 1.61539C6.70323 1.61539 6.96152 1.35709 6.96152 1.03846C6.96152 0.719837 6.70323 0.46154 6.3846 0.46154C6.06598 0.46154 5.80768 0.719837 5.80768 1.03846C5.80768 1.35709 6.06598 1.61539 6.3846 1.61539Z" fill="#5CBEFF"/>
<path d="M1.76924 14.3077C2.08787 14.3077 2.34617 14.0494 2.34617 13.7308C2.34617 13.4121 2.08787 13.1538 1.76924 13.1538C1.45062 13.1538 1.19232 13.4121 1.19232 13.7308C1.19232 14.0494 1.45062 14.3077 1.76924 14.3077Z" fill="#5CBEFF"/>
<path d="M26.1146 9.69231C25.2598 9.69231 24.5075 10.1378 24.076 10.8084C23.6445 10.1378 22.892 9.69231 22.0369 9.69231C21.1819 9.69231 20.4294 10.1378 19.9977 10.8084C19.5662 10.1378 18.8139 9.69231 17.9592 9.69231C17.1041 9.69231 16.3516 10.1378 15.92 10.8084C15.4886 10.1378 14.7363 9.69231 13.8815 9.69231C13.0152 9.69231 12.2541 10.1495 11.8254 10.8349C11.3967 10.1495 10.6355 9.69231 9.76924 9.69231C8.43316 9.69231 7.34616 10.7796 7.34616 12.1162V12.1308C7.35431 13.4588 8.44131 14.5392 9.76924 14.5392C9.98162 14.5392 10.1539 14.367 10.1539 14.1546C10.1539 13.9422 9.98162 13.77 9.76924 13.77C8.86285 13.77 8.12101 13.0325 8.11539 12.1285V12.1162C8.11539 11.2038 8.85731 10.4615 9.76924 10.4615C10.6815 10.4615 11.4239 11.2038 11.4239 12.1162C11.4239 12.1768 11.4392 12.2333 11.4641 12.2843C11.5513 13.541 12.6049 14.5392 13.8815 14.5392C14.0939 14.5392 14.2662 14.367 14.2662 14.1546C14.2662 13.9422 14.0939 13.77 13.8815 13.77C12.9748 13.77 12.2325 13.0325 12.2269 12.1285V12.1162C12.2269 11.2038 12.9692 10.4615 13.8815 10.4615C14.7935 10.4615 15.5354 11.2038 15.5354 12.1162V12.1308C15.5435 13.4588 16.6309 14.5392 17.9593 14.5392C18.1717 14.5392 18.3439 14.367 18.3439 14.1546C18.3439 13.9422 18.1717 13.77 17.9593 13.77C17.0525 13.77 16.3102 13.0325 16.3046 12.1285V12.1162C16.3046 11.2038 17.0469 10.4615 17.9593 10.4615C18.8712 10.4615 19.6132 11.2038 19.6132 12.1162V12.1308C19.6212 13.4588 20.7086 14.5392 22.037 14.5392C22.2494 14.5392 22.4216 14.367 22.4216 14.1546C22.4216 13.9422 22.2494 13.77 22.037 13.77C21.1302 13.77 20.3879 13.0325 20.3824 12.1285V12.1162C20.3824 11.2038 21.1245 10.4615 22.037 10.4615C22.9492 10.4615 23.6916 11.2038 23.6916 12.1162V12.1308C23.6999 13.4588 24.7868 14.5392 26.1147 14.5392C26.3271 14.5392 26.4993 14.367 26.4993 14.1546C26.4993 13.9422 26.3271 13.77 26.1147 13.77C25.2083 13.77 24.4664 13.0325 24.4609 12.1285V12.1162C24.4609 11.2038 25.2028 10.4615 26.1147 10.4615C27.027 10.4615 27.7693 11.2038 27.7693 12.1162C27.7693 12.3285 27.9415 12.5008 28.1539 12.5008C28.3664 12.5008 28.5385 12.3285 28.5385 12.1162C28.5385 10.7796 27.4512 9.69231 26.1146 9.69231Z" fill="#3F4751"/>
<path d="M28.5538 30.7606C28.5398 30.7619 28.5258 30.7625 28.5115 30.7623C28.2991 30.7593 28.1293 30.5847 28.1323 30.3723L28.1922 26.1169C28.1952 25.9044 28.3699 25.7355 28.5822 25.7377C28.7947 25.7407 28.9645 25.9153 28.9615 26.1277L28.9015 30.3831C28.8988 30.5813 28.7466 30.7422 28.5538 30.7606Z" fill="#788894"/>
</svg>
