<svg xmlns="http://www.w3.org/2000/svg" width="25.859" height="16" viewBox="0 0 25.859 16">
  <g id="eye_13936187" transform="translate(0 -3.05)">
    <path id="Path_42442" data-name="Path 42442" d="M25.859,11.05a.594.594,0,0,0-.162-.485C17.293.545,8.566.545.162,10.565,0,10.565,0,10.727,0,11.05a.594.594,0,0,0,.162.485c8.4,10.02,17.131,10.02,25.535,0C25.859,11.535,25.859,11.373,25.859,11.05Zm-24.081,0c7.434-8.566,14.707-8.566,22.141,0C16.646,19.616,9.212,19.616,1.778,11.05Z" transform="translate(0)" fill="#b9b9b9"/>
    <path id="Path_42443" data-name="Path 42443" d="M9.848,5A4.762,4.762,0,0,0,5,9.848,4.762,4.762,0,0,0,9.848,14.7,4.762,4.762,0,0,0,14.7,9.848,4.762,4.762,0,0,0,9.848,5Zm0,8.081a3.232,3.232,0,1,1,3.232-3.232A3.242,3.242,0,0,1,9.848,13.081Z" transform="translate(3.081 1.202)" fill="#b9b9b9"/>
  </g>
</svg>
