<svg width="40" height="40" viewBox="0 0 40 40" fill="none" xmlns="http://www.w3.org/2000/svg">
<g clip-path="url(#clip0_2_1843)">
<path d="M3.0368 12.8591L2.95867 12.5922C1.64828 12.5922 0.585938 13.6545 0.585938 14.9649V18.6913H3.0368V12.8591Z" fill="#FE646F"/>
<path d="M13.186 18.6914V14.965C13.186 13.6545 12.1237 12.5923 10.8133 12.5923L10.7352 12.8633V18.6915H13.186V18.6914Z" fill="#FE646F"/>
<path d="M29.2649 12.0499L29.1867 11.777C27.8763 11.777 26.814 12.8394 26.814 14.1498V17.9102H29.2649V12.0499Z" fill="#8AC9FE"/>
<path d="M39.4141 17.9102V14.1497C39.4141 12.8392 38.3517 11.7769 37.0413 11.7769L36.9632 12.0641V17.9102H39.4141Z" fill="#8AC9FE"/>
<path d="M29.2649 17.832H26.814V23.5998C26.814 24.255 27.3452 24.7862 28.0004 24.7862C28.6556 24.7862 29.1868 24.255 29.1868 23.5998L29.2649 23.3113V17.832H29.2649Z" fill="#F89580"/>
<path d="M36.9632 17.832V23.3114L37.0413 23.5998C37.0413 24.255 37.5725 24.7862 38.2277 24.7862C38.883 24.7862 39.4141 24.255 39.4141 23.5998V17.832H36.9632Z" fill="#F89580"/>
<path d="M25.0091 29.0039V24.893C25.0091 23.8144 24.1346 22.9399 23.0559 22.9399H22.6964L22.6183 23.1166V29.004H25.0091V29.0039Z" fill="#A2E62E"/>
<path d="M17.3817 29.0039V23.0935L17.3036 22.9399H16.7384C15.7733 22.9399 14.9909 23.7223 14.9909 24.6874V29.0039H17.3817Z" fill="#A2E62E"/>
<path d="M23.3984 5.44186V2.85233H22.3438L22.2266 2.93045V4.5067L23.3984 5.44186Z" fill="#FE646F"/>
<path d="M17.3817 28.9258H14.9908V30.1754C14.9908 30.814 15.5086 31.3317 16.1472 31.3317C16.7858 31.3317 17.3035 30.814 17.3035 30.1754L17.3816 30.0504L17.3817 28.9258Z" fill="#F89580"/>
<path d="M22.6183 28.9258V30.0504L22.6964 30.1754C22.6964 30.814 23.2141 31.3317 23.8527 31.3317C24.4913 31.3317 25.009 30.814 25.009 30.1754V28.9258H22.6183Z" fill="#F89580"/>
<path d="M17.3036 31.2536H22.6964V38.1846H17.3036V31.2536Z" fill="#918291"/>
<path d="M21.3661 31.3318H22.6964V38.1847H21.3661V31.3318Z" fill="#7A6D79"/>
<path d="M18.6697 31.3318H20V38.1847H18.6697V31.3318Z" fill="#7A6D79"/>
<path d="M20 20.9393C21.7548 20.9393 23.1773 19.5167 23.1773 17.7619C23.1773 16.0071 21.7548 14.5846 20 14.5846C18.2452 14.5846 16.8226 16.0071 16.8226 17.7619C16.8226 19.5167 18.2452 20.9393 20 20.9393Z" fill="#F89580"/>
<path d="M20.6637 14.6546C21.0487 15.1802 21.2765 15.8283 21.2765 16.5298C21.2765 18.2845 19.854 19.7071 18.0991 19.7071C17.8715 19.7071 17.6495 19.6826 17.4355 19.6372C18.0136 20.4265 18.9466 20.9394 20 20.9394C21.7548 20.9394 23.1773 19.5169 23.1773 17.762C23.1773 16.2348 22.0998 14.9598 20.6637 14.6546Z" fill="#EC806B"/>
<path d="M17.3036 22.9399H22.6964V31.3318H17.3036V22.9399Z" fill="#97D729"/>
<path d="M21.0937 22.9399V28.5351C21.0937 29.1823 20.5691 29.707 19.9219 29.707H17.3036V31.3318H22.6964V22.9399H21.0937Z" fill="#8BC727"/>
<path d="M3.0368 23.1634V18.6133H0.585938V23.5656C0.585938 24.2209 1.11711 24.752 1.77234 24.752C2.42758 24.752 2.95875 24.2209 2.95875 23.5656L3.0857 23.1634H3.0368Z" fill="#F89580"/>
<path d="M10.7352 18.6133V23.1634H10.6863L10.8133 23.5656C10.8133 24.2209 11.3445 24.752 11.9997 24.752C12.6549 24.752 13.1861 24.2209 13.1861 23.5656V18.6133H10.7352Z" fill="#F89580"/>
<path d="M3.8782 34.047H9.89383V38.1846H3.8782V34.047Z" fill="#FFB09E"/>
<path d="M8.51562 34.047H9.89383V38.1846H8.51562V34.047Z" fill="#F89580"/>
<path d="M5.50781 34.047H6.88602V38.1846H5.50781V34.047Z" fill="#F89580"/>
<path d="M6.88601 10.4541C9.07948 10.4541 10.8576 8.67598 10.8576 6.4825C10.8576 4.28903 9.07948 2.51086 6.88601 2.51086C4.69253 2.51086 2.91437 4.28903 2.91437 6.4825C2.91437 8.67598 4.69253 10.4541 6.88601 10.4541Z" fill="#F89580"/>
<path d="M2.95868 12.5923H10.8133V23.2416H2.95868V12.5923Z" fill="#FB2B3A"/>
<path d="M2.95868 12.5923H10.8133V23.2416H2.95868V12.5923Z" fill="#FB2B3A"/>
<path d="M8.81415 20.4685C8.81415 21.1156 8.28946 21.6403 7.64227 21.6403H2.95868V23.2415H10.8133V12.5923H8.81407L8.81415 20.4685Z" fill="#E41F2D"/>
<path d="M10.4162 34.1251H3.35587C3.13649 34.1251 2.95868 33.9473 2.95868 33.7279V23.1634H10.8133V33.7279C10.8133 33.9473 10.6355 34.1251 10.4162 34.1251Z" fill="#918291"/>
<path d="M8.81415 31.352C8.81415 31.9992 8.28946 32.5239 7.64227 32.5239H2.95868V33.7279C2.95868 33.9473 3.13649 34.1251 3.35587 34.1251H10.4162C10.6356 34.1251 10.8134 33.9473 10.8134 33.7279V23.1634H8.81415V31.352Z" fill="#7A6D79"/>
<path d="M29.1867 24.708H37.0413V38.1846H29.1867V24.708Z" fill="#918291"/>
<path d="M35.0421 24.708H37.0413V38.1846H35.0421V24.708Z" fill="#7A6D79"/>
<path d="M31.1148 24.708H33.1141V38.1846H31.1148V24.708Z" fill="#7A6D79"/>
<path d="M33.114 9.60444C35.3075 9.60444 37.0856 7.82628 37.0856 5.6328C37.0856 3.43933 35.3075 1.66116 33.114 1.66116C30.9205 1.66116 29.1423 3.43933 29.1423 5.6328C29.1423 7.82628 30.9205 9.60444 33.114 9.60444Z" fill="#F89580"/>
<path d="M34.0986 1.78436C34.6618 2.46991 35 3.34725 35 4.30366C35 6.4971 33.2219 8.2753 31.0284 8.2753C30.6885 8.2753 30.3587 8.23241 30.0438 8.1521C30.7721 9.03874 31.877 9.60444 33.114 9.60444C35.3074 9.60444 37.0856 7.82632 37.0856 5.6328C37.0856 3.77921 35.8158 2.22233 34.0986 1.78436Z" fill="#EC806B"/>
<path d="M7.87055 2.63406C8.43375 3.31961 8.77195 4.19695 8.77195 5.15336C8.77195 7.3468 6.99383 9.125 4.80031 9.125C4.46047 9.125 4.13063 9.08211 3.8157 9.0018C4.54406 9.88844 5.64891 10.4541 6.88594 10.4541C9.07938 10.4541 10.8576 8.67594 10.8576 6.4825C10.8577 4.62891 9.58774 3.07211 7.87055 2.63406Z" fill="#EC806B"/>
<path d="M29.1867 11.7769H37.0413V24.7862H29.1867V11.7769Z" fill="#26A6FE"/>
<path d="M35.0421 11.7769V22.0131C35.0421 22.6603 34.5174 23.185 33.8702 23.185H29.1867V24.7862H37.0413V11.7769H35.0421Z" fill="#0593FC"/>
<path d="M19.7563 2.82445L15.0481 6.58156C14.8066 6.77429 14.666 7.0664 14.666 7.37539V11.2705C14.666 11.4862 14.8409 11.6612 15.0566 11.6612H24.9434C25.1591 11.6612 25.3341 11.4862 25.3341 11.2705V7.37539C25.3341 7.0664 25.1934 6.77421 24.952 6.58156L20.2437 2.82445C20.1011 2.7107 19.8989 2.7107 19.7563 2.82445Z" fill="#CDBFBA"/>
<path d="M24.9519 6.58156L20.2437 2.82445C20.1012 2.7107 19.8989 2.7107 19.7564 2.82445L18.5063 3.82203L22.8442 7.28367C23.0857 7.4764 23.2263 7.76851 23.2263 8.0775V11.6612H24.9434C25.1591 11.6612 25.334 11.4862 25.334 11.2705V7.37539C25.334 7.0664 25.1934 6.77429 24.9519 6.58156Z" fill="#B9ACAC"/>
<path d="M22.2098 11.6612L20.5859 9.44679V7.54968C20.5859 7.22609 20.3236 6.96375 20 6.96375C19.6764 6.96375 19.4141 7.22609 19.4141 7.54968V9.44687L17.7902 11.6612H22.2098V11.6612Z" fill="#A79BA7"/>
<path d="M39.4141 39.2784H0.585938C0.262344 39.2784 0 39.0161 0 38.6925C0 38.3689 0.262344 38.1066 0.585938 38.1066H39.4141C39.7377 38.1066 40 38.3689 40 38.6925C40 39.0161 39.7377 39.2784 39.4141 39.2784Z" fill="#CDBFBA"/>
<path d="M25.2815 2.93046H22.2266V0.986636C22.2266 0.840229 22.3452 0.721558 22.4916 0.721558H25.2815C25.4279 0.721558 25.5466 0.840229 25.5466 0.986636V2.66539C25.5466 2.81179 25.4279 2.93046 25.2815 2.93046Z" fill="#FB2B3A"/>
</g>
<defs>
<clipPath id="clip0_2_1843">
<rect width="40" height="40" fill="white"/>
</clipPath>
</defs>
</svg>
