<svg width="40" height="40" viewBox="0 0 40 40" fill="none" xmlns="http://www.w3.org/2000/svg">
<g clip-path="url(#clip0_2_1659)">
<path fill-rule="evenodd" clip-rule="evenodd" d="M15.342 11.3524C15.342 11.0504 15.5868 10.8056 15.8888 10.8056C16.1909 10.8056 16.4357 11.0504 16.4357 11.3524V15.7009C16.4357 17.5808 15.667 19.2895 14.4287 20.5279C13.1903 21.7663 11.4817 22.5349 9.60181 22.5349C7.72188 22.5349 6.01329 21.7663 4.77485 20.5279C3.53649 19.2895 2.76782 17.5809 2.76782 15.7009V11.3524C2.76782 9.47259 3.53649 7.76391 4.77485 6.52556C6.01321 5.2872 7.72188 4.51852 9.60173 4.51852C9.90376 4.51852 10.1486 4.76337 10.1486 5.0654C10.1486 5.36743 9.90376 5.61227 9.60173 5.61227C8.02368 5.61227 6.58876 6.25821 5.54813 7.29891C4.50751 8.33954 3.86149 9.77454 3.86149 11.3525V15.701C3.86149 17.2791 4.50743 18.714 5.54806 19.7547C6.58868 20.7954 8.02368 21.4413 9.60165 21.4413C11.1796 21.4413 12.6146 20.7954 13.6552 19.7547C14.6959 18.7141 15.3419 17.2791 15.3419 15.701V11.3524H15.342ZM9.13478 15.7009V11.3524C9.13478 11.2245 9.18751 11.1079 9.27235 11.0231C9.3572 10.9381 9.47384 10.8855 9.60173 10.8855C9.72954 10.8855 9.84618 10.9382 9.9311 11.0231C10.0159 11.1079 10.0687 11.2245 10.0687 11.3524V15.7009C10.0687 15.8288 10.0159 15.9455 9.9311 16.0303C9.84618 16.1152 9.72954 16.1679 9.60173 16.1679C9.2997 16.1679 9.05485 16.4127 9.05485 16.7148C9.05485 17.0168 9.2997 17.2616 9.60173 17.2616C10.0314 17.2616 10.4218 17.0862 10.7044 16.8036C10.987 16.521 11.1624 16.1306 11.1624 15.7009V11.3524C11.1624 10.9227 10.987 10.5324 10.7044 10.2498C10.4218 9.9672 10.0315 9.79173 9.60173 9.79173C9.17196 9.79173 8.78165 9.9672 8.49907 10.2498C8.21649 10.5324 8.04103 10.9227 8.04103 11.3524V15.7009C8.04103 16.003 8.28587 16.2478 8.5879 16.2478C8.88993 16.2478 9.13478 16.003 9.13478 15.7009ZM11.8265 11.3524V15.701C11.8265 16.3123 11.576 16.8683 11.1726 17.2718C10.7692 17.6753 10.213 17.9257 9.60181 17.9257C8.99056 17.9257 8.43446 17.6752 8.03102 17.2718C7.62759 16.8684 7.37712 16.3123 7.37712 15.701V11.3524C7.37712 10.7412 7.62759 10.1851 8.03102 9.78165C8.43454 9.37821 8.99063 9.12774 9.60181 9.12774C9.90384 9.12774 10.1487 8.8829 10.1487 8.58087C10.1487 8.27884 9.90384 8.03399 9.60181 8.03399C8.68868 8.03399 7.85892 8.4072 7.25774 9.00837C6.65657 9.60954 6.28337 10.4393 6.28337 11.3524V15.701C6.28337 16.6141 6.65657 17.4439 7.25774 18.0451C7.85892 18.6463 8.68868 19.0195 9.60181 19.0195C10.5149 19.0195 11.3447 18.6463 11.9459 18.0451C12.547 17.4439 12.9202 16.6141 12.9202 15.701V11.3524C12.9202 11.0504 12.6754 10.8056 12.3734 10.8056C12.0713 10.8056 11.8265 11.0504 11.8265 11.3524ZM5.61923 15.7009V11.3524C5.61923 10.2578 6.06743 9.26227 6.78946 8.54024C7.51149 7.81821 8.50704 7.37001 9.60165 7.37001C10.6963 7.37001 11.6918 7.81821 12.4138 8.54024C13.1359 9.26227 13.5841 10.2578 13.5841 11.3524V15.7009C13.5841 16.7956 13.1359 17.7911 12.4138 18.5132C11.6918 19.2352 10.6963 19.6834 9.60165 19.6834C9.29962 19.6834 9.05478 19.9283 9.05478 20.2303C9.05478 20.5324 9.29962 20.7772 9.60165 20.7772C10.9981 20.7772 12.2674 20.2063 13.1871 19.2865C14.1069 18.3667 14.6778 17.0975 14.6778 15.7009V11.3524C14.6778 9.95595 14.1069 8.68673 13.1871 7.76696C12.2674 6.8472 10.9981 6.27626 9.60165 6.27626C8.20509 6.27626 6.93595 6.8472 6.01618 7.76696C5.09642 8.68673 4.52548 9.95595 4.52548 11.3524V15.7009C4.52548 16.003 4.77032 16.2478 5.07235 16.2478C5.37446 16.2478 5.61923 16.003 5.61923 15.7009Z" fill="#FDCD56"/>
<path fill-rule="evenodd" clip-rule="evenodd" d="M18.227 25.53C18.227 25.832 17.9821 26.0769 17.6801 26.0769H13.5421C13.2401 26.0769 12.9952 25.832 12.9952 25.53C12.9952 25.228 13.2401 24.9831 13.5421 24.9831H17.1332V21.392C17.1332 21.09 17.378 20.8452 17.6801 20.8452C17.9821 20.8452 18.227 21.09 18.227 21.392V25.53ZM1.52344 26.0769C1.22141 26.0769 0.976562 25.832 0.976562 25.53V21.392C0.976562 21.09 1.22141 20.8452 1.52344 20.8452C1.82547 20.8452 2.07031 21.09 2.07031 21.392V24.9831H5.66141C5.96344 24.9831 6.20828 25.228 6.20828 25.53C6.20828 25.832 5.96344 26.0769 5.66141 26.0769H1.52344ZM17.6801 0.976562C17.9821 0.976562 18.227 1.22141 18.227 1.52344V5.66141C18.227 5.96344 17.9821 6.20828 17.6801 6.20828C17.378 6.20828 17.1332 5.96344 17.1332 5.66141V2.07031H13.5421C13.2401 2.07031 12.9952 1.82547 12.9952 1.52344C12.9952 1.22141 13.2401 0.976562 13.5421 0.976562H17.6801ZM0.976562 1.52344C0.976562 1.22141 1.22141 0.976562 1.52344 0.976562H5.66141C5.96344 0.976562 6.20828 1.22141 6.20828 1.52344C6.20828 1.82547 5.96344 2.07031 5.66141 2.07031H2.07031V5.66141C2.07031 5.96344 1.82547 6.20828 1.52344 6.20828C1.22141 6.20828 0.976562 5.96344 0.976562 5.66141V1.52344Z" fill="#C7E0EC"/>
<path fill-rule="evenodd" clip-rule="evenodd" d="M19.3883 30.621H25.0189V36.4884H19.3883V30.621Z" fill="#A9B0BB"/>
<path fill-rule="evenodd" clip-rule="evenodd" d="M16.5728 28.948H27.8344C28.0496 28.948 28.225 29.1234 28.225 29.3386V31.5663C28.225 31.7815 28.0496 31.957 27.8344 31.957H16.5728C16.3576 31.957 16.1821 31.7815 16.1821 31.5663V29.3386C16.1821 29.1234 16.3576 28.948 16.5728 28.948Z" fill="#CAD0D7"/>
<path fill-rule="evenodd" clip-rule="evenodd" d="M30.6218 1.71876L32.9525 3.06438C33.1389 3.17196 33.2031 3.41165 33.0955 3.59798L23.953 19.4333C23.8454 19.6196 23.6057 19.6838 23.4194 19.5763L21.0886 18.2306C20.9023 18.1231 20.8381 17.8834 20.9457 17.697L30.0882 1.86173C30.1958 1.6754 30.4355 1.61118 30.6218 1.71876Z" fill="#CAD0D7"/>
<path fill-rule="evenodd" clip-rule="evenodd" d="M27.6788 4.65642L31.8799 7.08197C32.0663 7.18955 32.1305 7.42923 32.0229 7.61556L26.1314 17.8199C26.0238 18.0063 25.7842 18.0705 25.5978 17.9629L21.3967 15.5374C21.2104 15.4299 21.1462 15.1902 21.2538 15.0038L27.1452 4.79947C27.2528 4.61314 27.4925 4.54884 27.6788 4.65642Z" fill="#66D4F1"/>
<path fill-rule="evenodd" clip-rule="evenodd" d="M32.2174 12.8566L30.3488 12.6845L29.845 14.5475C33.6944 22.908 33.0914 29.4156 27.989 35.1525L31.8055 37.0245L36.2644 35.1525C41.5542 26.6366 37.9553 18.7745 32.2174 12.8566Z" fill="#4FC0E8"/>
<path fill-rule="evenodd" clip-rule="evenodd" d="M29.6373 14.5551C31.1837 14.5551 32.445 13.2938 32.445 11.7474C32.445 10.201 31.1837 8.93976 29.6373 8.93976C28.0909 8.93976 26.8297 10.201 26.8297 11.7474C26.8297 13.2938 28.091 14.5551 29.6373 14.5551Z" fill="#38A8D2"/>
<path d="M30.448 12.0791C30.6312 11.6374 30.4215 11.1308 29.9797 10.9477C29.5379 10.7645 29.0313 10.9742 28.8482 11.416C28.6651 11.8578 28.8748 12.3644 29.3166 12.5475C29.7584 12.7306 30.2649 12.5209 30.448 12.0791Z" fill="#66D4F1"/>
<path fill-rule="evenodd" clip-rule="evenodd" d="M17.7123 35.1525H38.6328C38.848 35.1525 39.0235 35.328 39.0235 35.5431V38.6328C39.0235 38.848 38.848 39.0234 38.6328 39.0234H17.7123C17.4971 39.0234 17.3217 38.848 17.3217 38.6328V35.5431C17.3217 35.328 17.4972 35.1525 17.7123 35.1525Z" fill="#38A8D2"/>
</g>
<defs>
<clipPath id="clip0_2_1659">
<rect width="40" height="40" fill="white"/>
</clipPath>
</defs>
</svg>
