<svg width="40" height="39" viewBox="0 0 40 39" fill="none" xmlns="http://www.w3.org/2000/svg">
<path d="M26.25 21.5062V35H21.25V21.5062C21.25 21.3438 21.3188 21.1812 21.4313 21.0687L22.3187 20.1813C22.4312 20.0688 22.5 19.9063 22.5 19.7438V18.75H25V19.7438C25 19.9063 25.0688 20.0688 25.1813 20.1813L26.0687 21.0687C26.1812 21.1812 26.25 21.3438 26.25 21.5062Z" fill="#F0F0F0"/>
<path d="M25.625 23.125V33.75C25.625 34.0938 25.3438 34.375 25 34.375H22.5C22.1562 34.375 21.875 34.0938 21.875 33.75V23.125C21.875 22.7812 22.1562 22.5 22.5 22.5H25C25.3438 22.5 25.625 22.7812 25.625 23.125Z" fill="#00A0C8"/>
<path d="M23.75 31.875C23.75 32.5606 23.1906 33.125 22.5 33.125H21.875V30.625H22.5C23.1875 30.625 23.75 31.1875 23.75 31.875Z" fill="#0082AA"/>
<path d="M22.5 18.75H25V19.375H22.5V18.75Z" fill="#D2D2D2"/>
<path d="M25.625 18.75H21.875C21.53 18.75 21.25 18.47 21.25 18.125C21.25 17.78 21.53 17.5 21.875 17.5H25.625C25.97 17.5 26.25 17.78 26.25 18.125C26.25 18.47 25.97 18.75 25.625 18.75Z" fill="#FAB414"/>
<path d="M18.75 13.0188V33.75C18.75 34.4375 18.1875 35 17.5 35H6.25C5.5625 35 5 34.4375 5 33.75V13.0188C5 12.6875 5.13125 12.3687 5.36875 12.1312L8.75 8.75H15L18.3813 12.1312C18.6187 12.3687 18.75 12.6875 18.75 13.0188Z" fill="#0A5078"/>
<path d="M16.25 33.125V35H12.6688C12.5625 34.8188 12.5 34.6 12.5 34.375C12.5 33.6906 13.0581 33.125 13.75 33.125H16.25Z" fill="#023058"/>
<path d="M17.5 21.875V33.125C17.5 33.47 17.22 33.75 16.875 33.75H6.875C6.53 33.75 6.25 33.47 6.25 33.125V21.875C6.25 21.53 6.53 21.25 6.875 21.25H16.875C17.22 21.25 17.5 21.53 17.5 21.875Z" fill="#023058"/>
<path d="M16.875 29.375H6.875C6.53 29.375 6.25 29.095 6.25 28.75V16.25C6.25 15.905 6.53 15.625 6.875 15.625H16.875C17.22 15.625 17.5 15.905 17.5 16.25V28.75C17.5 29.095 17.22 29.375 16.875 29.375Z" fill="#00143C"/>
<path d="M15.625 9.375H8.125L8.75 8.75H15L15.625 9.375Z" fill="#023058"/>
<path d="M15.625 8.75H8.125C7.78 8.75 7.5 8.47 7.5 8.125V5.625C7.5 5.28 7.78 5 8.125 5H15.625C15.97 5 16.25 5.28 16.25 5.625V8.125C16.25 8.47 15.97 8.75 15.625 8.75Z" fill="#C80A50"/>
<path d="M16.875 28.75H6.875C6.53 28.75 6.25 28.47 6.25 28.125V15.625C6.25 15.28 6.53 15 6.875 15H16.875C17.22 15 17.5 15.28 17.5 15.625V28.125C17.5 28.47 17.22 28.75 16.875 28.75Z" fill="#C80A50"/>
<path d="M13.75 28.125H10C9.655 28.125 9.375 27.845 9.375 27.5C9.375 27.155 9.655 26.875 10 26.875H13.75C14.095 26.875 14.375 27.155 14.375 27.5C14.375 27.845 14.095 28.125 13.75 28.125Z" fill="#9F0226"/>
<path d="M15 19.375H13.125V17.5C13.125 17.155 12.845 16.875 12.5 16.875H11.25C10.905 16.875 10.625 17.155 10.625 17.5V19.375H8.75C8.405 19.375 8.125 19.655 8.125 20V21.25C8.125 21.595 8.405 21.875 8.75 21.875H10.625V23.75C10.625 24.095 10.905 24.375 11.25 24.375H12.5C12.845 24.375 13.125 24.095 13.125 23.75V21.875H15C15.345 21.875 15.625 21.595 15.625 21.25V20C15.625 19.655 15.345 19.375 15 19.375Z" fill="#9F0226"/>
<path d="M15 18.75H13.125V16.875C13.125 16.53 12.845 16.25 12.5 16.25H11.25C10.905 16.25 10.625 16.53 10.625 16.875V18.75H8.75C8.405 18.75 8.125 19.03 8.125 19.375V20.625C8.125 20.97 8.405 21.25 8.75 21.25H10.625V23.125C10.625 23.47 10.905 23.75 11.25 23.75H12.5C12.845 23.75 13.125 23.47 13.125 23.125V21.25H15C15.345 21.25 15.625 20.97 15.625 20.625V19.375C15.625 19.03 15.345 18.75 15 18.75Z" fill="#F0F0F0"/>
<path d="M31.5625 12.5H30.9375V5.3125C30.9375 5.14 31.0775 5 31.25 5C31.4225 5 31.5625 5.14 31.5625 5.3125V12.5Z" fill="#0A5078"/>
<path d="M28.75 29.375V14.375C28.75 14.03 29.03 13.75 29.375 13.75H33.125C33.47 13.75 33.75 14.03 33.75 14.375V29.375C33.75 29.72 33.47 30 33.125 30H29.375C29.03 30 28.75 29.72 28.75 29.375Z" fill="#F0F0F0"/>
<path d="M29.375 24.375V15C29.375 14.655 29.655 14.375 30 14.375H32.5C32.845 14.375 33.125 14.655 33.125 15V24.375C33.125 24.72 32.845 25 32.5 25H30C29.655 25 29.375 24.72 29.375 24.375Z" fill="#00A0C8"/>
<path d="M30 25H32.5V30H30V25Z" fill="#D2D2D2"/>
<path d="M30 25H32.5V25.625H30V25Z" fill="#B4B4B4"/>
<path d="M30 30H32.5V33.75H30V30Z" fill="#F0F0F0"/>
<path d="M28.75 34.375C28.75 34.03 29.03 33.75 29.375 33.75H33.125C33.47 33.75 33.75 34.03 33.75 34.375C33.75 34.72 33.47 35 33.125 35H29.375C29.03 35 28.75 34.72 28.75 34.375Z" fill="#FAB414"/>
<path d="M30 13.75V11.875C30 11.53 30.28 11.25 30.625 11.25H31.875C32.22 11.25 32.5 11.53 32.5 11.875V13.75H30Z" fill="#FAB414"/>
<path d="M27.5 29.375C27.5 29.03 27.78 28.75 28.125 28.75H34.375C34.72 28.75 35 29.03 35 29.375C35 29.72 34.72 30 34.375 30H28.125C27.78 30 27.5 29.72 27.5 29.375Z" fill="#FAB414"/>
<path d="M30 30H32.5V30.625H30V30Z" fill="#D2D2D2"/>
<path d="M13.75 27.5H10C9.655 27.5 9.375 27.22 9.375 26.875C9.375 26.53 9.655 26.25 10 26.25H13.75C14.095 26.25 14.375 26.53 14.375 26.875C14.375 27.22 14.095 27.5 13.75 27.5Z" fill="#F0F0F0"/>
<path d="M30.625 17.5H28.75V16.25H30.625C30.97 16.25 31.25 16.53 31.25 16.875C31.25 17.22 30.97 17.5 30.625 17.5Z" fill="#0A5078"/>
<path d="M30.625 20H28.75V18.75H30.625C30.97 18.75 31.25 19.03 31.25 19.375C31.25 19.72 30.97 20 30.625 20Z" fill="#0A5078"/>
<path d="M30.625 22.5H28.75V21.25H30.625C30.97 21.25 31.25 21.53 31.25 21.875C31.25 22.22 30.97 22.5 30.625 22.5Z" fill="#0A5078"/>
<path d="M16.25 35H13.75C13.0594 35 12.5 34.4406 12.5 33.75C12.5 33.0594 13.0594 32.5 13.75 32.5H16.25V35Z" fill="#F0F0F0"/>
<path d="M18.75 35H16.25V32.5H18.75C19.4406 32.5 20 33.0594 20 33.75C20 34.4406 19.4406 35 18.75 35Z" fill="#C80A50"/>
<path d="M23.75 35H21.25C20.5594 35 20 34.4406 20 33.75C20 33.0594 20.5594 32.5 21.25 32.5H23.75V35Z" fill="#F0F0F0"/>
<path d="M26.25 35H23.75V32.5H26.25C26.9406 32.5 27.5 33.0594 27.5 33.75C27.5 34.4406 26.9406 35 26.25 35Z" fill="#C80A50"/>
<path d="M20 32.5H17.5C16.8094 32.5 16.25 31.9406 16.25 31.25C16.25 30.5594 16.8094 30 17.5 30H20V32.5Z" fill="#F0F0F0"/>
<path d="M22.5 32.5H20V30H22.5C23.1906 30 23.75 30.5594 23.75 31.25C23.75 31.9406 23.1906 32.5 22.5 32.5Z" fill="#C80A50"/>
<path d="M23.125 27.5C23.4702 27.5 23.75 27.2202 23.75 26.875C23.75 26.5298 23.4702 26.25 23.125 26.25C22.7798 26.25 22.5 26.5298 22.5 26.875C22.5 27.2202 22.7798 27.5 23.125 27.5Z" fill="#F0F0F0"/>
<path d="M24.375 25C24.7202 25 25 24.7202 25 24.375C25 24.0298 24.7202 23.75 24.375 23.75C24.0298 23.75 23.75 24.0298 23.75 24.375C23.75 24.7202 24.0298 25 24.375 25Z" fill="#F0F0F0"/>
<path d="M29.375 7.5C29.72 7.5 30 7.22 30 6.875V6.25H29.375C29.03 6.25 28.75 6.53 28.75 6.875C28.75 7.22 29.03 7.5 29.375 7.5Z" fill="#00A0C8"/>
<path d="M33.125 7.5C32.78 7.5 32.5 7.22 32.5 6.875V6.25H33.125C33.47 6.25 33.75 6.53 33.75 6.875C33.75 7.22 33.47 7.5 33.125 7.5Z" fill="#00A0C8"/>
<path d="M28.125 9.375C28.125 6.95875 26.1662 5 23.75 5C21.3338 5 19.375 6.95875 19.375 9.375C19.375 11.5788 21.0056 13.3962 23.125 13.7V14.375C23.125 14.72 23.405 15 23.75 15C24.095 15 24.375 14.72 24.375 14.375V13.7C26.4944 13.3962 28.125 11.5788 28.125 9.375Z" fill="#FAB414"/>
<path d="M25.515 8.30687C25.2856 8.0775 24.9019 8.05187 24.6337 8.30687L23.3075 9.63687L22.865 9.19437C22.6212 8.95062 22.2275 8.95062 21.9837 9.19437C21.7581 9.40875 21.725 9.81687 21.9837 10.0756L22.865 10.9569C23.1087 11.2069 23.5025 11.2069 23.7462 10.9569C23.8762 10.8287 25.3856 9.32312 25.515 9.19437C25.7587 8.95062 25.7587 8.55062 25.515 8.30687Z" fill="#DC960A"/>
<path d="M24.19 9.89437L23.7462 10.3319C23.5025 10.5819 23.1087 10.5819 22.865 10.3319L21.9837 9.45062C21.725 9.19187 21.7581 8.78375 21.9837 8.56937C22.2275 8.32562 22.6212 8.32562 22.865 8.56937L24.19 9.89437Z" fill="#00325A"/>
<path d="M25.515 8.56937L23.7462 10.3319C23.5025 10.5819 23.1087 10.5819 22.865 10.3319L22.4275 9.89437L24.6337 7.68187C24.9019 7.42687 25.2856 7.4525 25.515 7.68187C25.7587 7.92562 25.7587 8.32562 25.515 8.56937Z" fill="#0A5078"/>
</svg>
