<svg xmlns="http://www.w3.org/2000/svg" width="20.812" height="28" viewBox="0 0 20.812 28">
  <g id="_x32_4_Medical_Record" transform="translate(-77.691 -16.106)">
    <g id="Group_1618" data-name="Group 1618" transform="translate(77.691 16.106)">
      <path id="Path_42439" data-name="Path 42439" d="M141.892,64.01h-.2V84.7a2.6,2.6,0,0,1-2.594,2.594h-13.5v.2a1.722,1.722,0,0,0,1.719,1.719h14.578a1.72,1.72,0,0,0,1.719-1.719V65.734A1.723,1.723,0,0,0,141.892,64.01Z" transform="translate(-122.799 -61.214)" fill="#e69186"/>
      <path id="Path_42440" data-name="Path 42440" d="M185.871,86.762a2.861,2.861,0,1,0-2.858-2.858A2.864,2.864,0,0,0,185.871,86.762Zm-1.155-3.3h.721v-.721a.438.438,0,0,1,.875,0v.721h.721a.438.438,0,1,1,0,.875h-.721v.721a.438.438,0,1,1-.875,0v-.721h-.721a.438.438,0,0,1,0-.875Z" transform="translate(-176.866 -77.251)" fill="#e69186"/>
      <path id="Path_42441" data-name="Path 42441" d="M95.707,39.591V17.83a1.726,1.726,0,0,0-1.719-1.724H79.41a1.723,1.723,0,0,0-1.719,1.724V39.591A1.72,1.72,0,0,0,79.41,41.31H93.988A1.722,1.722,0,0,0,95.707,39.591ZM86.7,19.021a3.736,3.736,0,1,1-3.733,3.739A3.743,3.743,0,0,1,86.7,19.021ZM81.662,38.4h-.749a.438.438,0,0,1,0-.875h.749a.438.438,0,0,1,0,.875Zm0-2.318h-.749a.438.438,0,0,1,0-.875h.749a.438.438,0,0,1,0,.875ZM92.484,38.4H83.8a.438.438,0,0,1,0-.875h8.686a.438.438,0,0,1,0,.875Zm0-2.318H83.8a.438.438,0,0,1,0-.875h8.686a.438.438,0,0,1,0,.875Zm0-5.558h-1.2a.438.438,0,0,1-.335-.156l-.9-1.07-1.379,2.82a.438.438,0,0,1-.389.245h0a.437.437,0,0,1-.39-.239l-.8-1.568H86.006l-1.149,2.384a.437.437,0,0,1-.394.247l-.045,0a.437.437,0,0,1-.379-.33l-.808-3.283-.654.981a.438.438,0,0,1-.364.195h-1.3a.438.438,0,1,1,0-.875h1.066l1.075-1.612a.437.437,0,0,1,.789.138L84.6,31.46l.74-1.536a.437.437,0,0,1,.394-.247h1.62a.437.437,0,0,1,.39.239l.524,1.027,1.29-2.637a.438.438,0,0,1,.34-.242.429.429,0,0,1,.388.153l1.2,1.429h1a.438.438,0,1,1,0,.875Z" transform="translate(-77.691 -16.106)" fill="#e69186"/>
    </g>
  </g>
</svg>
