<svg xmlns="http://www.w3.org/2000/svg" width="18" height="20" viewBox="0 0 18 20">
  <path id="padlock_3064155" d="M18.75,7.5H18V5c0-2.758-2.691-5-6-5S6,2.242,6,5V7.5H5.25A2.091,2.091,0,0,0,3,9.375v8.75A2.091,2.091,0,0,0,5.25,20h13.5A2.091,2.091,0,0,0,21,18.125V9.375A2.091,2.091,0,0,0,18.75,7.5ZM8,5c0-1.838,1.794-3.333,4-3.333S16,3.162,16,5V7.5H8Zm5,8.935v1.9a.928.928,0,0,1-1,.833.928.928,0,0,1-1-.833v-1.9A1.638,1.638,0,0,1,10,12.5a1.858,1.858,0,0,1,2-1.667A1.858,1.858,0,0,1,14,12.5,1.638,1.638,0,0,1,13,13.935Z" transform="translate(-3)" fill="#2e2e2e"/>
</svg>
