<svg xmlns="http://www.w3.org/2000/svg" width="14.015" height="14" viewBox="0 0 14.015 14">
  <g id="pencil" transform="translate(0 -0.246)">
    <path id="Path_42591" data-name="Path 42591" d="M8.654,82.473.943,90.184a.307.307,0,0,0-.08.141L.008,93.756a.3.3,0,0,0,.294.377.3.3,0,0,0,.073-.009l3.431-.855a.3.3,0,0,0,.141-.08l7.712-7.711Zm0,0" transform="translate(0 -79.886)" fill="#fff"/>
    <path id="Path_42592" data-name="Path 42592" d="M338.385,1.535l-.858-.858a1.554,1.554,0,0,0-2.147,0l-1.051,1.051,3.005,3,1.051-1.051a1.518,1.518,0,0,0,0-2.147Zm0,0" transform="translate(-324.815)" fill="#fff"/>
  </g>
</svg>
