<svg width="40" height="40" viewBox="0 0 40 40" fill="none" xmlns="http://www.w3.org/2000/svg">
<path d="M31.3333 0.666656H3.33331V6.66666H5.99998V36.6667C5.99863 37.3292 6.24459 37.9684 6.68972 38.4592C7.13485 38.9499 7.7471 39.2569 8.40665 39.32C8.49331 39.3267 8.58665 39.3333 8.67331 39.3333H34V3.33332C34 2.62608 33.719 1.9478 33.2189 1.44771C32.7188 0.947608 32.0406 0.666656 31.3333 0.666656Z" fill="#F9EAB0"/>
<path d="M5.99997 3.33333C6.00001 2.96102 5.92208 2.59284 5.77121 2.25247C5.62034 1.9121 5.39987 1.6071 5.12399 1.35709C4.84811 1.10709 4.52294 0.917622 4.1694 0.800891C3.81587 0.68416 3.44181 0.642751 3.07131 0.67933C2.39957 0.762947 1.78244 1.09191 1.33856 1.60298C0.894678 2.11406 0.655371 2.77117 0.66664 3.448V6C0.66664 6.17681 0.736878 6.34638 0.861903 6.4714C0.986927 6.59643 1.1565 6.66666 1.33331 6.66666H5.99997V3.33333Z" fill="#F3D55B"/>
<path d="M14.6666 31.3333H13.3333C13.1565 31.3333 12.9869 31.2631 12.8619 31.1381C12.7369 31.013 12.6666 30.8435 12.6666 30.6667C12.6666 30.4899 12.7369 30.3203 12.8619 30.1953C12.9869 30.0702 13.1565 30 13.3333 30H14.6666C14.8434 30 15.013 30.0702 15.138 30.1953C15.2631 30.3203 15.3333 30.4899 15.3333 30.6667C15.3333 30.8435 15.2631 31.013 15.138 31.1381C15.013 31.2631 14.8434 31.3333 14.6666 31.3333Z" fill="#3F5C6C"/>
<path d="M10.6666 31.3333H9.33329C9.15648 31.3333 8.98691 31.2631 8.86189 31.1381C8.73686 31.013 8.66663 30.8435 8.66663 30.6667C8.66663 30.4899 8.73686 30.3203 8.86189 30.1953C8.98691 30.0702 9.15648 30 9.33329 30H10.6666C10.8434 30 11.013 30.0702 11.138 30.1953C11.2631 30.3203 11.3333 30.4899 11.3333 30.6667C11.3333 30.8435 11.2631 31.013 11.138 31.1381C11.013 31.2631 10.8434 31.3333 10.6666 31.3333Z" fill="#3F5C6C"/>
<path d="M18.6666 31.3333H17.3333C17.1565 31.3333 16.9869 31.2631 16.8619 31.1381C16.7369 31.013 16.6666 30.8435 16.6666 30.6667C16.6666 30.4899 16.7369 30.3203 16.8619 30.1953C16.9869 30.0702 17.1565 30 17.3333 30H18.6666C18.8434 30 19.013 30.0702 19.138 30.1953C19.2631 30.3203 19.3333 30.4899 19.3333 30.6667C19.3333 30.8435 19.2631 31.013 19.138 31.1381C19.013 31.2631 18.8434 31.3333 18.6666 31.3333Z" fill="#3F5C6C"/>
<path d="M22.6666 31.3333H21.3333C21.1565 31.3333 20.9869 31.2631 20.8619 31.1381C20.7369 31.013 20.6666 30.8435 20.6666 30.6667C20.6666 30.4899 20.7369 30.3203 20.8619 30.1953C20.9869 30.0702 21.1565 30 21.3333 30H22.6666C22.8434 30 23.013 30.0702 23.138 30.1953C23.2631 30.3203 23.3333 30.4899 23.3333 30.6667C23.3333 30.8435 23.2631 31.013 23.138 31.1381C23.013 31.2631 22.8434 31.3333 22.6666 31.3333Z" fill="#3F5C6C"/>
<path d="M26.6666 31.3333H25.3333C25.1565 31.3333 24.9869 31.2631 24.8619 31.1381C24.7369 31.013 24.6666 30.8435 24.6666 30.6667C24.6666 30.4899 24.7369 30.3203 24.8619 30.1953C24.9869 30.0702 25.1565 30 25.3333 30H26.6666C26.8434 30 27.013 30.0702 27.138 30.1953C27.2631 30.3203 27.3333 30.4899 27.3333 30.6667C27.3333 30.8435 27.2631 31.013 27.138 31.1381C27.013 31.2631 26.8434 31.3333 26.6666 31.3333Z" fill="#3F5C6C"/>
<path d="M30.6666 31.3333H29.3333C29.1565 31.3333 28.9869 31.2631 28.8619 31.1381C28.7369 31.013 28.6666 30.8435 28.6666 30.6667C28.6666 30.4899 28.7369 30.3203 28.8619 30.1953C28.9869 30.0702 29.1565 30 29.3333 30H30.6666C30.8434 30 31.013 30.0702 31.138 30.1953C31.2631 30.3203 31.3333 30.4899 31.3333 30.6667C31.3333 30.8435 31.2631 31.013 31.138 31.1381C31.013 31.2631 30.8434 31.3333 30.6666 31.3333Z" fill="#3F5C6C"/>
<path d="M25.3333 9.33333C25.3333 10.7478 24.7714 12.1044 23.7712 13.1046C22.771 14.1048 21.4144 14.6667 20 14.6667C18.5855 14.6667 17.2289 14.1048 16.2287 13.1046C15.2285 12.1044 14.6666 10.7478 14.6666 9.33333H25.3333Z" fill="#F29C1F"/>
<path d="M14.6666 6H25.3333V9.33333H14.6666V6Z" fill="#B0D3F0"/>
<path d="M25.3333 20.6667V23.3333H14.6666V20.6667C15.3124 20.6781 15.9503 20.5243 16.52 20.22C17.7466 19.52 18.2666 18 20 18C21.7333 18 22.2533 19.52 23.48 20.22C24.0496 20.5243 24.6876 20.6781 25.3333 20.6667Z" fill="#F29C1F"/>
<path d="M25.3333 20V20.6667C24.6876 20.6781 24.0496 20.5243 23.48 20.22C22.2533 19.52 21.7333 18 20 18C18.2666 18 17.7466 19.52 16.52 20.22C15.9503 20.5243 15.3124 20.6781 14.6666 20.6667V20C14.6666 18.5855 15.2285 17.2289 16.2287 16.2288C17.2289 15.2286 18.5855 14.6667 20 14.6667C21.4144 14.6667 22.771 15.2286 23.7712 16.2288C24.7714 17.2289 25.3333 18.5855 25.3333 20Z" fill="#B0D3F0"/>
<path d="M12 25.3333C11.8232 25.3333 11.6536 25.2631 11.5286 25.1381C11.4036 25.013 11.3333 24.8435 11.3333 24.6667V4.66667C11.3333 4.48986 11.4036 4.32029 11.5286 4.19526C11.6536 4.07024 11.8232 4 12 4C12.1768 4 12.3464 4.07024 12.4714 4.19526C12.5964 4.32029 12.6666 4.48986 12.6666 4.66667V24.6667C12.6666 24.8435 12.5964 25.013 12.4714 25.1381C12.3464 25.2631 12.1768 25.3333 12 25.3333Z" fill="#7F8284"/>
<path d="M28 25.3333C27.8232 25.3333 27.6536 25.2631 27.5286 25.1381C27.4036 25.013 27.3333 24.8435 27.3333 24.6667V4.66667C27.3333 4.48986 27.4036 4.32029 27.5286 4.19526C27.6536 4.07024 27.8232 4 28 4C28.1768 4 28.3464 4.07024 28.4714 4.19526C28.5964 4.32029 28.6666 4.48986 28.6666 4.66667V24.6667C28.6666 24.8435 28.5964 25.013 28.4714 25.1381C28.3464 25.2631 28.1768 25.3333 28 25.3333Z" fill="#7F8284"/>
<path d="M28 3.33333H12C11.2636 3.33333 10.6666 3.93028 10.6666 4.66666C10.6666 5.40304 11.2636 5.99999 12 5.99999H28C28.7363 5.99999 29.3333 5.40304 29.3333 4.66666C29.3333 3.93028 28.7363 3.33333 28 3.33333Z" fill="#A56A43"/>
<path d="M28 23.3333H12C11.2636 23.3333 10.6666 23.9303 10.6666 24.6667C10.6666 25.403 11.2636 26 12 26H28C28.7363 26 29.3333 25.403 29.3333 24.6667C29.3333 23.9303 28.7363 23.3333 28 23.3333Z" fill="#A56A43"/>
<path d="M8.66663 39.3333H36.6666C37.3739 39.3333 38.0521 39.0524 38.5522 38.5523C39.0523 38.0522 39.3333 37.3739 39.3333 36.6667V33.3333H11.3333V36.6667C11.3333 37.3739 11.0523 38.0522 10.5522 38.5523C10.0521 39.0524 9.37387 39.3333 8.66663 39.3333Z" fill="#F3D55B"/>
</svg>
