<svg width="40" height="38" viewBox="0 0 40 38" fill="none" xmlns="http://www.w3.org/2000/svg">
<path fill-rule="evenodd" clip-rule="evenodd" d="M25.3831 6.96609C24.2485 6.96609 23.6792 8.34062 24.4815 9.14289C24.6292 9.2907 24.6292 9.53039 24.4815 9.67812L23.6666 10.4929C23.5188 10.6407 23.2791 10.6407 23.1314 10.4929C22.3292 9.69062 20.9546 10.2599 20.9546 11.3945C20.9546 11.6036 20.7852 11.773 20.5761 11.773H19.4238C19.2148 11.773 19.0454 11.6036 19.0454 11.3945C19.0454 10.2585 17.6719 9.68961 16.8686 10.4929C16.7208 10.6407 16.4811 10.6407 16.3334 10.4929L15.5185 9.67812C15.3708 9.53031 15.3708 9.29062 15.5185 9.14289C16.3208 8.3407 15.7515 6.96609 14.6169 6.96609C14.4078 6.96609 14.2384 6.79664 14.2384 6.58766V5.43539C14.2384 5.22641 14.4078 5.05695 14.6169 5.05695C15.7515 5.05695 16.3207 3.68242 15.5185 2.88016C15.3708 2.73234 15.3708 2.49273 15.5185 2.34492L16.3334 1.53008C16.4811 1.38227 16.7208 1.38227 16.8686 1.53008C17.6709 2.33234 19.0454 1.76305 19.0454 0.628437C19.0454 0.419297 19.2149 0.25 19.4238 0.25H20.5761C20.7851 0.25 20.9546 0.419375 20.9546 0.628437C20.9546 1.76305 22.3291 2.33227 23.1314 1.53008C23.2792 1.38227 23.5189 1.38227 23.6666 1.53008L24.4815 2.34492C24.6292 2.49273 24.6292 2.73234 24.4815 2.88016C23.6792 3.68242 24.2485 5.05695 25.3831 5.05695C25.5922 5.05695 25.7616 5.22648 25.7616 5.43539V6.58766C25.7616 6.79664 25.5922 6.96609 25.3831 6.96609Z" fill="#FDCD56"/>
<path d="M21.9878 8.00355C23.0871 6.90417 23.0871 5.12174 21.9878 4.02236C20.8884 2.92299 19.106 2.92299 18.0066 4.02236C16.9072 5.12174 16.9072 6.90417 18.0066 8.00355C19.106 9.10292 20.8884 9.10292 21.9878 8.00355Z" fill="#F4F6F8"/>
<path fill-rule="evenodd" clip-rule="evenodd" d="M12.8125 14.9763H27.1875C27.4027 14.9763 27.5781 15.1518 27.5781 15.367V18.1014C27.5781 18.3166 27.4027 18.492 27.1875 18.492H12.8125C12.5973 18.492 12.4219 18.3166 12.4219 18.1014V15.367C12.4219 15.1517 12.5973 14.9763 12.8125 14.9763Z" fill="#66D4F1"/>
<path fill-rule="evenodd" clip-rule="evenodd" d="M12.8125 21.6952H27.1875C27.4027 21.6952 27.5781 21.8706 27.5781 22.0858V24.8202C27.5781 25.0354 27.4027 25.2109 27.1875 25.2109H12.8125C12.5973 25.2109 12.4219 25.0354 12.4219 24.8202V22.0858C12.4219 21.8706 12.5973 21.6952 12.8125 21.6952Z" fill="#C6EA94"/>
<path fill-rule="evenodd" clip-rule="evenodd" d="M29.3488 36.6241C29.1353 36.8376 28.7891 36.8376 28.5755 36.6241C28.362 36.4106 28.362 36.0643 28.5755 35.8507L29.3129 35.1133H20C19.698 35.1133 19.4531 34.8684 19.4531 34.5664V31.1484C19.4531 30.8464 19.698 30.6016 20 30.6016C20.302 30.6016 20.5469 30.8464 20.5469 31.1484V34.0195H29.3129L28.5755 33.2821C28.362 33.0686 28.362 32.7223 28.5755 32.5088C28.789 32.2952 29.1352 32.2952 29.3488 32.5088L31.0198 34.1798C31.2334 34.3933 31.2334 34.7395 31.0198 34.953L29.3488 36.6241ZM8.79367 18.7918C8.58016 19.0053 8.23391 19.0053 8.02031 18.7918C7.8068 18.5783 7.8068 18.232 8.02031 18.0184L8.75773 17.281H1.25C0.947969 17.281 0.703125 17.0362 0.703125 16.7341V6.01157C0.703125 5.70953 0.947969 5.46469 1.25 5.46469H11.8946C12.1966 5.46469 12.4415 5.70953 12.4415 6.01157C12.4415 6.3136 12.1966 6.55844 11.8946 6.55844H1.79688V16.1873H8.75781L8.02039 15.4498C7.80688 15.2363 7.80688 14.8901 8.02039 14.6765C8.23391 14.463 8.58016 14.463 8.79375 14.6765L10.4648 16.3475C10.6783 16.561 10.6783 16.9073 10.4648 17.1209L8.79367 18.7918ZM8.79367 32.2295C8.58016 32.4431 8.23391 32.4431 8.02031 32.2295C7.8068 32.016 7.8068 31.6698 8.02031 31.4562L8.75781 30.7188H1.25C0.947969 30.7188 0.703125 30.4739 0.703125 30.1719V23.4531C0.703125 23.151 0.947969 22.9062 1.25 22.9062H10.078C10.3801 22.9062 10.6249 23.151 10.6249 23.4531C10.6249 23.7551 10.3801 23.9999 10.078 23.9999H1.79688V29.625H8.75781L8.02039 28.8876C7.80688 28.6741 7.80688 28.3278 8.02039 28.1142C8.23391 27.9007 8.58016 27.9007 8.79375 28.1142L10.4648 29.7852C10.6783 29.9988 10.6783 30.345 10.4648 30.5586L8.79367 32.2295ZM31.9796 24.7373C32.1931 24.9509 32.1931 25.2971 31.9796 25.5107C31.7661 25.7242 31.4198 25.7242 31.2063 25.5107L29.5353 23.8397C29.3218 23.6262 29.3218 23.2799 29.5353 23.0663L31.2063 21.3953C31.4198 21.1818 31.7661 21.1818 31.9796 21.3953C32.1931 21.6088 32.1931 21.9551 31.9796 22.1687L31.2422 22.9061H38.2031V17.281H29.922C29.6199 17.281 29.3751 17.0362 29.3751 16.7341C29.3751 16.4321 29.6199 16.1873 29.922 16.1873H38.75C39.052 16.1873 39.2969 16.4321 39.2969 16.7341V23.453C39.2969 23.755 39.052 23.9998 38.75 23.9998H31.2422L31.9796 24.7373Z" fill="#C7E0EC" stroke="#C7E0EC" stroke-width="0.216" stroke-miterlimit="22.926"/>
<path fill-rule="evenodd" clip-rule="evenodd" d="M12.8125 28.4141H27.1875C27.4027 28.4141 27.5781 28.5895 27.5781 28.8047V31.5391C27.5781 31.7542 27.4027 31.9297 27.1875 31.9297H12.8125C12.5973 31.9297 12.4219 31.7542 12.4219 31.5391V28.8047C12.4219 28.5895 12.5973 28.4141 12.8125 28.4141Z" fill="#F76C82"/>
<path fill-rule="evenodd" clip-rule="evenodd" d="M33.1641 31.3828H37.9688C38.3991 31.3828 38.75 31.7338 38.75 32.1641V36.9688C38.75 37.3991 38.3991 37.75 37.9688 37.75H33.1641C32.7338 37.75 32.3828 37.3991 32.3828 36.9688V32.1641C32.3828 31.7338 32.7338 31.3828 33.1641 31.3828Z" fill="#C6EA94"/>
<path fill-rule="evenodd" clip-rule="evenodd" d="M33.529 34.6923C33.3544 34.447 33.4117 34.1064 33.6571 33.9319C33.9025 33.7573 34.243 33.8146 34.4176 34.06L35.0267 34.9132L36.7941 33.3178C37.0183 33.1161 37.3636 33.1342 37.5653 33.3584C37.767 33.5826 37.7489 33.9279 37.5247 34.1296L35.3038 36.1342L35.3034 36.1337C35.288 36.1474 35.2719 36.1605 35.2547 36.1727C35.0093 36.3473 34.6687 36.2899 34.4942 36.0445L33.529 34.6923Z" fill="#F4F6F8"/>
</svg>
