<svg width="40" height="40" viewBox="0 0 40 40" fill="none" xmlns="http://www.w3.org/2000/svg">
<path d="M26.25 14.0319V14.3912C27.0044 14.9625 27.5 15.8581 27.5 16.875C27.5 18.5981 26.0981 20 24.375 20C22.6519 20 21.25 18.5981 21.25 16.875C21.25 15.8581 21.7456 14.9619 22.5 14.3912V14.2056C21.9613 14.4513 21.4625 14.7881 21.0356 15.215L20 16.25L18.9644 15.2144C18.0269 14.2769 16.755 13.75 15.4288 13.75H15.4031C11.2106 13.75 8.88001 18.6 11.4988 21.8738L20 32.5L28.5013 21.8738C30.75 19.0625 29.3444 15.0988 26.25 14.0319Z" fill="#FA6450"/>
<path d="M13.1425 21.8738C10.7013 18.8219 12.5788 14.4025 16.2375 13.8163C15.9769 13.7738 15.6969 13.75 15.4288 13.75H15.4031C11.2106 13.75 8.88001 18.6 11.4988 21.8738L20 32.5L20.8219 31.4725L13.1425 21.8738Z" fill="#DC4632"/>
<path d="M21.32 25.9081L18.7619 19.5125L17.7369 21.5625H13.7938C13.6213 21.5625 13.4813 21.4225 13.4813 21.25C13.4813 21.0775 13.6213 20.9375 13.7938 20.9375H17.3506L18.8256 17.9875L21.2675 24.0919L22.3188 20.9375H26.2938C26.4663 20.9375 26.6063 21.0775 26.6063 21.25C26.6063 21.4225 26.4663 21.5625 26.2938 21.5625H22.7688L21.32 25.9081Z" fill="#F0F0F0"/>
<path d="M23.75 16.25V13.75C23.75 12.3694 24.8694 11.25 26.25 11.25H31.25V12.5H26.25C25.5594 12.5 25 13.0594 25 13.75V16.25H23.75Z" fill="#64C8F0"/>
<path d="M24.375 18.75C23.3394 18.75 22.5 17.9106 22.5 16.875C22.5 15.8394 23.3394 15 24.375 15C25.4106 15 26.25 15.8394 26.25 16.875C26.25 17.9106 25.4106 18.75 24.375 18.75Z" fill="#288CB4"/>
<path d="M20 12.5C22.7614 12.5 25 10.2614 25 7.5C25 4.73858 22.7614 2.5 20 2.5C17.2386 2.5 15 4.73858 15 7.5C15 10.2614 17.2386 12.5 20 12.5Z" fill="#3CC8B4"/>
<path d="M16.2394 7.5C16.2394 4.94875 18.1513 2.84812 20.62 2.5425C20.4163 2.51687 20.21 2.5 20 2.5C17.2387 2.5 15 4.73875 15 7.5C15 10.2613 17.2387 12.5 20 12.5C20.21 12.5 20.4163 12.4831 20.6194 12.4575C18.1513 12.1519 16.2394 10.0512 16.2394 7.5Z" fill="#1EAA96"/>
<path d="M22.5 6.875H20.625V5H19.375V6.875H17.5V8.125H19.375V10H20.625V8.125H22.5V6.875Z" fill="#F0F0F0"/>
<path d="M6.25067 33.75H13.7507V37.5H6.25067V33.75Z" fill="#F0F0F0"/>
<path d="M6.25067 33.75H8.75067V37.5H6.25067V33.75Z" fill="#D2D2D2"/>
<path d="M26.2507 33.75H33.7507V37.5H26.2507V33.75Z" fill="#F0F0F0"/>
<path d="M26.2507 33.75H28.7507V37.5H26.2507V33.75Z" fill="#D2D2D2"/>
<path d="M37.4969 17.5H37.31C36.6988 17.5 36.1775 17.9419 36.0769 18.5444L35.2644 23.4194C35.0932 24.4475 34.605 25.3963 33.8682 26.1325L32.5007 27.5L33.4869 25.5275C33.6607 25.1806 33.7507 24.7975 33.7507 24.4094V24.0081C33.7507 23.4512 33.0775 23.1725 32.6838 23.5663L28.965 27.285C28.0275 28.2225 27.5007 29.4944 27.5007 30.8206V33.75H32.5007V32.5444C32.5007 31.7156 32.83 30.9206 33.4157 30.335L36.035 27.7156C36.9732 26.7775 37.5 25.5088 37.4994 24.1825C37.4988 21.595 37.4969 17.5 37.4969 17.5Z" fill="#F0C8A0"/>
<path d="M2.50502 17.5H2.69189C3.30314 17.5 3.82439 17.9419 3.92502 18.5444L4.73752 23.4194C4.90877 24.4475 5.39689 25.3963 6.13377 26.1325L7.50064 27.5L6.51439 25.5275C6.34064 25.1806 6.25064 24.7975 6.25064 24.4094V24.0081C6.25064 23.4512 6.92377 23.1725 7.31752 23.5663L11.0363 27.285C11.9738 28.2225 12.5006 29.4944 12.5006 30.8206V33.75H7.50064V32.5444C7.50064 31.7156 7.17127 30.9206 6.58564 30.335L3.96627 27.7156C3.02814 26.7775 2.50127 25.5088 2.50189 24.1825C2.50252 21.595 2.50439 17.5006 2.50502 17.5Z" fill="#F0C8A0"/>
<path d="M35 12.5V16.25C35 16.9406 34.4406 17.5 33.75 17.5H31.25C30.5594 17.5 30 16.9406 30 16.25V13.75C30 13.0594 30.5594 12.5 31.25 12.5H35Z" fill="#64C8F0"/>
<path d="M31.25 16.25V13.75C31.25 13.06 31.8094 12.5 32.5 12.5H31.25C30.5594 12.5 30 13.06 30 13.75V16.25C30 16.9406 30.5594 17.5 31.25 17.5H32.5C31.81 17.5 31.25 16.9406 31.25 16.25Z" fill="#46AAD2"/>
<path d="M31.25 11.25H33.75C34.4406 11.25 35 11.8094 35 12.5H31.25V11.25Z" fill="#288CB4"/>
</svg>
