<svg xmlns="http://www.w3.org/2000/svg" width="11" height="18" viewBox="0 0 11 18">
  <g id="reorder" transform="translate(-6.5 -3)">
    <path id="Path_43207" data-name="Path 43207" d="M8.5,7a2,2,0,1,0-2-2A2,2,0,0,0,8.5,7Z" fill="#b8b8b8"/>
    <path id="Path_43208" data-name="Path 43208" d="M8.5,14a2,2,0,1,0-2-2A2,2,0,0,0,8.5,14Z" fill="#b8b8b8"/>
    <path id="Path_43209" data-name="Path 43209" d="M10.5,19a2,2,0,1,1-2-2A2,2,0,0,1,10.5,19Z" fill="#b8b8b8"/>
    <path id="Path_43210" data-name="Path 43210" d="M15.5,7a2,2,0,1,0-2-2A2,2,0,0,0,15.5,7Z" fill="#b8b8b8"/>
    <path id="Path_43211" data-name="Path 43211" d="M17.5,12a2,2,0,1,1-2-2A2,2,0,0,1,17.5,12Z" fill="#b8b8b8"/>
    <path id="Path_43212" data-name="Path 43212" d="M15.5,21a2,2,0,1,0-2-2A2,2,0,0,0,15.5,21Z" fill="#b8b8b8"/>
  </g>
</svg>
