<svg xmlns="http://www.w3.org/2000/svg" width="13.75" height="22" viewBox="0 0 13.75 22">
  <g id="right-arrow" transform="translate(-100.478 1)">
    <g id="Group_1987" data-name="Group 1987" transform="translate(101.478)">
      <g id="Path_42647" data-name="Path 42647" transform="translate(-101.478)" fill="#fff">
        <path d="M 103.2266159057617 20.5 C 102.8001937866211 20.5 102.3998718261719 20.33452033996582 102.0994033813477 20.0340404510498 L 101.4440460205078 19.37900924682617 C 101.1433944702148 19.07789039611816 100.9780120849609 18.67756080627441 100.9780120849609 18.25139999389648 C 100.9780120849609 17.82531929016113 101.143440246582 17.42510986328125 101.4438247680664 17.12449073791504 L 108.5724716186523 9.995849609375 L 101.452262878418 2.875639915466309 C 100.8309860229492 2.254610061645508 100.8308639526367 1.243350028991699 101.4520568847656 0.6214399933815002 L 102.1077423095703 -0.03409000113606453 C 102.4078903198242 -0.3344700038433075 102.8082656860352 -0.5 103.2349166870117 -0.5 C 103.6615447998047 -0.5 104.0619049072266 -0.3344700038433075 104.3622436523438 -0.03390999883413315 L 113.2623672485352 8.866040229797363 C 113.5635223388672 9.16742992401123 113.7287750244141 9.56919002532959 113.7278366088867 9.997440338134766 C 113.7287826538086 10.42273044586182 113.5635757446289 10.82415008544922 113.2626419067383 11.12555027008057 L 104.3538131713867 20.03404998779297 C 104.0536422729492 20.33447074890137 103.6532745361328 20.5 103.2266159057617 20.5 Z" stroke="none"/>
        <path d="M 103.2349014282227 0 C 102.9419021606445 0 102.667106628418 0.1134891510009766 102.4612503051758 0.3195095062255859 L 101.8058013916016 0.9747905731201172 C 101.3793106079102 1.401779174804688 101.3793106079102 2.09575080871582 101.8058013916016 2.522090911865234 L 109.2795715332031 9.995849609375 L 101.7975158691406 17.47790908813477 C 101.591667175293 17.68391990661621 101.4780120849609 17.95854949951172 101.4780120849609 18.25139999389648 C 101.4780120849609 18.54455947875977 101.591667175293 18.81919097900391 101.7975158691406 19.02536964416504 L 102.4529571533203 19.68049049377441 C 102.6589736938477 19.88649940490723 102.9336013793945 20 103.2266159057617 20 C 103.5196228027344 20 103.7944107055664 19.88649940490723 104.0002670288086 19.68049049377441 L 112.9088134765625 10.77227020263672 C 113.1151504516602 10.5656099319458 113.2284851074219 10.28966999053955 113.2278213500977 9.996339797973633 C 113.2284851074219 9.701869964599609 113.1151504516602 9.42609977722168 112.9088134765625 9.219599723815918 L 104.0085678100586 0.3195095062255859 C 103.8027038574219 0.1134891510009766 103.5279006958008 0 103.2349014282227 0 M 103.2349014282227 -1 C 103.7951812744141 -1 104.3211669921875 -0.78240966796875 104.7159423828125 -0.3873195648193359 L 113.6159133911133 8.512490272521973 C 114.0118637084961 8.908749580383301 114.2290878295898 9.436420440673828 114.2278213500977 9.998579978942871 C 114.2290878295898 10.555419921875 114.011962890625 11.08271980285645 113.6164627075195 11.47883033752441 L 104.7073516845703 20.38760948181152 C 104.3128662109375 20.78240966796875 103.7868804931641 21 103.2266159057617 21 C 102.6666641235352 21 102.1407852172852 20.78252029418945 101.7458648681641 20.38760948181152 L 101.0905838012695 19.73265075683594 C 100.6952972412109 19.33674049377441 100.4780120849609 18.81094932556152 100.4780120849609 18.25139999389648 C 100.4780120849609 17.69183921813965 100.6954040527344 17.1661205291748 101.0901336669922 16.77108001708984 L 107.8653564453125 9.995850563049316 L 101.0986938476562 3.22920036315918 C 100.2825927734375 2.413379669189453 100.282356262207 1.084980010986328 101.0982818603516 0.2681007385253906 L 101.7542343139648 -0.3876895904541016 C 102.1486358642578 -0.78240966796875 102.6746139526367 -1 103.2349014282227 -1 Z" stroke="none" fill="#fff"/>
      </g>
    </g>
  </g>
</svg>
