<svg xmlns="http://www.w3.org/2000/svg" width="20.01" height="19.025" viewBox="0 0 20.01 19.025">
  <g id="Layer_2" data-name="Layer 2" transform="translate(-0.5 -1.279)">
    <path id="Path_42641" data-name="Path 42641" d="M18.876,8.164a2.484,2.484,0,0,1-1.958-3.358,1.166,1.166,0,0,0-.349-1.312,9.347,9.347,0,0,0-2.788-1.616,1.172,1.172,0,0,0-1.324.368,2.478,2.478,0,0,1-3.9,0,1.172,1.172,0,0,0-1.324-.368,9.391,9.391,0,0,0-2.6,1.457,1.179,1.179,0,0,0-.368,1.35A2.471,2.471,0,0,1,2.2,8.081a1.172,1.172,0,0,0-1.027.944A8.96,8.96,0,0,0,1,10.8a9.074,9.074,0,0,0,.12,1.489,1.172,1.172,0,0,0,1.033.982,2.471,2.471,0,0,1,2.015,3.492,1.153,1.153,0,0,0,.323,1.381,9.416,9.416,0,0,0,2.763,1.591,1.267,1.267,0,0,0,.4.07A1.166,1.166,0,0,0,8.6,19.31a2.452,2.452,0,0,1,2.028-1.065,2.484,2.484,0,0,1,1.99,1,1.166,1.166,0,0,0,1.369.387,9.505,9.505,0,0,0,2.535-1.514,1.172,1.172,0,0,0,.342-1.337,2.471,2.471,0,0,1,1.983-3.415,1.172,1.172,0,0,0,.995-.963,9.188,9.188,0,0,0,.165-1.6,9.1,9.1,0,0,0-.159-1.694,1.16,1.16,0,0,0-.975-.942Zm-5.2,2.636a3.168,3.168,0,1,1-3.168-3.168A3.168,3.168,0,0,1,13.673,10.8Z" fill="#37393b" stroke="rgba(0,0,0,0)" stroke-width="1"/>
  </g>
</svg>
