<svg xmlns="http://www.w3.org/2000/svg" width="235.516" height="64.99" viewBox="0 0 235.516 64.99">
  <g id="Group_2" data-name="Group 2" transform="translate(397.899 -250.977)">
    <path id="Path_8" data-name="Path 8" d="M349.19,185.127c.328-.154.6-.279.873-.41a12.416,12.416,0,0,1,2.382-.945,8.535,8.535,0,0,1,2.823-.173,7.758,7.758,0,0,1,2.671.7,6.906,6.906,0,0,1,2.433,1.982,7.756,7.756,0,0,1,1.672,3.209,8.312,8.312,0,0,1,.194,1.7c.017,3.77-.005,7.54.018,11.31a1.4,1.4,0,0,1-1.919,1.213,1.459,1.459,0,0,1-.914-1.4c.009-1.963,0-3.926,0-5.889,0-1.609.029-3.218-.01-4.825a6.756,6.756,0,0,0-.938-3.334,3.909,3.909,0,0,0-2.649-1.829,7,7,0,0,0-3.072,0,3.72,3.72,0,0,0-2.73,2.21,8.978,8.978,0,0,0-.808,2.492,2.978,2.978,0,0,0-.026.4q0,5.379,0,10.757a1.288,1.288,0,0,1-.833,1.362,1.488,1.488,0,0,1-1.65-.324,1.131,1.131,0,0,1-.33-.783c-.011-.148-.009-.3-.009-.446V176.4a1.951,1.951,0,0,1,.16-.952,1.169,1.169,0,0,1,1.113-.7,1.388,1.388,0,0,1,1.307.585,1.6,1.6,0,0,1,.241.888v8.9Z" transform="translate(-731 96)" fill="#139491"/>
    <path id="Path_9" data-name="Path 9" d="M368.164,195.2c.774.616,1.538.907,2.38.047.019.2.04.322.043.448a5.659,5.659,0,0,0,.806,2.866,5.542,5.542,0,0,0,4,2.7,5.633,5.633,0,0,0,6.383-4.43,4.77,4.77,0,0,0,.1-.968q.009-9.067.005-18.136c0-.272,0-.273-.286-.273h-5.358a1.268,1.268,0,0,1-.883-.354,1.257,1.257,0,0,1,.86-2.162q3.5,0,6.995,0a1.211,1.211,0,0,1,1.19,1.152c0,.114,0,.227,0,.341,0,6.385.016,12.77-.006,19.156a7.977,7.977,0,0,1-4.5,7.4,6.943,6.943,0,0,1-3.021.839,8.028,8.028,0,0,1-7.936-4.488,7.028,7.028,0,0,1-.845-3.128c-.01-.266,0-.533,0-.8a.968.968,0,0,1,.056-.2" transform="translate(-731 96)" fill="#139491"/>
    <path id="Path_10" data-name="Path 10" d="M395.866,212.025h-2.317V180.466a4.8,4.8,0,0,0-1.876-3.624L371.4,159.778a9.812,9.812,0,0,0-11.707-.066l-21.8,17.786a4.819,4.819,0,0,0-1.955,3.689v31.864h-1.646a1.193,1.193,0,0,1-1.193-1.193V181.187a7.6,7.6,0,0,1,3-5.888l21.794-17.786a12.666,12.666,0,0,1,15.329.093L393.5,174.671a7.574,7.574,0,0,1,2.887,5.795V211.5a.522.522,0,0,1-.522.522" transform="translate(-731 96)" fill="#e69186"/>
    <path id="Path_11" data-name="Path 11" d="M354.812,213.073H334.555a1.4,1.4,0,0,1-1.419-1.4,1.438,1.438,0,0,1,1.419-1.441h20.257a1.42,1.42,0,0,1,0,2.839" transform="translate(-731 96)" fill="#e69186"/>
    <path id="Path_12" data-name="Path 12" d="M394.964,213.073H371.97a1.42,1.42,0,0,1,0-2.839h22.994a1.42,1.42,0,0,1,0,2.839" transform="translate(-731 96)" fill="#e69186"/>
    <path id="Path_13" data-name="Path 13" d="M369.481,195.8a.93.93,0,0,1-.306-.049.945.945,0,0,1-.053-1.767l.264-.206c.25-.194.5-.387.743-.592a13.472,13.472,0,0,0,2.014-2.065,5.277,5.277,0,0,0,.824-1.428,1.721,1.721,0,0,0,.082-.992,1.357,1.357,0,0,0-.55-.755,1.438,1.438,0,0,0-.752-.32,1.676,1.676,0,0,0-.808.124,3.493,3.493,0,0,0-.856.491,1.2,1.2,0,0,1-1.221.122l.629-.9-.549-.728a5.406,5.406,0,0,1,1.314-.745,3.612,3.612,0,0,1,1.682-.242,3.312,3.312,0,0,1,1.722.709,3.211,3.211,0,0,1,1.231,1.819,3.609,3.609,0,0,1-.142,2.06,7.089,7.089,0,0,1-1.1,1.942,15.2,15.2,0,0,1-2.3,2.36c-.262.221-.533.431-.8.642l-.4.308a1.107,1.107,0,0,1-.667.217" transform="translate(-731 96)" fill="#e69186"/>
    <path id="Path_14" data-name="Path 14" d="M369.324,195.766c-.074.071-.625-.173-.709-.233a18.023,18.023,0,0,1-3.639-3.256,6.5,6.5,0,0,1-1.153-2.087,4.647,4.647,0,0,1-.128-.569l-.036-.189a.861.861,0,0,1-.033-.242v-.318a.878.878,0,0,1,.013-.153c.03-.2.047-.307.072-.413a3.3,3.3,0,0,1,1.327-1.92,3.254,3.254,0,0,1,2.308-.647,4.039,4.039,0,0,1,1.687.568c.15.087.292.181.436.275l.137.09a.946.946,0,0,1,.278,1.309.826.826,0,0,1-1.192.318l-.265-.137c-.115-.076-.231-.152-.348-.222a2.224,2.224,0,0,0-.91-.317,1.4,1.4,0,0,0-1.009.287,1.426,1.426,0,0,0-.606.824c-.013.057-.022.12-.031.182l-.005.164,0,.009.038.2a2.724,2.724,0,0,0,.073.342,4.616,4.616,0,0,0,.838,1.485,15.5,15.5,0,0,0,3.144,2.963l-.522.779s.4.748.233.91" transform="translate(-731 96)" fill="#e69186"/>
    <path id="Path_15" data-name="Path 15" d="M430.564,163.175a8.709,8.709,0,0,1,3.488.706,8.985,8.985,0,0,1,4.754,4.74,8.59,8.59,0,0,1,.707,3.473v7.772a1.158,1.158,0,0,1-1.177,1.177,1.188,1.188,0,0,1-.854-.339,1.111,1.111,0,0,1-.353-.838v-7.772a6.359,6.359,0,0,0-.515-2.546,6.648,6.648,0,0,0-3.5-3.5,6.553,6.553,0,0,0-5.093,0,6.648,6.648,0,0,0-3.5,3.5,6.342,6.342,0,0,0-.515,2.546v7.772a1.178,1.178,0,1,1-2.355,0v-7.772a6.359,6.359,0,0,0-.514-2.546,6.657,6.657,0,0,0-3.5-3.5,6.367,6.367,0,0,0-2.547-.515,6.463,6.463,0,0,0-2.561.515,6.607,6.607,0,0,0-3.518,3.5,6.359,6.359,0,0,0-.515,2.546v7.772a1.178,1.178,0,1,1-2.355,0V164.353a1.178,1.178,0,1,1,2.355,0v1.707a9.273,9.273,0,0,1,2.929-2.1,8.992,8.992,0,0,1,8.213.456,8.867,8.867,0,0,1,3.193,3.268,8.894,8.894,0,0,1,3.194-3.268,8.628,8.628,0,0,1,4.548-1.236" transform="translate(-731 96)" fill="#139491"/>
    <path id="Path_16" data-name="Path 16" d="M458.557,163.117a1.117,1.117,0,0,1,.839.353,1.191,1.191,0,0,1,.339.853v15.543a8.571,8.571,0,0,1-.707,3.473,9.02,9.02,0,0,1-4.739,4.739,8.575,8.575,0,0,1-3.474.707,1.185,1.185,0,0,1-.853-.339,1.17,1.17,0,0,1,0-1.677,1.185,1.185,0,0,1,.853-.339,6.361,6.361,0,0,0,2.547-.515,6.657,6.657,0,0,0,3.5-3.5,6.351,6.351,0,0,0,.514-2.546v-1.707a9.238,9.238,0,0,1-2.928,2.1,8.571,8.571,0,0,1-3.636.78,8.692,8.692,0,0,1-3.488-.706,8.956,8.956,0,0,1-4.754-4.754,8.692,8.692,0,0,1-.706-3.488v-7.772a1.186,1.186,0,0,1,.338-.853,1.174,1.174,0,0,1,1.678,0,1.186,1.186,0,0,1,.338.853V172.1a6.447,6.447,0,0,0,.516,2.561,6.564,6.564,0,0,0,3.517,3.517,6.446,6.446,0,0,0,2.561.515,6.344,6.344,0,0,0,2.547-.515,6.619,6.619,0,0,0,3.5-3.517,6.462,6.462,0,0,0,.514-2.561v-7.772a1.191,1.191,0,0,1,.339-.853,1.117,1.117,0,0,1,.839-.353" transform="translate(-731 96)" fill="#139491"/>
    <path id="Path_17" data-name="Path 17" d="M478.427,163.175a8.611,8.611,0,0,1,3.474.706,9.035,9.035,0,0,1,4.739,4.74,8.59,8.59,0,0,1,.706,3.473v7.772a1.178,1.178,0,1,1-2.355,0v-7.772a6.358,6.358,0,0,0-.514-2.546,6.657,6.657,0,0,0-3.5-3.5,6.367,6.367,0,0,0-2.547-.515,6.463,6.463,0,0,0-2.561.515,6.607,6.607,0,0,0-3.518,3.5,6.359,6.359,0,0,0-.515,2.546v7.772a1.178,1.178,0,1,1-2.355,0V156.611a1.178,1.178,0,1,1,2.355,0v9.449a9.273,9.273,0,0,1,2.929-2.1,8.649,8.649,0,0,1,3.665-.78" transform="translate(-731 96)" fill="#139491"/>
    <path id="Path_18" data-name="Path 18" d="M506.421,170.917a1.155,1.155,0,0,1,1.177,1.177,8.7,8.7,0,0,1-.706,3.489,8.991,8.991,0,0,1-4.739,4.753,8.939,8.939,0,0,1-6.933.015,9.265,9.265,0,0,1-2.84-1.9c-.02,0-.03-.009-.03-.029l-.029-.029a9.3,9.3,0,0,1-1.9-2.841,8.937,8.937,0,0,1,.015-6.932,8.985,8.985,0,0,1,4.754-4.74,8.958,8.958,0,0,1,6.9-.029,8.9,8.9,0,0,1,2.885,1.943,1.171,1.171,0,0,1,0,1.678l-10.037,10.038a6.527,6.527,0,0,0,1.737.868,6.589,6.589,0,0,0,4.548-.206,6.617,6.617,0,0,0,3.5-3.518,6.459,6.459,0,0,0,.514-2.561,1.155,1.155,0,0,1,1.178-1.177m-7.742-5.387a6.463,6.463,0,0,0-2.561.515,6.607,6.607,0,0,0-3.518,3.5,6.589,6.589,0,0,0-.206,4.548,6.545,6.545,0,0,0,.869,1.737l9.125-9.125a6.313,6.313,0,0,0-3.709-1.178" transform="translate(-731 96)" fill="#139491"/>
    <path id="Path_19" data-name="Path 19" d="M518.93,163.175a8.611,8.611,0,0,1,3.474.706,9.035,9.035,0,0,1,4.739,4.74,8.59,8.59,0,0,1,.706,3.473v7.772a1.178,1.178,0,1,1-2.355,0v-1.708a9.269,9.269,0,0,1-2.928,2.1,8.589,8.589,0,0,1-3.636.78,8.693,8.693,0,0,1-3.488-.707,8.941,8.941,0,0,1-4.754-4.753,8.7,8.7,0,0,1-.707-3.489,8.591,8.591,0,0,1,.707-3.473,8.985,8.985,0,0,1,4.754-4.74,8.709,8.709,0,0,1,3.488-.706m0,15.513a6.367,6.367,0,0,0,2.547-.515,6.617,6.617,0,0,0,3.5-3.518,6.459,6.459,0,0,0,.514-2.561,6.358,6.358,0,0,0-.514-2.546,6.657,6.657,0,0,0-3.5-3.5,6.367,6.367,0,0,0-2.547-.515,6.463,6.463,0,0,0-2.561.515,6.607,6.607,0,0,0-3.518,3.5,6.359,6.359,0,0,0-.515,2.546,6.459,6.459,0,0,0,.515,2.561,6.568,6.568,0,0,0,3.518,3.518,6.463,6.463,0,0,0,2.561.515" transform="translate(-731 96)" fill="#139491"/>
    <path id="Path_20" data-name="Path 20" d="M539.182,186.43a1.178,1.178,0,1,1,0,2.355,8.693,8.693,0,0,1-3.488-.706,8.985,8.985,0,0,1-4.754-4.74,8.571,8.571,0,0,1-.707-3.473V156.611a1.178,1.178,0,1,1,2.355,0v23.255a6.352,6.352,0,0,0,.515,2.546,6.607,6.607,0,0,0,3.518,3.5,6.463,6.463,0,0,0,2.561.515" transform="translate(-731 96)" fill="#139491"/>
    <path id="Path_21" data-name="Path 21" d="M547.217,163.117a1.117,1.117,0,0,1,.839.353,1.191,1.191,0,0,1,.339.853,1.156,1.156,0,0,1-1.178,1.178h-6.593v14.365a1.178,1.178,0,1,1-2.356,0V165.5h-2.03a1.156,1.156,0,0,1-1.178-1.178,1.187,1.187,0,0,1,.339-.853,1.115,1.115,0,0,1,.839-.353h2.03v-6.476a1.178,1.178,0,1,1,2.356,0v6.476Z" transform="translate(-731 96)" fill="#139491"/>
    <path id="Path_22" data-name="Path 22" d="M559.7,163.175a8.611,8.611,0,0,1,3.474.706,9.035,9.035,0,0,1,4.739,4.74,8.59,8.59,0,0,1,.706,3.473v7.772a1.178,1.178,0,1,1-2.355,0v-7.772a6.358,6.358,0,0,0-.514-2.546,6.657,6.657,0,0,0-3.5-3.5,6.368,6.368,0,0,0-2.547-.515,6.463,6.463,0,0,0-2.561.515,6.607,6.607,0,0,0-3.518,3.5,6.359,6.359,0,0,0-.515,2.546v7.772a1.178,1.178,0,1,1-2.355,0V156.611a1.178,1.178,0,1,1,2.355,0v9.449a9.272,9.272,0,0,1,2.929-2.1,8.648,8.648,0,0,1,3.665-.78" transform="translate(-731 96)" fill="#139491"/>
    <path id="Path_23" data-name="Path 23" d="M420.41,212.226a8.709,8.709,0,0,1-3.488-.706,8.947,8.947,0,0,1-4.754-4.754,8.7,8.7,0,0,1-.707-3.489,1.178,1.178,0,1,1,2.355,0,6.46,6.46,0,0,0,.515,2.561,6.568,6.568,0,0,0,3.518,3.518,6.446,6.446,0,0,0,2.561.515,6.35,6.35,0,0,0,2.547-.515,6.617,6.617,0,0,0,3.5-3.518,6.459,6.459,0,0,0,.514-2.561v-14.3H420.41a1.187,1.187,0,0,1-.854-.339,1.174,1.174,0,0,1,0-1.678,1.191,1.191,0,0,1,.854-.338h7.742a1.155,1.155,0,0,1,1.177,1.177v15.483a8.7,8.7,0,0,1-.706,3.489,9,9,0,0,1-4.739,4.754,8.611,8.611,0,0,1-3.474.706" transform="translate(-731 96)" fill="#e69186"/>
    <path id="Path_24" data-name="Path 24" d="M440.661,212.226a8.693,8.693,0,0,1-3.488-.707,8.941,8.941,0,0,1-4.754-4.753,8.7,8.7,0,0,1-.707-3.489,8.59,8.59,0,0,1,.707-3.473,8.985,8.985,0,0,1,4.754-4.74,8.709,8.709,0,0,1,3.488-.706,8.611,8.611,0,0,1,3.474.706,9.035,9.035,0,0,1,4.739,4.74,8.59,8.59,0,0,1,.706,3.473,8.7,8.7,0,0,1-.706,3.489,8.991,8.991,0,0,1-4.739,4.753,8.6,8.6,0,0,1-3.474.707m0-15.513a6.463,6.463,0,0,0-2.561.515,6.607,6.607,0,0,0-3.518,3.5,6.359,6.359,0,0,0-.515,2.546,6.46,6.46,0,0,0,.515,2.561,6.568,6.568,0,0,0,3.518,3.518,6.463,6.463,0,0,0,2.561.515,6.368,6.368,0,0,0,2.547-.515,6.617,6.617,0,0,0,3.5-3.518,6.459,6.459,0,0,0,.514-2.561,6.359,6.359,0,0,0-.514-2.546,6.657,6.657,0,0,0-3.5-3.5,6.368,6.368,0,0,0-2.547-.515" transform="translate(-731 96)" fill="#e69186"/>
    <path id="Path_25" data-name="Path 25" d="M468.654,194.358a1.158,1.158,0,0,1,1.178,1.178v15.513a1.178,1.178,0,1,1-2.356,0v-1.708a9.257,9.257,0,0,1-2.928,2.1,8.586,8.586,0,0,1-3.636.78,8.693,8.693,0,0,1-3.488-.707,8.95,8.95,0,0,1-4.754-4.753,8.7,8.7,0,0,1-.706-3.489v-7.741a1.177,1.177,0,1,1,2.354,0v7.741a6.443,6.443,0,0,0,.516,2.561,6.562,6.562,0,0,0,3.517,3.518,6.463,6.463,0,0,0,2.561.515,6.361,6.361,0,0,0,2.547-.515,6.617,6.617,0,0,0,3.5-3.518,6.459,6.459,0,0,0,.514-2.561v-7.741a1.158,1.158,0,0,1,1.178-1.178" transform="translate(-731 96)" fill="#e69186"/>
    <path id="Path_26" data-name="Path 26" d="M481.164,194.358a1.178,1.178,0,1,1,0,2.355,6.463,6.463,0,0,0-2.561.515,6.607,6.607,0,0,0-3.518,3.5,6.359,6.359,0,0,0-.515,2.546v7.772a1.178,1.178,0,1,1-2.355,0v-7.772a8.59,8.59,0,0,1,.707-3.473,8.985,8.985,0,0,1,4.754-4.74,8.709,8.709,0,0,1,3.488-.706" transform="translate(-731 96)" fill="#e69186"/>
    <path id="Path_27" data-name="Path 27" d="M493.646,194.358a8.611,8.611,0,0,1,3.474.706,9.035,9.035,0,0,1,4.739,4.74,8.59,8.59,0,0,1,.706,3.473v7.772a1.178,1.178,0,1,1-2.355,0v-7.772a6.359,6.359,0,0,0-.514-2.546,6.657,6.657,0,0,0-3.5-3.5,6.367,6.367,0,0,0-2.547-.515,6.463,6.463,0,0,0-2.561.515,6.608,6.608,0,0,0-3.518,3.5,6.359,6.359,0,0,0-.515,2.546v7.772a1.178,1.178,0,1,1-2.355,0V195.536a1.178,1.178,0,1,1,2.355,0v1.707a9.273,9.273,0,0,1,2.929-2.1,8.649,8.649,0,0,1,3.665-.78" transform="translate(-731 96)" fill="#e69186"/>
    <path id="Path_28" data-name="Path 28" d="M513.9,194.358a8.6,8.6,0,0,1,3.474.707,9.029,9.029,0,0,1,4.739,4.739,8.591,8.591,0,0,1,.706,3.473v7.772a1.178,1.178,0,1,1-2.355,0v-1.708a9.268,9.268,0,0,1-2.928,2.1,8.589,8.589,0,0,1-3.636.78,8.709,8.709,0,0,1-3.488-.706,8.947,8.947,0,0,1-4.754-4.754,8.7,8.7,0,0,1-.707-3.489,8.59,8.59,0,0,1,.707-3.473,8.979,8.979,0,0,1,4.754-4.739,8.693,8.693,0,0,1,3.488-.707m0,15.513a6.368,6.368,0,0,0,2.547-.515,6.617,6.617,0,0,0,3.5-3.518,6.459,6.459,0,0,0,.514-2.561,6.358,6.358,0,0,0-.514-2.546,6.657,6.657,0,0,0-3.5-3.5,6.368,6.368,0,0,0-2.547-.515,6.463,6.463,0,0,0-2.561.515,6.607,6.607,0,0,0-3.518,3.5,6.359,6.359,0,0,0-.515,2.546,6.46,6.46,0,0,0,.515,2.561,6.568,6.568,0,0,0,3.518,3.518,6.463,6.463,0,0,0,2.561.515" transform="translate(-731 96)" fill="#e69186"/>
    <path id="Path_29" data-name="Path 29" d="M534.149,217.612a1.178,1.178,0,1,1,0,2.355,8.692,8.692,0,0,1-3.488-.706,8.985,8.985,0,0,1-4.754-4.74,8.57,8.57,0,0,1-.707-3.473V187.793a1.178,1.178,0,1,1,2.355,0v23.255a6.352,6.352,0,0,0,.515,2.546,6.607,6.607,0,0,0,3.518,3.5,6.463,6.463,0,0,0,2.561.515" transform="translate(-731 96)" fill="#e69186"/>
  </g>
</svg>
