<svg width="36" height="40" viewBox="0 0 36 40" fill="none" xmlns="http://www.w3.org/2000/svg">
<path d="M23.052 40C23.028 39.62 23.008 39.256 22.988 38.9C23.46 38.816 23.072 38.884 24.528 38.636C24.644 39.096 24.748 39.548 24.852 40H31.412C30.904 35.9 30.384 33.916 30.268 33.644L15.956 35.672C15.956 35.672 16.168 37.232 16.576 40.004H23.052V40Z" fill="#873FC5"/>
<path d="M3.94799 10.676C2.61199 11.252 -2.06 20.1 1.044 23.584C3.544 25.6 11.736 22.436 11.736 22.436C11.736 22.436 14.968 29.868 15.02 36.756C15.028 38.092 20.932 39.424 29.792 34.196C31.34 33.284 32.136 31.828 30.276 28.644C36.684 22.888 36.656 21.636 34.796 19.896C33.928 19.084 30.804 16.74 26.912 14.588C22.208 11.988 17.516 13.784 17.516 13.784L11.648 15.772L5.384 19.228C5.384 19.228 6.36 16.916 6.384 13.78L3.94799 10.676ZM27.452 24.512L24.904 20.28L29.38 22.836L27.452 24.512Z" fill="#FF3969"/>
<path d="M12.824 14.292C12.824 14.292 13.132 14.908 13.26 15.208C12.76 15.396 12.912 15.36 12.292 15.56C12.48 16.22 13.312 18.212 16.32 17.352C18.968 16.592 18.92 14.288 18.684 13.464C18.684 13.464 18.18 13.552 17.516 13.784C16.812 12.484 16.116 11.04 16.116 11.04C16.116 11.04 12.904 13 12.824 14.292Z" fill="#F7D0C2"/>
<path d="M26.916 30.548C26.916 30.548 26.22 29.36 26.056 29.116C25.556 29.352 25.376 29.832 25.1 29.876C25.616 30.46 26.432 30.656 26.916 30.548Z" fill="#873FC5"/>
<path d="M24.228 27.3C24.2 27.304 24.176 27.296 24.156 27.272C24.128 27.24 24.136 27.192 24.168 27.164C25.044 26.452 27.352 24.436 27.376 24.416C27.408 24.388 27.456 24.392 27.484 24.424C27.512 24.456 27.508 24.504 27.476 24.532C27.452 24.552 25.14 26.568 24.264 27.284C24.256 27.292 24.244 27.296 24.228 27.3Z" fill="white"/>
<path d="M27.772 30.308C27.604 30.336 27.44 30.344 27.292 30.324C27.252 30.32 27.22 30.28 27.224 30.24C27.228 30.2 27.268 30.168 27.308 30.172C28.548 30.316 30.236 28.648 30.252 28.632C30.28 28.604 30.328 28.604 30.36 28.632C30.388 28.66 30.388 28.708 30.36 28.74C30.356 28.744 29.92 29.176 29.332 29.588C28.752 29.988 28.228 30.232 27.772 30.308Z" fill="white"/>
<path d="M29.204 23.028L29.264 22.792C29.272 22.756 29.512 21.88 31.08 21.56C31.12 21.552 31.16 21.576 31.168 21.62C31.176 21.66 31.152 21.7 31.108 21.708C30.34 21.864 29.92 22.164 29.7 22.384C29.632 22.452 29.58 22.52 29.54 22.58C29.952 22.34 30.868 21.964 32.248 22.264C32.288 22.272 32.316 22.312 32.308 22.356C32.3 22.396 32.26 22.424 32.216 22.416C30.388 22.02 29.396 22.864 29.384 22.872L29.204 23.028Z" fill="white"/>
<path d="M11.908 22.868L11.632 22.492C11.624 22.48 10.7 21.208 10.42 19.94C10.412 19.9 10.436 19.86 10.476 19.848C10.516 19.84 10.556 19.864 10.568 19.904C10.744 20.7 11.18 21.5 11.472 21.972C11.2 21.028 10.652 18.936 10.684 17.524C10.684 17.484 10.72 17.448 10.76 17.448C10.8 17.448 10.836 17.484 10.836 17.524C10.796 19.356 11.752 22.384 11.764 22.416L11.908 22.868Z" fill="white"/>
<path d="M12.292 15.56C12.292 15.56 12.964 18.26 16.02 17.384C18.876 16.568 18.904 14.356 18.684 13.464L19.356 13.336C19.484 14.264 19.656 16.864 16.056 17.896C12.604 18.884 11.648 15.772 11.648 15.772L12.292 15.56Z" fill="#873FC5"/>
<path d="M15.572 18.076C14.98 18.176 14.436 18.164 13.94 18.04C13.4 17.908 12.92 17.644 12.512 17.256C11.82 16.6 11.584 15.824 11.576 15.792L11.72 15.748C11.724 15.756 11.956 16.52 12.62 17.148C13.008 17.516 13.464 17.764 13.98 17.892C14.624 18.052 15.364 18.012 16.172 17.78C17.672 17.352 18.656 16.54 19.088 15.372C19.316 14.76 19.384 14.04 19.28 13.348L19.432 13.324C19.508 13.832 19.532 14.612 19.232 15.424C18.78 16.64 17.764 17.484 16.212 17.928C15.996 17.992 15.78 18.04 15.572 18.076Z" fill="white"/>
<path d="M19 20.536L23.176 19.04L24.624 22.556C24.624 22.556 24.336 23.404 22.692 24.108C20.948 24.268 20.436 23.792 20.436 23.792L19 20.536Z" fill="#873FC5"/>
<path d="M19.3491 21.2552L23.497 19.7565L23.5487 19.8995L19.4008 21.3982L19.3491 21.2552Z" fill="white"/>
<path d="M15.536 7.152C15.536 7.152 16.74 6.264 17.552 7.432C18.364 8.6 17.184 9.856 16.32 10.056C16.32 10.056 17.292 13.436 12.472 14.588C7.85999 15.692 7.17999 8.756 7.53599 7.712C7.53599 7.712 8.09199 5.216 12.028 4.228C15.96 3.24 15.536 7.152 15.536 7.152Z" fill="#F7D0C2"/>
<path d="M12.884 4.752C12.884 4.752 13.684 7.284 14.96 8.408C15.156 8.524 15.532 7.152 15.532 7.152C15.532 7.152 15.86 6.856 16.504 6.816C16.94 5.928 16.156 2.052 13.476 2.136C13.476 2.136 11.336 1.076 8.66398 3.18C6.31998 5.024 7.08798 7.4 7.32398 7.668C7.55998 7.94 10.076 6.836 11.228 5.56C11.132 5.984 10.692 6.532 10.264 6.884C9.83598 7.24 12.472 6.476 12.884 4.752Z" fill="black"/>
<path d="M8.28399 9.084C8.56799 9.116 8.83599 8.98 8.86799 8.828C8.90799 8.624 8.64399 8.816 8.38799 8.796C8.01199 8.768 7.92799 8.628 7.83199 8.66C7.70799 8.704 7.88799 9.04 8.28399 9.084Z" fill="black"/>
<path d="M11.488 7.956C11.256 8.172 10.92 8.228 10.792 8.112C10.62 7.952 11.032 7.96 11.252 7.772C11.572 7.496 11.508 7.304 11.612 7.272C11.756 7.228 11.816 7.652 11.488 7.956Z" fill="black"/>
<path d="M10.348 9.924C10.348 10.052 10.26 10.988 10.288 11.176C10.316 11.364 10.616 11.352 10.728 11.376C10.84 11.396 10.576 11.52 10.236 11.436C9.95198 11.324 10.132 10.688 10.24 9.94C10.276 9.828 10.348 9.832 10.348 9.924Z" fill="black"/>
<path d="M11.936 12.2C12.292 12.024 12.544 12.004 12.696 12.004C12.848 12.004 12.836 11.912 12.716 11.884C12.596 11.856 12.184 11.88 11.856 12.064C11.528 12.248 11.164 12.588 11.08 12.944C11.02 13.188 11.196 13.116 11.248 12.956C11.304 12.788 11.552 12.392 11.936 12.2Z" fill="black"/>
<path d="M15.924 9.552C15.9 9.556 15.88 9.544 15.872 9.52C15.864 9.496 15.88 9.472 15.904 9.464C15.908 9.464 16.284 9.348 16.384 9.168C16.408 9.128 16.412 9.088 16.4 9.044C16.372 8.948 16.268 8.852 16.16 8.748C15.988 8.588 15.796 8.408 15.812 8.156C15.824 7.932 16 7.696 16.348 7.428C16.368 7.412 16.396 7.416 16.412 7.436C16.428 7.456 16.424 7.484 16.404 7.5C16.076 7.748 15.912 7.964 15.904 8.16C15.892 8.368 16.06 8.524 16.224 8.68C16.344 8.792 16.456 8.896 16.488 9.016C16.508 9.08 16.5 9.144 16.468 9.208C16.352 9.42 15.952 9.544 15.936 9.548C15.928 9.552 15.928 9.552 15.924 9.552Z" fill="black"/>
<path d="M12.92 14.516C12.896 14.52 12.876 14.504 12.868 14.484C12.86 14.46 12.876 14.436 12.9 14.428C12.912 14.424 13.92 14.164 14.836 13.496C15.372 13.104 15.772 12.652 16.024 12.152C16.34 11.528 16.424 10.824 16.276 10.064L16.268 10.024L16.308 10.012C16.32 10.008 17.536 9.652 17.756 8.508C17.76 8.484 17.784 8.468 17.808 8.472C17.832 8.476 17.848 8.5 17.844 8.524C17.64 9.604 16.592 10.012 16.372 10.084C16.512 10.852 16.424 11.56 16.104 12.192C15.844 12.704 15.436 13.168 14.888 13.568C13.96 14.248 12.936 14.512 12.92 14.516C12.924 14.516 12.924 14.516 12.92 14.516Z" fill="black"/>
<path d="M17.78 7.94C17.756 7.944 17.736 7.932 17.728 7.908C17.724 7.9 17.492 7.184 16.892 6.956C16.512 6.812 16.06 6.892 15.556 7.192C15.536 7.204 15.508 7.196 15.492 7.176C15.48 7.156 15.488 7.128 15.508 7.112C16.04 6.796 16.516 6.712 16.924 6.868C17.564 7.112 17.804 7.844 17.812 7.876C17.82 7.9 17.808 7.924 17.784 7.932C17.784 7.94 17.784 7.94 17.78 7.94Z" fill="black"/>
<path d="M8.38799 10.56C8.38799 10.56 8.71599 10.38 9.19199 10.468C9.34799 10.468 8.98799 9.944 8.32399 10.408C8.19999 10.524 8.20399 10.632 8.38799 10.56Z" fill="black"/>
<path d="M12.212 9.216C12.212 9.216 11.844 9.28 11.524 9.644C11.4 9.74 11.36 9.104 12.168 9.056C12.34 9.072 12.404 9.156 12.212 9.216Z" fill="black"/>
<path d="M5.66799 3.388C6.11199 3.548 6.12399 4.188 6.05999 4.692C6.62799 3.904 7.68799 3.304 9.75199 3.264C10.46 3.276 10.556 3.488 10.532 3.636C11.184 3.692 10.792 4.272 10.348 4.496C11.204 4.504 11.132 4.756 10.888 4.984C10.644 5.212 8.97199 5.768 8.79599 6.788C8.02399 11.212 6.34799 12.36 6.34799 12.36C6.34799 12.36 5.01599 11.56 4.69199 9.988C4.69199 9.988 5.10799 9.26 5.06799 8.956C4.72399 6.252 4.62799 4.244 5.66799 3.388Z" fill="#F7D0C2"/>
<path d="M7.76799 6.52C7.75999 6.52 7.74799 6.52 7.73999 6.516C7.71599 6.504 7.70799 6.476 7.71999 6.456C8.48399 4.944 10.32 4.464 10.34 4.46C10.364 4.452 10.388 4.468 10.396 4.492C10.404 4.516 10.388 4.54 10.364 4.548C10.344 4.552 8.54799 5.024 7.80399 6.496C7.79199 6.508 7.77999 6.516 7.76799 6.52Z" fill="black"/>
<path d="M7.10399 5.948C7.09599 5.948 7.08399 5.948 7.07599 5.944C7.05199 5.932 7.04799 5.904 7.05999 5.884C7.60799 4.896 8.52399 4.328 9.19199 4.024C9.91599 3.696 10.52 3.6 10.528 3.6C10.552 3.596 10.576 3.612 10.58 3.636C10.584 3.66 10.568 3.684 10.544 3.688C10.544 3.688 10.544 3.688 10.54 3.688C10.428 3.708 8.14799 4.112 7.13999 5.928C7.12799 5.936 7.11599 5.944 7.10399 5.948Z" fill="black"/>
<path d="M6.43599 5.336C6.42799 5.336 6.41599 5.336 6.40799 5.332C6.38399 5.32 6.37599 5.292 6.38799 5.272C7.05999 3.904 8.94399 3.324 8.95999 3.32C8.98399 3.312 9.00799 3.328 9.01599 3.352C9.02399 3.376 9.00799 3.4 8.98399 3.408C8.96399 3.412 7.11999 3.98 6.46399 5.316C6.45999 5.328 6.44799 5.336 6.43599 5.336Z" fill="black"/>
<path d="M6.91199 12.872C6.91199 12.872 6.53999 12.576 6.34399 12.356C6.67999 11.976 6.91999 11.756 7.12399 11.472C7.18399 12.22 7.13999 12.432 6.91199 12.872Z" fill="#873FC5"/>
<path d="M4.63197 9.724C4.66397 9.808 5.12397 11.368 6.91197 12.872L6.38397 13.78C6.38397 13.78 4.38797 12.972 3.94397 10.676L4.63197 9.724Z" fill="white"/>
<path d="M6.39998 13.856C6.38798 13.86 6.37198 13.856 6.35998 13.852C6.33998 13.844 5.84398 13.64 5.28398 13.148C4.76798 12.692 4.10798 11.9 3.87198 10.692C3.86798 10.672 3.87198 10.652 3.88398 10.632L4.56798 9.68C4.58398 9.656 4.61198 9.644 4.63998 9.648C4.66798 9.652 4.69198 9.672 4.69998 9.696C4.69998 9.7 4.70398 9.708 4.70798 9.716C4.83998 10.108 5.38798 11.488 6.95998 12.812C6.98798 12.836 6.99598 12.876 6.97598 12.908L6.44798 13.816C6.43998 13.84 6.41998 13.856 6.39998 13.856ZM4.02798 10.696C4.25998 11.84 4.88798 12.6 5.37998 13.032C5.80798 13.412 6.20798 13.616 6.35598 13.688L6.81598 12.892C5.37998 11.668 4.79598 10.396 4.60798 9.888L4.02798 10.696Z" fill="#FF3969"/>
<path d="M7.688 10.54C7.68 10.54 7.668 10.54 7.66 10.536C7.64 10.524 7.632 10.496 7.644 10.476C8.136 9.596 8.652 7.328 8.66 7.304C8.664 7.28 8.688 7.264 8.716 7.268C8.74 7.272 8.756 7.296 8.752 7.324C8.732 7.416 8.228 9.628 7.728 10.52C7.716 10.532 7.704 10.54 7.688 10.54Z" fill="black"/>
<path d="M25.92 29.948C25.396 32.864 21.192 33.828 20.904 33.116C20.44 33.26 19.636 33.228 19.808 32.748C19.108 32.82 18.744 32.464 18.96 32.144C18.456 32.076 18.308 31.352 18.952 31.3C21.664 30.432 22.1 29.216 21.872 28.756C20.392 28.492 20.064 27.732 20.16 27.488C20.256 27.248 21.244 27.2 23.388 27.4C23.388 27.4 23.844 27.444 24.328 27.208C25.312 28.124 26.068 29.168 26.068 29.168L25.92 29.948Z" fill="#F7D0C2"/>
<path d="M20.944 33.152C20.924 33.156 20.912 33.156 20.908 33.156C20.884 33.16 20.86 33.144 20.856 33.116C20.852 33.092 20.868 33.068 20.896 33.064C20.908 33.064 22.248 32.868 23.676 31.936C23.696 31.924 23.724 31.928 23.74 31.948C23.752 31.968 23.748 31.996 23.728 32.012C22.408 32.876 21.164 33.116 20.944 33.152Z" fill="black"/>
<path d="M19.812 32.792C19.788 32.796 19.764 32.78 19.76 32.756C19.756 32.732 19.768 32.708 19.792 32.7C19.808 32.696 21.248 32.356 22.916 31.36C22.936 31.348 22.964 31.356 22.98 31.376C22.992 31.396 22.984 31.424 22.964 31.44C21.284 32.444 19.832 32.788 19.812 32.792C19.816 32.792 19.816 32.792 19.812 32.792Z" fill="black"/>
<path d="M18.968 32.188C18.944 32.192 18.92 32.176 18.916 32.152C18.912 32.128 18.928 32.104 18.952 32.1C20.508 31.82 22.092 30.708 22.108 30.696C22.128 30.68 22.156 30.688 22.172 30.708C22.188 30.728 22.18 30.756 22.16 30.772C22.144 30.78 20.544 31.9 18.968 32.188Z" fill="black"/>
<path d="M24.216 27.224C24.288 27.276 25.9 28.44 26.912 30.548L27.708 29.932C27.708 29.932 27.112 27.568 24.992 26.568L24.216 27.224Z" fill="white"/>
<path d="M26.928 30.624C26.92 30.624 26.908 30.624 26.9 30.624C26.876 30.62 26.86 30.604 26.848 30.584C25.832 28.468 24.192 27.3 24.176 27.288C24.156 27.276 24.144 27.252 24.144 27.228C24.144 27.204 24.152 27.18 24.172 27.168L24.952 26.512C24.976 26.492 25.008 26.488 25.032 26.5C26.144 27.024 26.832 27.928 27.216 28.588C27.632 29.304 27.78 29.888 27.788 29.916C27.796 29.944 27.784 29.976 27.76 29.996L26.96 30.608C26.952 30.616 26.94 30.62 26.928 30.624ZM24.34 27.22C24.68 27.48 26.036 28.596 26.944 30.432L27.628 29.904C27.584 29.752 27.42 29.244 27.084 28.66C26.716 28.028 26.06 27.168 25.012 26.656L24.34 27.22Z" fill="#FF3969"/>
<path d="M3.616 2.608C3.616 2.608 4.972 3.376 5.288 3.832C5.6 4.288 4.824 4.348 4.516 4.504C4.204 4.66 4.84 5.076 5.64 5.428C6.092 5.724 4.004 5.452 3.492 4.664C2.98 3.876 4.292 4.052 4.392 3.852C4.488 3.652 3 2.416 3.616 2.608Z" fill="#873FC5"/>
<path d="M8.17199 0.86C8.17199 0.86 8.71199 2.324 8.65599 2.872C8.59999 3.42 7.96799 2.968 7.63199 2.888C7.29599 2.808 7.50799 3.532 7.89199 4.32C8.04799 4.84 6.62799 3.28 6.74399 2.348C6.85999 1.416 7.75199 2.4 7.95599 2.312C8.16399 2.216 7.82399 0.312 8.17199 0.86Z" fill="#873FC5"/>
<path d="M12.284 0.132001C12.284 0.132001 12.18 1.688 11.908 2.168C11.632 2.648 11.24 1.976 10.968 1.764C10.692 1.552 10.592 2.3 10.624 3.176C10.552 3.712 9.89201 1.712 10.38 0.908001C10.868 0.104001 11.28 1.364 11.504 1.368C11.724 1.372 12.188 -0.507999 12.284 0.132001Z" fill="#873FC5"/>
<path d="M4.916 21.128C4.904 21.132 4.892 21.128 4.876 21.124C4.836 21.108 4.816 21.068 4.832 21.028C5.188 20.052 5.416 19.16 5.416 19.152C5.424 19.116 5.456 19.092 5.492 19.096C5.528 19.096 5.56 19.124 5.564 19.16C5.564 19.168 5.656 19.784 5.66 20.436C5.66 20.476 5.628 20.512 5.584 20.512C5.544 20.512 5.508 20.48 5.508 20.436C5.508 20.116 5.484 19.8 5.46 19.568C5.36 19.924 5.192 20.484 4.972 21.08C4.964 21.108 4.944 21.124 4.916 21.128Z" fill="white"/>
</svg>
