<svg id="Glyph" xmlns="http://www.w3.org/2000/svg" width="20" height="22.006" viewBox="0 0 20 22.006">
  <path id="Path_5212" data-name="Path 5212" d="M7.71,7.71,11,4.41V16a1,1,0,0,0,2,0V4.41l3.29,3.3a1,1,0,1,0,1.42-1.42l-5-5a1,1,0,0,0-1.42,0l-5,5A1,1,0,0,0,7.71,7.71Z" transform="translate(-2 -0.994)" fill="#f9a69c"/>
  <path id="Path_5213" data-name="Path 5213" d="M21,15a1,1,0,0,0-1,1v2a3,3,0,0,1-3,3H7a3,3,0,0,1-3-3V16a1,1,0,0,0-2,0v2a5,5,0,0,0,5,5H17a5,5,0,0,0,5-5V16A1,1,0,0,0,21,15Z" transform="translate(-2 -0.994)" fill="#f9a69c"/>
</svg>
